<svg xmlns="http://www.w3.org/2000/svg" xmlns:xlink="http://www.w3.org/1999/xlink" viewBox="0 0 391.15 37.58"><defs><style>.cls-1,.cls-10,.cls-11,.cls-12,.cls-13,.cls-14,.cls-15,.cls-16,.cls-17,.cls-18,.cls-19,.cls-2,.cls-20,.cls-3,.cls-4,.cls-5,.cls-6,.cls-7,.cls-8,.cls-9{fill:none;stroke-linejoin:round;stroke-width:10px;}.cls-1{stroke:url(#linear-gradient);}.cls-2{stroke:url(#linear-gradient-2);}.cls-3{stroke:url(#linear-gradient-3);}.cls-4{stroke:url(#linear-gradient-4);}.cls-5{stroke:url(#linear-gradient-5);}.cls-6{stroke:url(#linear-gradient-6);}.cls-7{stroke:url(#linear-gradient-7);}.cls-8{stroke:url(#linear-gradient-8);}.cls-9{stroke:url(#linear-gradient-9);}.cls-10{stroke:url(#linear-gradient-10);}.cls-11{stroke:url(#linear-gradient-11);}.cls-12{stroke:url(#linear-gradient-12);}.cls-13{stroke:url(#linear-gradient-13);}.cls-14{stroke:url(#linear-gradient-14);}.cls-15{stroke:url(#linear-gradient-15);}.cls-16{stroke:url(#linear-gradient-16);}.cls-17{stroke:url(#linear-gradient-17);}.cls-18{stroke:url(#linear-gradient-18);}.cls-19{stroke:url(#linear-gradient-19);}.cls-20{stroke:url(#linear-gradient-20);}.cls-21{fill:#fff;}</style><linearGradient id="linear-gradient" x1="6.84" y1="29.48" x2="294.37" y2="-136.53" gradientUnits="userSpaceOnUse"><stop offset="0" stop-color="#ee2a7b"/><stop offset="1" stop-color="#00aeef"/></linearGradient><linearGradient id="linear-gradient-2" x1="14.42" y1="42.6" x2="301.94" y2="-123.4" xlink:href="#linear-gradient"/><linearGradient id="linear-gradient-3" x1="18.54" y1="49.74" x2="306.07" y2="-116.26" xlink:href="#linear-gradient"/><linearGradient id="linear-gradient-4" x1="19.73" y1="51.8" x2="307.25" y2="-114.2" xlink:href="#linear-gradient"/><linearGradient id="linear-gradient-5" x1="24.23" y1="59.6" x2="311.76" y2="-106.4" xlink:href="#linear-gradient"/><linearGradient id="linear-gradient-6" x1="20.06" y1="52.37" x2="307.58" y2="-113.63" xlink:href="#linear-gradient"/><linearGradient id="linear-gradient-7" x1="29.12" y1="68.07" x2="316.65" y2="-97.93" xlink:href="#linear-gradient"/><linearGradient id="linear-gradient-8" x1="32.73" y1="74.32" x2="320.25" y2="-91.68" xlink:href="#linear-gradient"/><linearGradient id="linear-gradient-9" x1="38.59" y1="84.47" x2="326.12" y2="-81.53" xlink:href="#linear-gradient"/><linearGradient id="linear-gradient-10" x1="41.84" y1="90.09" x2="329.36" y2="-75.91" xlink:href="#linear-gradient"/><linearGradient id="linear-gradient-11" x1="45.82" y1="97" x2="333.35" y2="-69.01" xlink:href="#linear-gradient"/><linearGradient id="linear-gradient-12" x1="52.03" y1="107.75" x2="339.56" y2="-58.25" xlink:href="#linear-gradient"/><linearGradient id="linear-gradient-13" x1="56.29" y1="115.12" x2="343.81" y2="-50.88" xlink:href="#linear-gradient"/><linearGradient id="linear-gradient-14" x1="60.25" y1="121.98" x2="347.77" y2="-44.02" xlink:href="#linear-gradient"/><linearGradient id="linear-gradient-15" x1="65.14" y1="130.46" x2="352.67" y2="-35.54" xlink:href="#linear-gradient"/><linearGradient id="linear-gradient-16" x1="69.99" y1="138.85" x2="357.51" y2="-27.15" xlink:href="#linear-gradient"/><linearGradient id="linear-gradient-17" x1="82.22" y1="160.03" x2="369.74" y2="-5.97" xlink:href="#linear-gradient"/><linearGradient id="linear-gradient-18" x1="90.78" y1="174.86" x2="378.3" y2="8.86" xlink:href="#linear-gradient"/><linearGradient id="linear-gradient-19" x1="93.88" y1="180.23" x2="381.4" y2="14.23" xlink:href="#linear-gradient"/><linearGradient id="linear-gradient-20" x1="98.07" y1="187.49" x2="385.6" y2="21.49" xlink:href="#linear-gradient"/></defs><title>Asset 7</title><g id="Layer_2" data-name="Layer 2"><g id="Layer_1-2" data-name="Layer 1"><path class="cls-1" d="M32,31.88a7.41,7.41,0,0,1-3.46-.73,4.07,4.07,0,0,1-2-2.27,8.06,8.06,0,0,1-.44-2.14c-.07-.85-.11-1.85-.11-3a4.37,4.37,0,0,0-.22-1.54,3.14,3.14,0,0,0-.51-.92,19.08,19.08,0,0,1-2,.11h-.73a32.15,32.15,0,0,1-1.61,5,12.23,12.23,0,0,1-2,3.24,6.43,6.43,0,0,1-2.36,1.76,7.23,7.23,0,0,1-2.82.53,9,9,0,0,1-3.52-.67,10.51,10.51,0,0,1-2.76-1.67,7.93,7.93,0,0,1-1.8-2.14A4.38,4.38,0,0,1,5,25.29a3.44,3.44,0,0,1,.7-2.09,6.77,6.77,0,0,1,1.7-1.63,9.42,9.42,0,0,1,2.1-1.06,5.84,5.84,0,0,1,1.91-.38,1.12,1.12,0,0,1,.66.18.52.52,0,0,1,.26.4.58.58,0,0,1-.13.42,5.34,5.34,0,0,1-.53.42,6.38,6.38,0,0,0-.75.74,6,6,0,0,0-.77,1.06,6.61,6.61,0,0,0-.59,1.26A4,4,0,0,0,9.32,26a3.68,3.68,0,0,0,.24,1.32,3.75,3.75,0,0,0,.66,1.11,3.11,3.11,0,0,0,1,.79,2.84,2.84,0,0,0,1.31.3c1.13,0,2.17-.77,3.14-2.31a27.33,27.33,0,0,0,2.72-7.44c.32-1.34.61-2.49.87-3.46s.5-1.8.75-2.51a11.15,11.15,0,0,1,.78-1.81,8.09,8.09,0,0,1,1-1.41A4.47,4.47,0,0,1,23,9.74a11.06,11.06,0,0,1,1.39-.58,8.71,8.71,0,0,1,1.26-.35,5.66,5.66,0,0,1,.75-.11c.47,0,.7.17.7.51a.6.6,0,0,1-.2.33c-.14.15-.3.36-.5.62s-.42.6-.68,1A8.28,8.28,0,0,0,25,12.58c-.17.44-.33.84-.48,1.21s-.29.79-.43,1.26-.32,1-.5,1.69-.38,1.46-.6,2.43a10.15,10.15,0,0,0,3.35-.62A9.66,9.66,0,0,0,29.1,17,7.55,7.55,0,0,0,31,14.67a5.8,5.8,0,0,0,.72-2.82,4.2,4.2,0,0,0-1.56-3.46c-1-.84-2.73-1.27-5.07-1.27a17.5,17.5,0,0,0-4.56.54,10.88,10.88,0,0,0-3.37,1.46,6.69,6.69,0,0,0-2.09,2.16,5.08,5.08,0,0,0-.71,2.62,3,3,0,0,0,.29,1.41,4.46,4.46,0,0,0,.62,1,4.51,4.51,0,0,0,.62.62c.2.16.3.3.3.43,0,.46-.26.69-.77.69a5.71,5.71,0,0,1-1.74-.33,7.85,7.85,0,0,1-1.91-.93,6.11,6.11,0,0,1-1.53-1.47,3.17,3.17,0,0,1-.65-2A4.87,4.87,0,0,1,11,10.07a11.62,11.62,0,0,1,3.52-2.63,21.56,21.56,0,0,1,5-1.78A24.93,24.93,0,0,1,25.18,5a20,20,0,0,1,4.95.55A12.23,12.23,0,0,1,33.73,7a6.61,6.61,0,0,1,2.2,2.24A5.43,5.43,0,0,1,36.68,12,6.1,6.1,0,0,1,36,14.87a9,9,0,0,1-1.83,2.44,12.69,12.69,0,0,1-2.69,1.94,17.14,17.14,0,0,1-3.22,1.35,3.3,3.3,0,0,1,1,1,4.84,4.84,0,0,1,.68,2.11,14.44,14.44,0,0,0,1.14,4.37,2.24,2.24,0,0,0,2.09,1.34A2.56,2.56,0,0,0,34.61,29a6.09,6.09,0,0,0,1.27-1.1,7.91,7.91,0,0,0,1.2-1.57.88.88,0,0,1,.19-.26,1.14,1.14,0,0,1,.22-.16.58.58,0,0,1,.33-.09.76.76,0,0,1,.53.22.65.65,0,0,1,.24.51.6.6,0,0,1-.06.27l-.13.28a2.52,2.52,0,0,0-.14.33,13.23,13.23,0,0,1-1.8,2.27,10.68,10.68,0,0,1-2,1.54A4.75,4.75,0,0,1,32,31.88Z"/><path class="cls-2" d="M54.55,27.38A6,6,0,0,1,53,29a8.17,8.17,0,0,1-2,1.1,7.42,7.42,0,0,1-2.8.48,10.76,10.76,0,0,1-1.43-.11,7,7,0,0,1-1.94,1.08,6.65,6.65,0,0,1-2.23.38,5.94,5.94,0,0,1-2.18-.4,5.8,5.8,0,0,1-1.83-1.1,5.08,5.08,0,0,1-1.25-1.65,4.63,4.63,0,0,1-.46-2,10.11,10.11,0,0,1,.79-4.09,9.58,9.58,0,0,1,2-3,8.59,8.59,0,0,1,2.75-1.83,7.53,7.53,0,0,1,2.93-.62,6.19,6.19,0,0,1,2.13.36,4.84,4.84,0,0,1,1.7,1.08,5.41,5.41,0,0,1,1.13,1.72,5.87,5.87,0,0,1,.43,2.26,8.81,8.81,0,0,1-.61,3.07,11.55,11.55,0,0,1-1.67,3l.28.05.31,0a3.72,3.72,0,0,0,1.72-.39,7,7,0,0,0,1.36-.86,9.68,9.68,0,0,0,1.24-1.24.88.88,0,0,1,.19-.26.89.89,0,0,1,.22-.16.57.57,0,0,1,.32-.09.76.76,0,0,1,.54.22.68.68,0,0,1,.23.51.59.59,0,0,1-.05.27l-.13.28Q54.63,27.2,54.55,27.38Zm-13.36.25a3.24,3.24,0,0,0,.45,1.8,1.49,1.49,0,0,0,1.3.7,1.84,1.84,0,0,0,1.14-.44,1.1,1.1,0,0,1-.62-.88,1.16,1.16,0,0,1,.2-.63,2.48,2.48,0,0,1,.49-.58,3.33,3.33,0,0,1,.61-.42,1.16,1.16,0,0,1,.53-.17,1.61,1.61,0,0,1,.4.07,15.36,15.36,0,0,0,.84-2.94,14.83,14.83,0,0,0,.3-2.77,3,3,0,0,0-.41-1.77,1.23,1.23,0,0,0-1-.54,2.15,2.15,0,0,0-1.36.65,6.51,6.51,0,0,0-1.37,1.79,11.87,11.87,0,0,0-1.06,2.71A13.13,13.13,0,0,0,41.19,27.63Z"/><path class="cls-3" d="M69.53,27.38a9.12,9.12,0,0,1-2.38,2.38A13.4,13.4,0,0,1,64,31.41a13.93,13.93,0,0,1-4.78.73,6.43,6.43,0,0,1-2.57-.53,8,8,0,0,1-2.1-1.34,6.71,6.71,0,0,1-1.43-1.76,3.68,3.68,0,0,1-.53-1.75,1.84,1.84,0,0,1,.55-1.36,5.61,5.61,0,0,1,1.21-.92,8.61,8.61,0,0,1,1.76-.65c.14-.25.34-.55.58-.92s.45-.71.77-1.19.68-1,1.1-1.7a12.63,12.63,0,0,1,2.2-2.7,2.69,2.69,0,0,1,1.61-.75,1.31,1.31,0,0,1,.6.17,4,4,0,0,1,.59.38,3,3,0,0,1,.44.44.67.67,0,0,1,.16.37,1.16,1.16,0,0,1-.14.46l-.31.58a6.62,6.62,0,0,0-.3.66,2.18,2.18,0,0,0-.13.72,7.57,7.57,0,0,0,.22,1.9c.15.54.32,1,.5,1.52s.35.94.49,1.39a5.58,5.58,0,0,1,.09,2.75,4.09,4.09,0,0,1-.31.86,3.57,3.57,0,0,1-.4.7,7.24,7.24,0,0,0,1.92-.83,10.32,10.32,0,0,0,1.45-1,10.25,10.25,0,0,0,1.17-1.32,1,1,0,0,1,.18-.26,1.58,1.58,0,0,1,.22-.16.63.63,0,0,1,.33-.09.76.76,0,0,1,.54.22.68.68,0,0,1,.23.51.76.76,0,0,1,0,.27l-.13.28Q69.6,27.2,69.53,27.38ZM59.21,21.74c-.52.78-1,1.49-1.36,2.12s-.65,1.09-.93,1.58a3,3,0,0,0-.42.91,13.09,13.09,0,0,0,.09,1.56,5.61,5.61,0,0,0,.31,1.34,2.61,2.61,0,0,0,.55.93,1.12,1.12,0,0,0,.84.35,1.75,1.75,0,0,0,1.45-.92,3.85,3.85,0,0,0,.6-2.16A6.4,6.4,0,0,0,60.16,26c-.12-.52-.25-1-.39-1.52s-.26-1-.38-1.47A5.29,5.29,0,0,1,59.21,21.74Z"/><path class="cls-4" d="M72.54,28a1.51,1.51,0,0,0,.31,1,1,1,0,0,0,.86.39A2.59,2.59,0,0,0,75.16,29a6.3,6.3,0,0,0,1.26-1.1,7.94,7.94,0,0,0,1.21-1.57.68.68,0,0,1,.18-.26,1.14,1.14,0,0,1,.22-.16.63.63,0,0,1,.33-.09.74.74,0,0,1,.53.22.65.65,0,0,1,.24.51.6.6,0,0,1-.06.27c0,.09-.08.18-.12.28s-.1.21-.15.33A13.23,13.23,0,0,1,77,29.65a10.59,10.59,0,0,1-2,1.54,4.81,4.81,0,0,1-2.51.69,5,5,0,0,1-3.37-1.11,3.71,3.71,0,0,1-1.28-2.92,10.58,10.58,0,0,1,.33-2.38c.22-.92.47-1.86.77-2.82s.6-1.85.93-2.71.61-1.54.83-2.05a1.35,1.35,0,0,1,.4-.49.87.87,0,0,1,.58-.2,2.09,2.09,0,0,1,.92.25,6.07,6.07,0,0,1,1,.59,4,4,0,0,1,.73.68,1,1,0,0,1,.3.56,5.67,5.67,0,0,1-.33,1.82l-.72,2.07c-.25.73-.48,1.5-.69,2.32A10.24,10.24,0,0,0,72.54,28Zm5.27-17.62a4.27,4.27,0,0,1-.9,2.62,3.57,3.57,0,0,1-1,.84,2.15,2.15,0,0,1-1.12.31,2,2,0,0,1-1.39-.55,2,2,0,0,1-.58-1.54,3.71,3.71,0,0,1,.25-1.35,4.49,4.49,0,0,1,.68-1.19,3.36,3.36,0,0,1,1-.84,2.33,2.33,0,0,1,1.17-.31A1.76,1.76,0,0,1,77.28,9,2,2,0,0,1,77.81,10.42Z"/><path class="cls-5" d="M91.87,27.38a9.19,9.19,0,0,1-2,2.27,11.7,11.7,0,0,1-2.55,1.54,8.63,8.63,0,0,1-3.6.69,7.83,7.83,0,0,1-2.57-.4,6.12,6.12,0,0,1-2-1.12,5.1,5.1,0,0,1-1.32-1.7,4.88,4.88,0,0,1-.48-2.16,9.3,9.3,0,0,1,.77-3.81,10.49,10.49,0,0,1,1.94-3,8.62,8.62,0,0,1,2.55-1.88,6,6,0,0,1,2.58-.66,3.82,3.82,0,0,1,1.58.33,4.36,4.36,0,0,1,1.28.86,3.86,3.86,0,0,1,.86,1.22A3.45,3.45,0,0,1,89.2,21a5.61,5.61,0,0,1-.29,1.59,5.46,5.46,0,0,1-1,1.78,5.65,5.65,0,0,1-1.83,1.45,6.2,6.2,0,0,1-2.88.6,3.13,3.13,0,0,1-.84-.11,4.11,4.11,0,0,1-.55-.11,3.3,3.3,0,0,0,1,2.53,3.22,3.22,0,0,0,2.27.88,5.23,5.23,0,0,0,2.35-.53A9.22,9.22,0,0,0,89.2,28a7.07,7.07,0,0,0,1.5-1.68.88.88,0,0,1,.19-.26.89.89,0,0,1,.22-.16.58.58,0,0,1,.33-.09A.76.76,0,0,1,92,26a.64.64,0,0,1,.23.51.59.59,0,0,1,0,.27l-.13.28Q91.95,27.2,91.87,27.38ZM82,24.74a3.45,3.45,0,0,0,1.87-.55,5.91,5.91,0,0,0,1.52-1.34,7,7,0,0,0,1-1.62,3.82,3.82,0,0,0,.36-1.43c0-.49-.22-.74-.66-.74a2.3,2.3,0,0,0-1.5.63,6.57,6.57,0,0,0-1.3,1.5,9.06,9.06,0,0,0-.93,1.87A4.89,4.89,0,0,0,82,24.74Z"/><path class="cls-6" d="M93.49,7.86A2,2,0,0,1,94,6.46a1.88,1.88,0,0,1,1.43-.54,1.9,1.9,0,0,1,1.46.51,2.06,2.06,0,0,1,.48,1.46,4.07,4.07,0,0,1-.53,2,8.57,8.57,0,0,1-1.25,1.74,9.1,9.1,0,0,1-1.39,1.25,2.12,2.12,0,0,1-.93.47c-.37,0-.55-.15-.55-.47a1,1,0,0,1,.18-.53c.12-.19.26-.41.4-.66a6.58,6.58,0,0,0,.41-.88,3.51,3.51,0,0,0,.18-1.19,1.57,1.57,0,0,0-.2-.83A1.57,1.57,0,0,1,93.49,7.86Z"/><path class="cls-7" d="M102.6,32.14a6.38,6.38,0,0,1-2.56-.53,7.86,7.86,0,0,1-2.1-1.34,6.71,6.71,0,0,1-1.43-1.76A3.57,3.57,0,0,1,96,26.76a1.84,1.84,0,0,1,.55-1.36,5.32,5.32,0,0,1,1.2-.92,8.84,8.84,0,0,1,1.76-.65c.15-.25.34-.55.59-.92s.45-.71.77-1.19.68-1,1.1-1.7a12.65,12.65,0,0,1,2.19-2.7,2.72,2.72,0,0,1,1.61-.75,1.31,1.31,0,0,1,.61.17,4.56,4.56,0,0,1,.59.38,2.92,2.92,0,0,1,.43.44.69.69,0,0,1,.17.37,1.05,1.05,0,0,1-.15.46c-.09.18-.2.38-.31.58a4.88,4.88,0,0,0-.29.66,2,2,0,0,0-.13.72,7.14,7.14,0,0,0,.22,1.9c.15.54.31,1,.49,1.52s.35.94.5,1.39a4.81,4.81,0,0,1,.22,1.52,6.2,6.2,0,0,1-.37,2.18,5,5,0,0,1-1.06,1.74A4.71,4.71,0,0,1,105,31.74,6.57,6.57,0,0,1,102.6,32.14Zm0-10.4c-.51.78-1,1.49-1.35,2.12s-.66,1.09-.94,1.58a3,3,0,0,0-.42.91,13.09,13.09,0,0,0,.09,1.56,6.14,6.14,0,0,0,.31,1.34,2.76,2.76,0,0,0,.55.93,1.12,1.12,0,0,0,.85.35,1.72,1.72,0,0,0,1.44-.92,3.78,3.78,0,0,0,.61-2.16,5.92,5.92,0,0,0-.19-1.46c-.12-.52-.25-1-.38-1.52s-.26-1-.39-1.47A5.29,5.29,0,0,1,102.64,21.74Z"/><path class="cls-8" d="M137.11,5a1.7,1.7,0,0,1,1.09.38,1.36,1.36,0,0,1,.48,1.12,1.91,1.91,0,0,1-.24.94,3.27,3.27,0,0,1-.58.75,3.61,3.61,0,0,1-.79.55,3.36,3.36,0,0,1-.84.29,2.23,2.23,0,0,0-.44.82,11.12,11.12,0,0,0-.44,1.71c-.15.73-.32,1.66-.51,2.78s-.43,2.48-.7,4.06a30.46,30.46,0,0,1-1.36,5.44,15.87,15.87,0,0,1-2.19,4.25,10,10,0,0,1-3.12,2.79,8.29,8.29,0,0,1-4.14,1,6.54,6.54,0,0,1-2.94-.66,8.39,8.39,0,0,1-2.29-1.61,7.62,7.62,0,0,1-1.49-2,4.5,4.5,0,0,1-.53-1.92,1.08,1.08,0,0,1,.13-.52.47.47,0,0,1,.42-.22.43.43,0,0,1,.37.15l.22.29a6.4,6.4,0,0,0,.66.86,6.22,6.22,0,0,0,1,.88,5.1,5.1,0,0,0,1.23.7,4,4,0,0,0,1.52.27,5.68,5.68,0,0,0,3-.77,8.35,8.35,0,0,0,2.37-2.1A14.37,14.37,0,0,0,128.74,22a31.64,31.64,0,0,0,1.37-4.06c.39-1.47.75-2.74,1.08-3.83s.63-2,.9-2.73.57-1.58.84-2.19a16.65,16.65,0,0,0-4.39,1.9,11.41,11.41,0,0,0-1.62,1.19,9.35,9.35,0,0,0-1.39,1.54,7.57,7.57,0,0,0-1,1.92,7.29,7.29,0,0,0-.36,2.35,2.84,2.84,0,0,0,.44,1.75,5.16,5.16,0,0,0,.84.92,3.9,3.9,0,0,0,.38.33.42.42,0,0,1,.2.36c0,.32-.24.48-.73.48a4,4,0,0,1-1.57-.4A7,7,0,0,1,122,20.38a6.74,6.74,0,0,1-1.43-1.77,4.68,4.68,0,0,1-.58-2.33,5.2,5.2,0,0,1,.64-2.56,7.83,7.83,0,0,1,1.72-2.13,12.61,12.61,0,0,1,2.49-1.68,27.78,27.78,0,0,1,2.93-1.32,28.68,28.68,0,0,1,3.06-1q1.53-.4,2.85-.66a4.72,4.72,0,0,1,1.72-1.54A4.11,4.11,0,0,1,137.11,5Z"/><path class="cls-9" d="M149.45,27.38a13.3,13.3,0,0,1-2.16,2.27,13,13,0,0,1-2.58,1.54,8.41,8.41,0,0,1-3.5.69,9.59,9.59,0,0,1-2.36-.29,6.53,6.53,0,0,1-2.15-.95,5,5,0,0,1-1.54-1.72,5.34,5.34,0,0,1-.58-2.6,8.44,8.44,0,0,1,.75-3.5,10.35,10.35,0,0,1,1.94-2.91,9.56,9.56,0,0,1,2.66-2,6.28,6.28,0,0,1,2.85-.73,4.61,4.61,0,0,1,1.76.31,4.06,4.06,0,0,1,1.3.82,3.92,3.92,0,0,1,.83,1.16,3,3,0,0,1,.29,1.26,2.63,2.63,0,0,1-.2,1,3.68,3.68,0,0,1-.53.9,3.17,3.17,0,0,1-.72.66,1.37,1.37,0,0,1-.75.25,2,2,0,0,1-1.3-.46,1.34,1.34,0,0,1-.57-1.08,1.27,1.27,0,0,1,.22-.76,3.2,3.2,0,0,1,.5-.54l.51-.44a.6.6,0,0,0,.24-.49.68.68,0,0,0-.31-.53,1.2,1.2,0,0,0-.75-.24,2.43,2.43,0,0,0-1.56.61,5.76,5.76,0,0,0-1.34,1.59,9.82,9.82,0,0,0-1,2.21,8.82,8.82,0,0,0-.37,2.48,3.54,3.54,0,0,0,1,2.82,3.75,3.75,0,0,0,2.58.91A5,5,0,0,0,145,29.1,8.62,8.62,0,0,0,146.74,28a8.23,8.23,0,0,0,1.54-1.68,2,2,0,0,1,.22-.26l.25-.16a.63.63,0,0,1,.33-.09.72.72,0,0,1,.55.22.67.67,0,0,1,.22.51.5.5,0,0,1-.07.27l-.15.28A1.74,1.74,0,0,0,149.45,27.38Z"/><path class="cls-10" d="M155.75,29.5a4.47,4.47,0,0,0,1.48-.22,4.68,4.68,0,0,0,1.1-.51,6,6,0,0,0,.79-.6l.51-.5.26-.25.25-.17a.58.58,0,0,1,.3-.09.74.74,0,0,1,.55.22.72.72,0,0,1,.22.51.5.5,0,0,1-.1.28,1.75,1.75,0,0,0-.16.27c-.07.1-.15.21-.22.33A8.49,8.49,0,0,1,159,30.34a10.12,10.12,0,0,1-2,1.07,7,7,0,0,1-2.65.47,7.83,7.83,0,0,1-2.57-.4,6.12,6.12,0,0,1-2-1.12,5.1,5.1,0,0,1-1.32-1.7A4.88,4.88,0,0,1,148,26.5a9.3,9.3,0,0,1,.77-3.81,10.49,10.49,0,0,1,1.94-3,8.5,8.5,0,0,1,2.55-1.88,6,6,0,0,1,2.58-.66,3.82,3.82,0,0,1,1.58.33,4.5,4.5,0,0,1,1.28.86,4,4,0,0,1,.86,1.22,3.45,3.45,0,0,1,.31,1.43,5.61,5.61,0,0,1-.29,1.59,5.46,5.46,0,0,1-1,1.78,5.88,5.88,0,0,1-1.83,1.45,6.2,6.2,0,0,1-2.88.6,3.13,3.13,0,0,1-.84-.11,4.11,4.11,0,0,1-.55-.11,3,3,0,0,0,1,2.46A3.51,3.51,0,0,0,155.75,29.5Zm-3.08-4.76a3.45,3.45,0,0,0,1.87-.55,5.91,5.91,0,0,0,1.52-1.34,7,7,0,0,0,1-1.62,3.82,3.82,0,0,0,.36-1.43c0-.49-.22-.74-.66-.74a2.3,2.3,0,0,0-1.5.63,6.57,6.57,0,0,0-1.3,1.5,9.06,9.06,0,0,0-.93,1.87A4.89,4.89,0,0,0,152.67,24.74Z"/><path class="cls-11" d="M183.18,32.58a11.44,11.44,0,0,1-3.41-.53,9.25,9.25,0,0,1-3-1.61,8.29,8.29,0,0,1-2.18-2.75,8.74,8.74,0,0,1-.84-4,14.28,14.28,0,0,1,.15-2.06,13.91,13.91,0,0,1,.44-2.05,13.76,13.76,0,0,1-2.93-1,10.45,10.45,0,0,1-2.2-1.43,5.75,5.75,0,0,1-1.39-1.67,3.61,3.61,0,0,1-.48-1.75,4.8,4.8,0,0,1,.94-2.86,10.05,10.05,0,0,1,2.19-2.27A11.58,11.58,0,0,1,173,7.09a5.81,5.81,0,0,1,2.09-.55c.42,0,.63.13.63.4a.48.48,0,0,1-.19.4l-.51.41c-.27.19-.57.43-.9.71a5.51,5.51,0,0,0-.93,1,5.19,5.19,0,0,0-.73,1.43,5.67,5.67,0,0,0-.3,1.95,5.15,5.15,0,0,0,.61,2.4,4.33,4.33,0,0,0,2.32,1.93,22.41,22.41,0,0,1,2.66-4.71,24.44,24.44,0,0,1,3.51-3.88A17.6,17.6,0,0,1,185.18,6a8.57,8.57,0,0,1,3.75-1,4.4,4.4,0,0,1,2.07.51,6.08,6.08,0,0,1,1.67,1.28,6.31,6.31,0,0,1,1.09,1.67,4.08,4.08,0,0,1,.41,1.67,6.18,6.18,0,0,1-1,3.15,12,12,0,0,1-3,3.22A17.84,17.84,0,0,1,185.51,19a18.64,18.64,0,0,1-6.14,1.1,16.19,16.19,0,0,0-.44,3.7q0,3.51,1.41,5a5.23,5.23,0,0,0,4,1.52,6.23,6.23,0,0,0,2-.33,9.74,9.74,0,0,0,1.92-.88,9.86,9.86,0,0,0,1.74-1.3,11.81,11.81,0,0,0,1.43-1.59.68.68,0,0,1,.18-.26,1.14,1.14,0,0,1,.22-.16.63.63,0,0,1,.33-.09.74.74,0,0,1,.55.22.67.67,0,0,1,.22.51.6.6,0,0,1-.06.27c0,.09-.08.18-.12.28s-.1.21-.15.33a12.29,12.29,0,0,1-1.54,1.87A11.89,11.89,0,0,1,189,30.91a11.51,11.51,0,0,1-2.66,1.21A10.17,10.17,0,0,1,183.18,32.58Zm6.15-25.09a4.72,4.72,0,0,0-2.52.84,12.49,12.49,0,0,0-2.59,2.29A22.09,22.09,0,0,0,181.86,14a23.54,23.54,0,0,0-1.83,4,11.34,11.34,0,0,0,4.49-1,11.9,11.9,0,0,0,3.38-2.29A10.17,10.17,0,0,0,190,11.74a6.69,6.69,0,0,0,.73-2.86,1.3,1.3,0,0,0-1.43-1.39Z"/><path class="cls-12" d="M200.72,28.15a1.29,1.29,0,0,0,.33,1,1.2,1.2,0,0,0,.88.33,2.59,2.59,0,0,0,1.45-.48,6,6,0,0,0,1.26-1.1,7.94,7.94,0,0,0,1.21-1.57A1,1,0,0,1,206,26a1.58,1.58,0,0,1,.22-.16.63.63,0,0,1,.33-.09.73.73,0,0,1,.53.22.65.65,0,0,1,.24.51.76.76,0,0,1,0,.27l-.13.28q-.07.15-.15.33a12.71,12.71,0,0,1-1.79,2.27,10.68,10.68,0,0,1-2,1.54,4.79,4.79,0,0,1-2.51.69,5.62,5.62,0,0,1-1.9-.29,5.16,5.16,0,0,1-1.47-.79,3.46,3.46,0,0,1-.95-1.15,3.16,3.16,0,0,1-.33-1.43,6.8,6.8,0,0,1,.37-2.27,15.34,15.34,0,0,1,.79-1.94q.42-.89.78-1.56a2.43,2.43,0,0,0,.37-1.12.47.47,0,0,0-.35-.43,5.07,5.07,0,0,0-.75-.26,9,9,0,0,0-1.1-.18,38.44,38.44,0,0,1-2,4.37c-.64,1.14-1.15,2-1.54,2.55a3.55,3.55,0,0,1-.28.33.7.7,0,0,1-.53.22.83.83,0,0,1-.77-.77.88.88,0,0,1,.17-.5,2.76,2.76,0,0,0,.24-.38c.34-.49.82-1.26,1.44-2.33a19.53,19.53,0,0,0,1.74-4.19,2.31,2.31,0,0,1-.62-.66,3.75,3.75,0,0,1-.59-2.05,2.61,2.61,0,0,1,.21-1,2.77,2.77,0,0,1,.53-.86,3.1,3.1,0,0,1,.69-.59,1.36,1.36,0,0,1,.7-.22,1.8,1.8,0,0,1,.77.2,3.69,3.69,0,0,1,.73.48,2.69,2.69,0,0,1,.55.62,1.14,1.14,0,0,1,.22.6,2.66,2.66,0,0,1-.24,1.21,2.07,2.07,0,0,0-.24.92.61.61,0,0,0,.44.58,2.75,2.75,0,0,0,1.1.19,6.79,6.79,0,0,0,1.8-.24l.62-.17a3,3,0,0,1,.62-.07,1.34,1.34,0,0,1,1.08.51,1.93,1.93,0,0,1,.42,1.25A3.5,3.5,0,0,1,203,21.9q-.42.87-.93,1.89a23,23,0,0,0-.94,2.14A6.32,6.32,0,0,0,200.72,28.15Z"/><path class="cls-13" d="M220.1,27.38a9.44,9.44,0,0,1-2,2.27,11.86,11.86,0,0,1-2.54,1.54,8.71,8.71,0,0,1-3.61.69,7.77,7.77,0,0,1-2.56-.4,6.07,6.07,0,0,1-2-1.12,5.1,5.1,0,0,1-1.32-1.7,5,5,0,0,1-.47-2.16,9.14,9.14,0,0,1,.77-3.81,10.28,10.28,0,0,1,1.94-3,8.58,8.58,0,0,1,2.54-1.88,6,6,0,0,1,2.59-.66,3.78,3.78,0,0,1,1.57.33,4.24,4.24,0,0,1,1.28.86,3.86,3.86,0,0,1,.86,1.22,3.45,3.45,0,0,1,.31,1.43,5.74,5.74,0,0,1-1.26,3.37,5.65,5.65,0,0,1-1.83,1.45,6.2,6.2,0,0,1-2.88.6,3.18,3.18,0,0,1-.84-.11,4.45,4.45,0,0,1-.55-.11,3.3,3.3,0,0,0,.95,2.53,3.25,3.25,0,0,0,2.28.88,5.22,5.22,0,0,0,2.34-.53A8.65,8.65,0,0,0,217.42,28a7.33,7.33,0,0,0,1.51-1.68.68.68,0,0,1,.18-.26,1.14,1.14,0,0,1,.22-.16.63.63,0,0,1,.33-.09.76.76,0,0,1,.53.22.65.65,0,0,1,.24.51.6.6,0,0,1-.06.27,2.28,2.28,0,0,1-.13.28Zm-9.85-2.64a3.42,3.42,0,0,0,1.86-.55,5.75,5.75,0,0,0,1.52-1.34,6.69,6.69,0,0,0,1-1.62A3.68,3.68,0,0,0,215,19.8c0-.49-.22-.74-.66-.74a2.26,2.26,0,0,0-1.5.63,6.33,6.33,0,0,0-1.3,1.5,9.63,9.63,0,0,0-.94,1.87A5.08,5.08,0,0,0,210.25,24.74Z"/><path class="cls-14" d="M237.49,27.38a12.71,12.71,0,0,1-1.79,2.27,10.68,10.68,0,0,1-2,1.54,4.79,4.79,0,0,1-2.51.69,4.29,4.29,0,0,1-2.6-.78,3.26,3.26,0,0,1-1.24-2.33,9,9,0,0,1-1.58,1.57,9.28,9.28,0,0,1-1.64,1.07,4.31,4.31,0,0,1-2,.47,3.76,3.76,0,0,1-1.41-.27,3.51,3.51,0,0,1-1.17-.79,3.73,3.73,0,0,1-.79-1.21,3.81,3.81,0,0,1-.29-1.54,10.86,10.86,0,0,1,.75-3.92,13.67,13.67,0,0,1,2-3.49,10.33,10.33,0,0,1,2.71-2.51,5.51,5.51,0,0,1,3-.95,5.68,5.68,0,0,1,1.87.27,5.11,5.11,0,0,1,1.24.61,3.74,3.74,0,0,1,.88.84,4.41,4.41,0,0,1,.86.09,3.08,3.08,0,0,1,.84.29,2.1,2.1,0,0,1,.65.53,1.28,1.28,0,0,1,.25.81,4.53,4.53,0,0,1-.33,1.32c-.22.61-.46,1.29-.73,2s-.51,1.51-.73,2.31a7.94,7.94,0,0,0-.33,2.1,1.05,1.05,0,0,0,.27.74,1,1,0,0,0,.75.29,2.59,2.59,0,0,0,1.45-.48,5.79,5.79,0,0,0,1.26-1.1,7.58,7.58,0,0,0,1.21-1.57.88.88,0,0,1,.19-.26.89.89,0,0,1,.22-.16.58.58,0,0,1,.33-.09.76.76,0,0,1,.53.22.68.68,0,0,1,.23.51.59.59,0,0,1,0,.27l-.13.28Q237.57,27.2,237.49,27.38ZM229,20.9a1.59,1.59,0,0,0-.39-1.19,1.24,1.24,0,0,0-.93-.39,2.4,2.4,0,0,0-1.65.84,9.09,9.09,0,0,0-1.52,2.07,14.75,14.75,0,0,0-1.12,2.66,8.87,8.87,0,0,0-.44,2.56c0,1.1.36,1.65,1.07,1.65a2.35,2.35,0,0,0,1.52-.88,12.06,12.06,0,0,0,1.63-2.16,17.11,17.11,0,0,0,1.3-2.69A7.28,7.28,0,0,0,229,20.9Z"/><path class="cls-15" d="M256.25,31.88a4.94,4.94,0,0,1-3.37-1.11,3.69,3.69,0,0,1-1.29-2.92,8.1,8.1,0,0,1,.3-2.27,16.77,16.77,0,0,1,.64-1.86l.64-1.58a3.78,3.78,0,0,0,.29-1.35.7.7,0,0,0-.18-.54.68.68,0,0,0-.48-.16c-.41,0-1,.38-1.68,1.15a11.27,11.27,0,0,0-2,3.43A21.09,21.09,0,0,0,248,28.24a13.15,13.15,0,0,0-.37,2.91c0,.32-.07.52-.2.6a1.09,1.09,0,0,1-.6.13,5,5,0,0,1-2.46-.56,1.67,1.67,0,0,1-1-1.45,10,10,0,0,1,.33-2.44c.22-.86.47-1.71.75-2.54s.54-1.6.76-2.31a6.5,6.5,0,0,0,.33-1.72c0-.51-.22-.77-.66-.77a2.48,2.48,0,0,0-1.52.73A7.17,7.17,0,0,0,241.72,23a15.18,15.18,0,0,0-1.26,3.48,19.76,19.76,0,0,0-.51,4.71c0,.32-.07.52-.2.6a1.13,1.13,0,0,1-.61.13,5,5,0,0,1-2.45-.56,1.67,1.67,0,0,1-1-1.45,16.12,16.12,0,0,1,.35-3.33c.23-1.15.5-2.25.82-3.3s.64-2,1-2.89.61-1.58.83-2.09a1,1,0,0,1,1-.7,2.58,2.58,0,0,1,1.07.33,4.57,4.57,0,0,1,1.5,1.65,12,12,0,0,1,1.61-1.17,13,13,0,0,1,1.63-.81,4.91,4.91,0,0,1,1.85-.36,2.41,2.41,0,0,1,1.9.77,5.44,5.44,0,0,1,1.1,1.94,19.2,19.2,0,0,1,1.76-1.36,10.92,10.92,0,0,1,1.74-.93,5,5,0,0,1,2-.42,2.37,2.37,0,0,1,1,.23,3.27,3.27,0,0,1,.89.63,2.8,2.8,0,0,1,.64.86,2.06,2.06,0,0,1,.24.95,5,5,0,0,1-.34,1.68c-.24.64-.5,1.32-.79,2s-.56,1.46-.79,2.21a7.68,7.68,0,0,0-.35,2.24,1.57,1.57,0,0,0,.31,1,1.05,1.05,0,0,0,.86.39,1.1,1.1,0,0,0,.59-.18c.2-.13.39-.26.59-.41a4,4,0,0,0,.62-.62,3.61,3.61,0,0,1,.33-.35.63.63,0,0,1,.44-.16.86.86,0,0,1,.8.8.9.9,0,0,1-.22.52,1.75,1.75,0,0,0-.18.29,7.38,7.38,0,0,1-1.21,1.28,6.61,6.61,0,0,1-1.35.9A3.66,3.66,0,0,1,256.25,31.88Z"/><path class="cls-16" d="M279.94,30.6a6,6,0,0,0,2.49-.53,7.89,7.89,0,0,0,2.13-1.41,10.17,10.17,0,0,0,1.63-2,8.66,8.66,0,0,0,1-2.18,16.81,16.81,0,0,1-2.12.83,6.75,6.75,0,0,1-1.87.31,3.18,3.18,0,0,1-2-.53,1.67,1.67,0,0,1-.64-1.34,2.69,2.69,0,0,1,.69-1.72A7.22,7.22,0,0,1,283,20.58a10,10,0,0,1,2.19-1,6.8,6.8,0,0,1,2.13-.39,5.86,5.86,0,0,1,1.61.22,3.09,3.09,0,0,1,1.24.7,7.4,7.4,0,0,0,1-1.54,3.27,3.27,0,0,0,.37-1.43,1,1,0,0,0-.28-.78.93.93,0,0,0-.71-.28,1.88,1.88,0,0,0-.7.15,7.32,7.32,0,0,0-.69.33l-.59.33a1,1,0,0,1-.36.14.78.78,0,0,1-.44-.11c-.13-.07-.19-.23-.19-.47s.17-.42.52-.75a7.25,7.25,0,0,1,1.28-1,11,11,0,0,1,1.68-.85,4.75,4.75,0,0,1,1.73-.36,2.42,2.42,0,0,1,1.66.6,2.13,2.13,0,0,1,.68,1.67,5.59,5.59,0,0,1-1.15,3.17,16.07,16.07,0,0,1-2.84,3,2.16,2.16,0,0,1,0,.35v.34a6.63,6.63,0,0,1-1,3.41,12.43,12.43,0,0,1-2.78,3.2,15.2,15.2,0,0,1-4,2.38,12.33,12.33,0,0,1-4.77.94,12.89,12.89,0,0,1-3.07-.37A8.48,8.48,0,0,1,272.67,31a6.62,6.62,0,0,1-2-2.07,5.55,5.55,0,0,1-.79-3,7.19,7.19,0,0,1,.33-2.23,8.22,8.22,0,0,1,.86-1.87,7.87,7.87,0,0,1,1.23-1.52,14.8,14.8,0,0,1,1.43-1.23,16.25,16.25,0,0,1,3.88-2.05,6.52,6.52,0,0,1-1.32-1.14,6.25,6.25,0,0,1-.93-1.33,3.71,3.71,0,0,1-.42-1.82,11.67,11.67,0,0,1-3.69-1.35,2.56,2.56,0,0,1-1.44-2.2,2.49,2.49,0,0,1,.47-1.39,6.42,6.42,0,0,1,1.14-1.25,7.31,7.31,0,0,1,1.35-.89,2.75,2.75,0,0,1,1.1-.35.3.3,0,0,1,.26.11.38.38,0,0,1,.07.22,1.44,1.44,0,0,1-.33.64,1.88,1.88,0,0,0-.33,1.12,2.79,2.79,0,0,0,.52,1.63,4.8,4.8,0,0,0,1.42,1.33,7.76,7.76,0,0,1,1.67-2.12,12.44,12.44,0,0,1,2.42-1.72A12.78,12.78,0,0,1,282.4,5.4a11.17,11.17,0,0,1,2.93-.4,6.89,6.89,0,0,1,1.85.24,5.41,5.41,0,0,1,1.5.66,3.38,3.38,0,0,1,1,1,2.59,2.59,0,0,1,.36,1.34,2.92,2.92,0,0,1-.79,1.94,6.73,6.73,0,0,1-2.12,1.59A12.76,12.76,0,0,1,284,12.86a18.65,18.65,0,0,1-3.81.38h-.66a5.33,5.33,0,0,0,.13,1.25,5,5,0,0,0,.31.95,3.69,3.69,0,0,0,.44.84c.19,0,.43-.06.69-.11l.79-.07c.31,0,.66,0,1.05,0,1.44,0,2.16.43,2.16,1.28a1.59,1.59,0,0,1-.64,1.12,2.49,2.49,0,0,1-1.71.57,7.55,7.55,0,0,1-1.21-.09,5.25,5.25,0,0,1-.95-.24,3.91,3.91,0,0,1-.8-.37,11.33,11.33,0,0,0-2.42,1.91,10.47,10.47,0,0,0-1.67,2.34,6.76,6.76,0,0,0-.75,3.26,4.54,4.54,0,0,0,1.34,3.53A5.16,5.16,0,0,0,279.94,30.6Zm5.28-24a4.26,4.26,0,0,0-1.69.37A6,6,0,0,0,282,8a7.38,7.38,0,0,0-1.32,1.54,6.69,6.69,0,0,0-.88,2,15.51,15.51,0,0,0,2.91-.26,9.83,9.83,0,0,0,2.33-.73,4.58,4.58,0,0,0,1.54-1.14,2.26,2.26,0,0,0,.54-1.46,1.07,1.07,0,0,0-.54-.94A2.45,2.45,0,0,0,285.22,6.57Zm-.92,17.15a4.13,4.13,0,0,0,1.5-.32,8.17,8.17,0,0,0,1.65-.86,2.05,2.05,0,0,0-.49-1.42,1.51,1.51,0,0,0-1-.37,1.61,1.61,0,0,0-.75.22,4.22,4.22,0,0,0-.8.55,3.14,3.14,0,0,0-.64.73,1.39,1.39,0,0,0-.26.77C283.46,23.48,283.74,23.72,284.3,23.72Z"/><path class="cls-17" d="M338.62,29.43a2.56,2.56,0,0,0,1.44-.48,6.09,6.09,0,0,0,1.27-1.1,7.55,7.55,0,0,0,1.2-1.57.88.88,0,0,1,.19-.26,1.14,1.14,0,0,1,.22-.16.6.6,0,0,1,.33-.09.76.76,0,0,1,.53.22.65.65,0,0,1,.24.51.6.6,0,0,1-.06.27l-.13.28c-.05.1-.09.21-.14.33a13.23,13.23,0,0,1-1.8,2.27,10.59,10.59,0,0,1-2,1.54,4.81,4.81,0,0,1-2.51.69,5.2,5.2,0,0,1-1.89-.36,5.62,5.62,0,0,1-1.67-1,5.43,5.43,0,0,1-1.19-1.59,4.69,4.69,0,0,1-.45-2.07,16.33,16.33,0,0,1,.34-3.11c.24-1.18.55-2.39.94-3.65s.82-2.53,1.3-3.81,1-2.49,1.44-3.64c-.48.63-1,1.42-1.61,2.36s-1.17,1.95-1.77,3-1.19,2.2-1.78,3.33-1.12,2.21-1.61,3.23-.92,1.9-1.3,2.67-.65,1.35-.82,1.74a4.09,4.09,0,0,1-.74,1.1,7.09,7.09,0,0,1-1,.91,6.77,6.77,0,0,1-1,.64,1.72,1.72,0,0,1-.68.24,1.56,1.56,0,0,1-.9-.33,3.78,3.78,0,0,1-.86-.91,5.43,5.43,0,0,1-.66-1.32,4.76,4.76,0,0,1-.25-1.58c0-.36,0-.87.07-1.53s.11-1.41.18-2.24.16-1.7.26-2.62.18-1.81.25-2.69.14-1.7.19-2.47.07-1.41.07-1.92l-1.12,3.55q-.6,1.93-1.35,3.9c-.5,1.31-1.05,2.57-1.65,3.79a20.72,20.72,0,0,1-1.94,3.24A10.31,10.31,0,0,1,314,31a4.31,4.31,0,0,1-2.57.86,8.26,8.26,0,0,1-3.22-.64,11.06,11.06,0,0,1-2.73-1.59,8.52,8.52,0,0,1-1.88-2,3.84,3.84,0,0,1-.7-2.05,3.32,3.32,0,0,1,.7-2,6.62,6.62,0,0,1,1.7-1.59,9.33,9.33,0,0,1,2.1-1,5.89,5.89,0,0,1,1.91-.39c.61,0,.91.19.91.55a.8.8,0,0,1-.16.53,3.91,3.91,0,0,1-.57.53,6.12,6.12,0,0,0-.69.64,7.52,7.52,0,0,0-.77,1,4.94,4.94,0,0,0-.61,1.19,4,4,0,0,0-.24,1.39,2.57,2.57,0,0,0,.76,1.92,2.46,2.46,0,0,0,1.81.75A3.59,3.59,0,0,0,312,27.78a18.38,18.38,0,0,0,2.54-3A37.18,37.18,0,0,0,317,20.6q1.21-2.31,2.16-4.54a35.31,35.31,0,0,0,1.52-4.16,11.44,11.44,0,0,0,.57-3.05,1.67,1.67,0,0,0-.44-1.16,1.86,1.86,0,0,0-1.46-.49,5,5,0,0,0-2,.57,9.49,9.49,0,0,0-2.27,1.52,9.77,9.77,0,0,0-1.85,2.19,4.85,4.85,0,0,0-.76,2.57,3.31,3.31,0,0,0,.29,1.46,5.49,5.49,0,0,0,.62,1.06,7.5,7.5,0,0,0,.62.74.78.78,0,0,1,.3.47c0,.49-.26.73-.77.73a4.9,4.9,0,0,1-1.74-.38,8.23,8.23,0,0,1-1.93-1.08,6.67,6.67,0,0,1-1.53-1.61,3.48,3.48,0,0,1-.63-2,5.22,5.22,0,0,1,1.19-3.22,11.9,11.9,0,0,1,3-2.69,16.5,16.5,0,0,1,4-1.83A14.15,14.15,0,0,1,320.08,5a6.41,6.41,0,0,1,2,.38,7.55,7.55,0,0,1,2.11,1.16,6.39,6.39,0,0,1,1.66,2,5.48,5.48,0,0,1,.68,2.76c0,1.2,0,2.56-.15,4.09s-.2,3-.31,4.46-.21,2.76-.31,3.92-.15,2-.15,2.44c.17-.29.44-.79.81-1.48s.8-1.54,1.3-2.51,1.07-2.05,1.7-3.23,1.31-2.37,2-3.6,1.44-2.46,2.21-3.68S335.21,9.3,336,8.22a5.85,5.85,0,0,1,1.5-1.48,7.77,7.77,0,0,1,1.77-.9,9.79,9.79,0,0,1,1.94-.46,17,17,0,0,1,2-.12c.71,0,1.06.17,1.06.51a.9.9,0,0,1-.2.48,8.82,8.82,0,0,1-.71.84,9.89,9.89,0,0,0-1,1.68c-.43.83-.89,1.83-1.39,3s-1,2.42-1.54,3.79-1,2.74-1.45,4.12a41,41,0,0,0-1.06,4,16.51,16.51,0,0,0-.4,3.35,2.49,2.49,0,0,0,.58,1.85A2.08,2.08,0,0,0,338.62,29.43Z"/><path class="cls-18" d="M360,27.38A6.21,6.21,0,0,1,358.43,29a8.17,8.17,0,0,1-2,1.1,7.42,7.42,0,0,1-2.8.48,10.76,10.76,0,0,1-1.43-.11,7,7,0,0,1-1.94,1.08,6.65,6.65,0,0,1-2.23.38,6,6,0,0,1-2.18-.4,5.8,5.8,0,0,1-1.83-1.1,5.08,5.08,0,0,1-1.25-1.65,4.63,4.63,0,0,1-.46-2,10.11,10.11,0,0,1,.79-4.09,9.6,9.6,0,0,1,2-3,8.55,8.55,0,0,1,2.74-1.83,7.53,7.53,0,0,1,2.93-.62,6.19,6.19,0,0,1,2.13.36,4.84,4.84,0,0,1,1.7,1.08,5.25,5.25,0,0,1,1.13,1.72,5.69,5.69,0,0,1,.43,2.26,8.81,8.81,0,0,1-.61,3.07,11.81,11.81,0,0,1-1.66,3l.27.05.31,0a3.72,3.72,0,0,0,1.72-.39,6.73,6.73,0,0,0,1.36-.86,9.68,9.68,0,0,0,1.24-1.24A.88.88,0,0,1,359,26a.89.89,0,0,1,.22-.16.58.58,0,0,1,.33-.09.76.76,0,0,1,.53.22.64.64,0,0,1,.23.51.59.59,0,0,1-.05.27l-.13.28A2.52,2.52,0,0,0,360,27.38Zm-13.37.25a3.24,3.24,0,0,0,.45,1.8,1.49,1.49,0,0,0,1.31.7,1.84,1.84,0,0,0,1.13-.44,1.1,1.1,0,0,1-.62-.88,1.16,1.16,0,0,1,.2-.63,2.48,2.48,0,0,1,.49-.58,3.33,3.33,0,0,1,.61-.42,1.16,1.16,0,0,1,.53-.17,1.53,1.53,0,0,1,.4.07,15.36,15.36,0,0,0,.84-2.94,14.83,14.83,0,0,0,.3-2.77,3,3,0,0,0-.41-1.77,1.23,1.23,0,0,0-1-.54,2.15,2.15,0,0,0-1.36.65,6.51,6.51,0,0,0-1.37,1.79,11.87,11.87,0,0,0-1.06,2.71A13.13,13.13,0,0,0,346.64,27.63Z"/><path class="cls-19" d="M368.1,28.15a1.29,1.29,0,0,0,.33,1,1.18,1.18,0,0,0,.88.33,2.53,2.53,0,0,0,1.44-.48,6.09,6.09,0,0,0,1.27-1.1,7.94,7.94,0,0,0,1.21-1.57.68.68,0,0,1,.18-.26,1.14,1.14,0,0,1,.22-.16.63.63,0,0,1,.33-.09.76.76,0,0,1,.53.22.65.65,0,0,1,.24.51.6.6,0,0,1-.06.27,2.28,2.28,0,0,1-.13.28l-.14.33a13.23,13.23,0,0,1-1.8,2.27,10.59,10.59,0,0,1-2,1.54,4.81,4.81,0,0,1-2.51.69,5.72,5.72,0,0,1-1.91-.29,5,5,0,0,1-1.46-.79,3.35,3.35,0,0,1-1-1.15,3.16,3.16,0,0,1-.33-1.43,7.06,7.06,0,0,1,.36-2.27A19,19,0,0,1,364.6,24c.28-.59.54-1.11.79-1.56a2.51,2.51,0,0,0,.36-1.12.46.46,0,0,0-.34-.43,6,6,0,0,0-.75-.26,9.36,9.36,0,0,0-1.1-.18,36.63,36.63,0,0,1-2,4.37A28.06,28.06,0,0,1,360,27.38a3.05,3.05,0,0,1-.27.33.7.7,0,0,1-.53.22.72.72,0,0,1-.53-.24.74.74,0,0,1-.24-.53.87.87,0,0,1,.16-.5,2.76,2.76,0,0,0,.24-.38c.34-.49.83-1.26,1.45-2.33A20.61,20.61,0,0,0,362,19.76a2.18,2.18,0,0,1-.62-.66,4.11,4.11,0,0,1-.41-.84,3.67,3.67,0,0,1-.18-1.21,2.79,2.79,0,0,1,.2-1,3,3,0,0,1,.53-.86,2.93,2.93,0,0,1,.7-.59,1.3,1.3,0,0,1,.69-.22,1.73,1.73,0,0,1,.77.2,3.76,3.76,0,0,1,.74.48,2.69,2.69,0,0,1,.55.62,1.23,1.23,0,0,1,.22.6,2.66,2.66,0,0,1-.24,1.21,2.07,2.07,0,0,0-.24.92.61.61,0,0,0,.44.58,2.71,2.71,0,0,0,1.1.19,6,6,0,0,0,1-.08,6.1,6.1,0,0,0,.75-.16l.63-.17a3,3,0,0,1,.62-.07,1.34,1.34,0,0,1,1.08.51,1.93,1.93,0,0,1,.42,1.25,3.5,3.5,0,0,1-.42,1.48c-.28.58-.59,1.21-.94,1.89a23,23,0,0,0-.93,2.14A6.32,6.32,0,0,0,368.1,28.15Z"/><path class="cls-20" d="M380.7,29.5a4.47,4.47,0,0,0,1.48-.22,4.68,4.68,0,0,0,1.1-.51,6.77,6.77,0,0,0,.79-.6l.51-.5.26-.25.25-.17a.58.58,0,0,1,.3-.09.75.75,0,0,1,.55.22.71.71,0,0,1,.21.51.49.49,0,0,1-.09.28,1.75,1.75,0,0,0-.16.27,2.7,2.7,0,0,0-.22.33A8.49,8.49,0,0,1,384,30.34a10.12,10.12,0,0,1-2,1.07,7,7,0,0,1-2.65.47,7.83,7.83,0,0,1-2.57-.4,6.12,6.12,0,0,1-2-1.12,5.1,5.1,0,0,1-1.32-1.7,4.88,4.88,0,0,1-.48-2.16,9.3,9.3,0,0,1,.77-3.81,10.49,10.49,0,0,1,1.94-3,8.5,8.5,0,0,1,2.55-1.88,6,6,0,0,1,2.58-.66,3.82,3.82,0,0,1,1.58.33,4.5,4.5,0,0,1,1.28.86,4,4,0,0,1,.86,1.22A3.45,3.45,0,0,1,384.8,21a5.61,5.61,0,0,1-.29,1.59,5.46,5.46,0,0,1-1,1.78,5.81,5.81,0,0,1-1.84,1.45,6.13,6.13,0,0,1-2.87.6,3.13,3.13,0,0,1-.84-.11,4.11,4.11,0,0,1-.55-.11,3,3,0,0,0,1,2.46A3.51,3.51,0,0,0,380.7,29.5Zm-3.08-4.76a3.45,3.45,0,0,0,1.87-.55A6.08,6.08,0,0,0,381,22.85a7,7,0,0,0,1-1.62,3.82,3.82,0,0,0,.36-1.43c0-.49-.22-.74-.66-.74a2.3,2.3,0,0,0-1.5.63,6.57,6.57,0,0,0-1.3,1.5,9.06,9.06,0,0,0-.93,1.87A4.89,4.89,0,0,0,377.62,24.74Z"/><path class="cls-21" d="M32,31.88a7.41,7.41,0,0,1-3.46-.73,4.07,4.07,0,0,1-2-2.27,8.06,8.06,0,0,1-.44-2.14c-.07-.85-.11-1.85-.11-3a4.37,4.37,0,0,0-.22-1.54,3.14,3.14,0,0,0-.51-.92,19.08,19.08,0,0,1-2,.11h-.73a32.15,32.15,0,0,1-1.61,5,12.23,12.23,0,0,1-2,3.24,6.43,6.43,0,0,1-2.36,1.76,7.23,7.23,0,0,1-2.82.53,9,9,0,0,1-3.52-.67,10.51,10.51,0,0,1-2.76-1.67,7.93,7.93,0,0,1-1.8-2.14A4.38,4.38,0,0,1,5,25.29a3.44,3.44,0,0,1,.7-2.09,6.77,6.77,0,0,1,1.7-1.63,9.42,9.42,0,0,1,2.1-1.06,5.84,5.84,0,0,1,1.91-.38,1.12,1.12,0,0,1,.66.18.52.52,0,0,1,.26.4.58.58,0,0,1-.13.42,5.34,5.34,0,0,1-.53.42,6.38,6.38,0,0,0-.75.74,6,6,0,0,0-.77,1.06,6.61,6.61,0,0,0-.59,1.26A4,4,0,0,0,9.32,26a3.68,3.68,0,0,0,.24,1.32,3.75,3.75,0,0,0,.66,1.11,3.11,3.11,0,0,0,1,.79,2.84,2.84,0,0,0,1.31.3c1.13,0,2.17-.77,3.14-2.31a27.33,27.33,0,0,0,2.72-7.44c.32-1.34.61-2.49.87-3.46s.5-1.8.75-2.51a11.15,11.15,0,0,1,.78-1.81,8.09,8.09,0,0,1,1-1.41A4.47,4.47,0,0,1,23,9.74a11.06,11.06,0,0,1,1.39-.58,8.71,8.71,0,0,1,1.26-.35,5.66,5.66,0,0,1,.75-.11c.47,0,.7.17.7.51a.6.6,0,0,1-.2.33c-.14.15-.3.36-.5.62s-.42.6-.68,1A8.28,8.28,0,0,0,25,12.58c-.17.44-.33.84-.48,1.21s-.29.79-.43,1.26-.32,1-.5,1.69-.38,1.46-.6,2.43a10.15,10.15,0,0,0,3.35-.62A9.66,9.66,0,0,0,29.1,17,7.55,7.55,0,0,0,31,14.67a5.8,5.8,0,0,0,.72-2.82,4.2,4.2,0,0,0-1.56-3.46c-1-.84-2.73-1.27-5.07-1.27a17.5,17.5,0,0,0-4.56.54,10.88,10.88,0,0,0-3.37,1.46,6.69,6.69,0,0,0-2.09,2.16,5.08,5.08,0,0,0-.71,2.62,3,3,0,0,0,.29,1.41,4.46,4.46,0,0,0,.62,1,4.51,4.51,0,0,0,.62.62c.2.16.3.3.3.43,0,.46-.26.69-.77.69a5.71,5.71,0,0,1-1.74-.33,7.85,7.85,0,0,1-1.91-.93,6.11,6.11,0,0,1-1.53-1.47,3.17,3.17,0,0,1-.65-2A4.87,4.87,0,0,1,11,10.07a11.62,11.62,0,0,1,3.52-2.63,21.56,21.56,0,0,1,5-1.78A24.93,24.93,0,0,1,25.18,5a20,20,0,0,1,4.95.55A12.23,12.23,0,0,1,33.73,7a6.61,6.61,0,0,1,2.2,2.24A5.43,5.43,0,0,1,36.68,12,6.1,6.1,0,0,1,36,14.87a9,9,0,0,1-1.83,2.44,12.69,12.69,0,0,1-2.69,1.94,17.14,17.14,0,0,1-3.22,1.35,3.3,3.3,0,0,1,1,1,4.84,4.84,0,0,1,.68,2.11,14.44,14.44,0,0,0,1.14,4.37,2.24,2.24,0,0,0,2.09,1.34A2.56,2.56,0,0,0,34.61,29a6.09,6.09,0,0,0,1.27-1.1,7.91,7.91,0,0,0,1.2-1.57.88.88,0,0,1,.19-.26,1.14,1.14,0,0,1,.22-.16.58.58,0,0,1,.33-.09.76.76,0,0,1,.53.22.65.65,0,0,1,.24.51.6.6,0,0,1-.06.27l-.13.28a2.52,2.52,0,0,0-.14.33,13.23,13.23,0,0,1-1.8,2.27,10.68,10.68,0,0,1-2,1.54A4.75,4.75,0,0,1,32,31.88Z"/><path class="cls-21" d="M54.55,27.38A6,6,0,0,1,53,29a8.17,8.17,0,0,1-2,1.1,7.42,7.42,0,0,1-2.8.48,10.76,10.76,0,0,1-1.43-.11,7,7,0,0,1-1.94,1.08,6.65,6.65,0,0,1-2.23.38,5.94,5.94,0,0,1-2.18-.4,5.8,5.8,0,0,1-1.83-1.1,5.08,5.08,0,0,1-1.25-1.65,4.63,4.63,0,0,1-.46-2,10.11,10.11,0,0,1,.79-4.09,9.58,9.58,0,0,1,2-3,8.59,8.59,0,0,1,2.75-1.83,7.53,7.53,0,0,1,2.93-.62,6.19,6.19,0,0,1,2.13.36,4.84,4.84,0,0,1,1.7,1.08,5.41,5.41,0,0,1,1.13,1.72,5.87,5.87,0,0,1,.43,2.26,8.81,8.81,0,0,1-.61,3.07,11.55,11.55,0,0,1-1.67,3l.28.05.31,0a3.72,3.72,0,0,0,1.72-.39,7,7,0,0,0,1.36-.86,9.68,9.68,0,0,0,1.24-1.24.88.88,0,0,1,.19-.26.89.89,0,0,1,.22-.16.57.57,0,0,1,.32-.09.76.76,0,0,1,.54.22.68.68,0,0,1,.23.51.59.59,0,0,1-.05.27l-.13.28Q54.63,27.2,54.55,27.38Zm-13.36.25a3.24,3.24,0,0,0,.45,1.8,1.49,1.49,0,0,0,1.3.7,1.84,1.84,0,0,0,1.14-.44,1.1,1.1,0,0,1-.62-.88,1.16,1.16,0,0,1,.2-.63,2.48,2.48,0,0,1,.49-.58,3.33,3.33,0,0,1,.61-.42,1.16,1.16,0,0,1,.53-.17,1.61,1.61,0,0,1,.4.07,15.36,15.36,0,0,0,.84-2.94,14.83,14.83,0,0,0,.3-2.77,3,3,0,0,0-.41-1.77,1.23,1.23,0,0,0-1-.54,2.15,2.15,0,0,0-1.36.65,6.51,6.51,0,0,0-1.37,1.79,11.87,11.87,0,0,0-1.06,2.71A13.13,13.13,0,0,0,41.19,27.63Z"/><path class="cls-21" d="M69.53,27.38a9.12,9.12,0,0,1-2.38,2.38A13.4,13.4,0,0,1,64,31.41a13.93,13.93,0,0,1-4.78.73,6.43,6.43,0,0,1-2.57-.53,8,8,0,0,1-2.1-1.34,6.71,6.71,0,0,1-1.43-1.76,3.68,3.68,0,0,1-.53-1.75,1.84,1.84,0,0,1,.55-1.36,5.61,5.61,0,0,1,1.21-.92,8.61,8.61,0,0,1,1.76-.65c.14-.25.34-.55.58-.92s.45-.71.77-1.19.68-1,1.1-1.7a12.63,12.63,0,0,1,2.2-2.7,2.69,2.69,0,0,1,1.61-.75,1.31,1.31,0,0,1,.6.17,4,4,0,0,1,.59.38,3,3,0,0,1,.44.44.67.67,0,0,1,.16.37,1.16,1.16,0,0,1-.14.46l-.31.58a6.62,6.62,0,0,0-.3.66,2.18,2.18,0,0,0-.13.72,7.57,7.57,0,0,0,.22,1.9c.15.54.32,1,.5,1.52s.35.94.49,1.39a5.58,5.58,0,0,1,.09,2.75,4.09,4.09,0,0,1-.31.86,3.57,3.57,0,0,1-.4.7,7.24,7.24,0,0,0,1.92-.83,10.32,10.32,0,0,0,1.45-1,10.25,10.25,0,0,0,1.17-1.32,1,1,0,0,1,.18-.26,1.58,1.58,0,0,1,.22-.16.63.63,0,0,1,.33-.09.76.76,0,0,1,.54.22.68.68,0,0,1,.23.51.76.76,0,0,1,0,.27l-.13.28Q69.6,27.2,69.53,27.38ZM59.21,21.74c-.52.78-1,1.49-1.36,2.12s-.65,1.09-.93,1.58a3,3,0,0,0-.42.91,13.09,13.09,0,0,0,.09,1.56,5.61,5.61,0,0,0,.31,1.34,2.61,2.61,0,0,0,.55.93,1.12,1.12,0,0,0,.84.35,1.75,1.75,0,0,0,1.45-.92,3.85,3.85,0,0,0,.6-2.16A6.4,6.4,0,0,0,60.16,26c-.12-.52-.25-1-.39-1.52s-.26-1-.38-1.47A5.29,5.29,0,0,1,59.21,21.74Z"/><path class="cls-21" d="M72.54,28a1.51,1.51,0,0,0,.31,1,1,1,0,0,0,.86.39A2.59,2.59,0,0,0,75.16,29a6.3,6.3,0,0,0,1.26-1.1,7.94,7.94,0,0,0,1.21-1.57.68.68,0,0,1,.18-.26,1.14,1.14,0,0,1,.22-.16.63.63,0,0,1,.33-.09.74.74,0,0,1,.53.22.65.65,0,0,1,.24.51.6.6,0,0,1-.06.27c0,.09-.08.18-.12.28s-.1.21-.15.33A13.23,13.23,0,0,1,77,29.65a10.59,10.59,0,0,1-2,1.54,4.81,4.81,0,0,1-2.51.69,5,5,0,0,1-3.37-1.11,3.71,3.71,0,0,1-1.28-2.92,10.58,10.58,0,0,1,.33-2.38c.22-.92.47-1.86.77-2.82s.6-1.85.93-2.71.61-1.54.83-2.05a1.35,1.35,0,0,1,.4-.49.87.87,0,0,1,.58-.2,2.09,2.09,0,0,1,.92.25,6.07,6.07,0,0,1,1,.59,4,4,0,0,1,.73.68,1,1,0,0,1,.3.56,5.67,5.67,0,0,1-.33,1.82l-.72,2.07c-.25.73-.48,1.5-.69,2.32A10.24,10.24,0,0,0,72.54,28Zm5.27-17.62a4.27,4.27,0,0,1-.9,2.62,3.57,3.57,0,0,1-1,.84,2.15,2.15,0,0,1-1.12.31,2,2,0,0,1-1.39-.55,2,2,0,0,1-.58-1.54,3.71,3.71,0,0,1,.25-1.35,4.49,4.49,0,0,1,.68-1.19,3.36,3.36,0,0,1,1-.84,2.33,2.33,0,0,1,1.17-.31A1.76,1.76,0,0,1,77.28,9,2,2,0,0,1,77.81,10.42Z"/><path class="cls-21" d="M91.87,27.38a9.19,9.19,0,0,1-2,2.27,11.7,11.7,0,0,1-2.55,1.54,8.63,8.63,0,0,1-3.6.69,7.83,7.83,0,0,1-2.57-.4,6.12,6.12,0,0,1-2-1.12,5.1,5.1,0,0,1-1.32-1.7,4.88,4.88,0,0,1-.48-2.16,9.3,9.3,0,0,1,.77-3.81,10.49,10.49,0,0,1,1.94-3,8.62,8.62,0,0,1,2.55-1.88,6,6,0,0,1,2.58-.66,3.82,3.82,0,0,1,1.58.33,4.36,4.36,0,0,1,1.28.86,3.86,3.86,0,0,1,.86,1.22A3.45,3.45,0,0,1,89.2,21a5.61,5.61,0,0,1-.29,1.59,5.46,5.46,0,0,1-1,1.78,5.65,5.65,0,0,1-1.83,1.45,6.2,6.2,0,0,1-2.88.6,3.13,3.13,0,0,1-.84-.11,4.11,4.11,0,0,1-.55-.11,3.3,3.3,0,0,0,1,2.53,3.22,3.22,0,0,0,2.27.88,5.23,5.23,0,0,0,2.35-.53A9.22,9.22,0,0,0,89.2,28a7.07,7.07,0,0,0,1.5-1.68.88.88,0,0,1,.19-.26.89.89,0,0,1,.22-.16.58.58,0,0,1,.33-.09A.76.76,0,0,1,92,26a.64.64,0,0,1,.23.51.59.59,0,0,1,0,.27l-.13.28Q91.95,27.2,91.87,27.38ZM82,24.74a3.45,3.45,0,0,0,1.87-.55,5.91,5.91,0,0,0,1.52-1.34,7,7,0,0,0,1-1.62,3.82,3.82,0,0,0,.36-1.43c0-.49-.22-.74-.66-.74a2.3,2.3,0,0,0-1.5.63,6.57,6.57,0,0,0-1.3,1.5,9.06,9.06,0,0,0-.93,1.87A4.89,4.89,0,0,0,82,24.74Z"/><path class="cls-21" d="M93.49,7.86A2,2,0,0,1,94,6.46a1.88,1.88,0,0,1,1.43-.54,1.9,1.9,0,0,1,1.46.51,2.06,2.06,0,0,1,.48,1.46,4.07,4.07,0,0,1-.53,2,8.57,8.57,0,0,1-1.25,1.74,9.1,9.1,0,0,1-1.39,1.25,2.12,2.12,0,0,1-.93.47c-.37,0-.55-.15-.55-.47a1,1,0,0,1,.18-.53c.12-.19.26-.41.4-.66a6.58,6.58,0,0,0,.41-.88,3.51,3.51,0,0,0,.18-1.19,1.57,1.57,0,0,0-.2-.83A1.57,1.57,0,0,1,93.49,7.86Z"/><path class="cls-21" d="M102.6,32.14a6.38,6.38,0,0,1-2.56-.53,7.86,7.86,0,0,1-2.1-1.34,6.71,6.71,0,0,1-1.43-1.76A3.57,3.57,0,0,1,96,26.76a1.84,1.84,0,0,1,.55-1.36,5.32,5.32,0,0,1,1.2-.92,8.84,8.84,0,0,1,1.76-.65c.15-.25.34-.55.59-.92s.45-.71.77-1.19.68-1,1.1-1.7a12.65,12.65,0,0,1,2.19-2.7,2.72,2.72,0,0,1,1.61-.75,1.31,1.31,0,0,1,.61.17,4.56,4.56,0,0,1,.59.38,2.92,2.92,0,0,1,.43.44.69.69,0,0,1,.17.37,1.05,1.05,0,0,1-.15.46c-.09.18-.2.38-.31.58a4.88,4.88,0,0,0-.29.66,2,2,0,0,0-.13.72,7.14,7.14,0,0,0,.22,1.9c.15.54.31,1,.49,1.52s.35.94.5,1.39a4.81,4.81,0,0,1,.22,1.52,6.2,6.2,0,0,1-.37,2.18,5,5,0,0,1-1.06,1.74A4.71,4.71,0,0,1,105,31.74,6.57,6.57,0,0,1,102.6,32.14Zm0-10.4c-.51.78-1,1.49-1.35,2.12s-.66,1.09-.94,1.58a3,3,0,0,0-.42.91,13.09,13.09,0,0,0,.09,1.56,6.14,6.14,0,0,0,.31,1.34,2.76,2.76,0,0,0,.55.93,1.12,1.12,0,0,0,.85.35,1.72,1.72,0,0,0,1.44-.92,3.78,3.78,0,0,0,.61-2.16,5.92,5.92,0,0,0-.19-1.46c-.12-.52-.25-1-.38-1.52s-.26-1-.39-1.47A5.29,5.29,0,0,1,102.64,21.74Z"/><path class="cls-21" d="M137.11,5a1.7,1.7,0,0,1,1.09.38,1.36,1.36,0,0,1,.48,1.12,1.91,1.91,0,0,1-.24.94,3.27,3.27,0,0,1-.58.75,3.61,3.61,0,0,1-.79.55,3.36,3.36,0,0,1-.84.29,2.23,2.23,0,0,0-.44.82,11.12,11.12,0,0,0-.44,1.71c-.15.73-.32,1.66-.51,2.78s-.43,2.48-.7,4.06a30.46,30.46,0,0,1-1.36,5.44,15.87,15.87,0,0,1-2.19,4.25,10,10,0,0,1-3.12,2.79,8.29,8.29,0,0,1-4.14,1,6.54,6.54,0,0,1-2.94-.66,8.39,8.39,0,0,1-2.29-1.61,7.62,7.62,0,0,1-1.49-2,4.5,4.5,0,0,1-.53-1.92,1.08,1.08,0,0,1,.13-.52.47.47,0,0,1,.42-.22.43.43,0,0,1,.37.15l.22.29a6.4,6.4,0,0,0,.66.86,6.22,6.22,0,0,0,1,.88,5.1,5.1,0,0,0,1.23.7,4,4,0,0,0,1.52.27,5.68,5.68,0,0,0,3-.77,8.35,8.35,0,0,0,2.37-2.1A14.37,14.37,0,0,0,128.74,22a31.64,31.64,0,0,0,1.37-4.06c.39-1.47.75-2.74,1.08-3.83s.63-2,.9-2.73.57-1.58.84-2.19a16.65,16.65,0,0,0-4.39,1.9,11.41,11.41,0,0,0-1.62,1.19,9.35,9.35,0,0,0-1.39,1.54,7.57,7.57,0,0,0-1,1.92,7.29,7.29,0,0,0-.36,2.35,2.84,2.84,0,0,0,.44,1.75,5.16,5.16,0,0,0,.84.92,3.9,3.9,0,0,0,.38.33.42.42,0,0,1,.2.36c0,.32-.24.48-.73.48a4,4,0,0,1-1.57-.4A7,7,0,0,1,122,20.38a6.74,6.74,0,0,1-1.43-1.77,4.68,4.68,0,0,1-.58-2.33,5.2,5.2,0,0,1,.64-2.56,7.83,7.83,0,0,1,1.72-2.13,12.61,12.61,0,0,1,2.49-1.68,27.78,27.78,0,0,1,2.93-1.32,28.68,28.68,0,0,1,3.06-1q1.53-.4,2.85-.66a4.72,4.72,0,0,1,1.72-1.54A4.11,4.11,0,0,1,137.11,5Z"/><path class="cls-21" d="M149.45,27.38a13.3,13.3,0,0,1-2.16,2.27,13,13,0,0,1-2.58,1.54,8.41,8.41,0,0,1-3.5.69,9.59,9.59,0,0,1-2.36-.29,6.53,6.53,0,0,1-2.15-.95,5,5,0,0,1-1.54-1.72,5.34,5.34,0,0,1-.58-2.6,8.44,8.44,0,0,1,.75-3.5,10.35,10.35,0,0,1,1.94-2.91,9.56,9.56,0,0,1,2.66-2,6.28,6.28,0,0,1,2.85-.73,4.61,4.61,0,0,1,1.76.31,4.06,4.06,0,0,1,1.3.82,3.92,3.92,0,0,1,.83,1.16,3,3,0,0,1,.29,1.26,2.63,2.63,0,0,1-.2,1,3.68,3.68,0,0,1-.53.9,3.17,3.17,0,0,1-.72.66,1.37,1.37,0,0,1-.75.25,2,2,0,0,1-1.3-.46,1.34,1.34,0,0,1-.57-1.08,1.27,1.27,0,0,1,.22-.76,3.2,3.2,0,0,1,.5-.54l.51-.44a.6.6,0,0,0,.24-.49.68.68,0,0,0-.31-.53,1.2,1.2,0,0,0-.75-.24,2.43,2.43,0,0,0-1.56.61,5.76,5.76,0,0,0-1.34,1.59,9.82,9.82,0,0,0-1,2.21,8.82,8.82,0,0,0-.37,2.48,3.54,3.54,0,0,0,1,2.82,3.75,3.75,0,0,0,2.58.91A5,5,0,0,0,145,29.1,8.62,8.62,0,0,0,146.74,28a8.23,8.23,0,0,0,1.54-1.68,2,2,0,0,1,.22-.26l.25-.16a.63.63,0,0,1,.33-.09.72.72,0,0,1,.55.22.67.67,0,0,1,.22.51.5.5,0,0,1-.07.27l-.15.28A1.74,1.74,0,0,0,149.45,27.38Z"/><path class="cls-21" d="M155.75,29.5a4.47,4.47,0,0,0,1.48-.22,4.68,4.68,0,0,0,1.1-.51,6,6,0,0,0,.79-.6l.51-.5.26-.25.25-.17a.58.58,0,0,1,.3-.09.74.74,0,0,1,.55.22.72.72,0,0,1,.22.51.5.5,0,0,1-.1.28,1.75,1.75,0,0,0-.16.27c-.07.1-.15.21-.22.33A8.49,8.49,0,0,1,159,30.34a10.12,10.12,0,0,1-2,1.07,7,7,0,0,1-2.65.47,7.83,7.83,0,0,1-2.57-.4,6.12,6.12,0,0,1-2-1.12,5.1,5.1,0,0,1-1.32-1.7A4.88,4.88,0,0,1,148,26.5a9.3,9.3,0,0,1,.77-3.81,10.49,10.49,0,0,1,1.94-3,8.5,8.5,0,0,1,2.55-1.88,6,6,0,0,1,2.58-.66,3.82,3.82,0,0,1,1.58.33,4.5,4.5,0,0,1,1.28.86,4,4,0,0,1,.86,1.22,3.45,3.45,0,0,1,.31,1.43,5.61,5.61,0,0,1-.29,1.59,5.46,5.46,0,0,1-1,1.78,5.88,5.88,0,0,1-1.83,1.45,6.2,6.2,0,0,1-2.88.6,3.13,3.13,0,0,1-.84-.11,4.11,4.11,0,0,1-.55-.11,3,3,0,0,0,1,2.46A3.51,3.51,0,0,0,155.75,29.5Zm-3.08-4.76a3.45,3.45,0,0,0,1.87-.55,5.91,5.91,0,0,0,1.52-1.34,7,7,0,0,0,1-1.62,3.82,3.82,0,0,0,.36-1.43c0-.49-.22-.74-.66-.74a2.3,2.3,0,0,0-1.5.63,6.57,6.57,0,0,0-1.3,1.5,9.06,9.06,0,0,0-.93,1.87A4.89,4.89,0,0,0,152.67,24.74Z"/><path class="cls-21" d="M183.18,32.58a11.44,11.44,0,0,1-3.41-.53,9.25,9.25,0,0,1-3-1.61,8.29,8.29,0,0,1-2.18-2.75,8.74,8.74,0,0,1-.84-4,14.28,14.28,0,0,1,.15-2.06,13.91,13.91,0,0,1,.44-2.05,13.76,13.76,0,0,1-2.93-1,10.45,10.45,0,0,1-2.2-1.43,5.75,5.75,0,0,1-1.39-1.67,3.61,3.61,0,0,1-.48-1.75,4.8,4.8,0,0,1,.94-2.86,10.05,10.05,0,0,1,2.19-2.27A11.58,11.58,0,0,1,173,7.09a5.81,5.81,0,0,1,2.09-.55c.42,0,.63.13.63.4a.48.48,0,0,1-.19.4l-.51.41c-.27.19-.57.43-.9.71a5.51,5.51,0,0,0-.93,1,5.19,5.19,0,0,0-.73,1.43,5.67,5.67,0,0,0-.3,1.95,5.15,5.15,0,0,0,.61,2.4,4.33,4.33,0,0,0,2.32,1.93,22.41,22.41,0,0,1,2.66-4.71,24.44,24.44,0,0,1,3.51-3.88A17.6,17.6,0,0,1,185.18,6a8.57,8.57,0,0,1,3.75-1,4.4,4.4,0,0,1,2.07.51,6.08,6.08,0,0,1,1.67,1.28,6.31,6.31,0,0,1,1.09,1.67,4.08,4.08,0,0,1,.41,1.67,6.18,6.18,0,0,1-1,3.15,12,12,0,0,1-3,3.22A17.84,17.84,0,0,1,185.51,19a18.64,18.64,0,0,1-6.14,1.1,16.19,16.19,0,0,0-.44,3.7q0,3.51,1.41,5a5.23,5.23,0,0,0,4,1.52,6.23,6.23,0,0,0,2-.33,9.74,9.74,0,0,0,1.92-.88,9.86,9.86,0,0,0,1.74-1.3,11.81,11.81,0,0,0,1.43-1.59.68.68,0,0,1,.18-.26,1.14,1.14,0,0,1,.22-.16.63.63,0,0,1,.33-.09.74.74,0,0,1,.55.22.67.67,0,0,1,.22.51.6.6,0,0,1-.06.27c0,.09-.08.18-.12.28s-.1.21-.15.33a12.29,12.29,0,0,1-1.54,1.87A11.89,11.89,0,0,1,189,30.91a11.51,11.51,0,0,1-2.66,1.21A10.17,10.17,0,0,1,183.18,32.58Zm6.15-25.09a4.72,4.72,0,0,0-2.52.84,12.49,12.49,0,0,0-2.59,2.29A22.09,22.09,0,0,0,181.86,14a23.54,23.54,0,0,0-1.83,4,11.34,11.34,0,0,0,4.49-1,11.9,11.9,0,0,0,3.38-2.29A10.17,10.17,0,0,0,190,11.74a6.69,6.69,0,0,0,.73-2.86,1.3,1.3,0,0,0-1.43-1.39Z"/><path class="cls-21" d="M200.72,28.15a1.29,1.29,0,0,0,.33,1,1.2,1.2,0,0,0,.88.33,2.59,2.59,0,0,0,1.45-.48,6,6,0,0,0,1.26-1.1,7.94,7.94,0,0,0,1.21-1.57A1,1,0,0,1,206,26a1.58,1.58,0,0,1,.22-.16.63.63,0,0,1,.33-.09.73.73,0,0,1,.53.22.65.65,0,0,1,.24.51.76.76,0,0,1,0,.27l-.13.28q-.07.15-.15.33a12.71,12.71,0,0,1-1.79,2.27,10.68,10.68,0,0,1-2,1.54,4.79,4.79,0,0,1-2.51.69,5.62,5.62,0,0,1-1.9-.29,5.16,5.16,0,0,1-1.47-.79,3.46,3.46,0,0,1-.95-1.15,3.16,3.16,0,0,1-.33-1.43,6.8,6.8,0,0,1,.37-2.27,15.34,15.34,0,0,1,.79-1.94q.42-.89.78-1.56a2.43,2.43,0,0,0,.37-1.12.47.47,0,0,0-.35-.43,5.07,5.07,0,0,0-.75-.26,9,9,0,0,0-1.1-.18,38.44,38.44,0,0,1-2,4.37c-.64,1.14-1.15,2-1.54,2.55a3.55,3.55,0,0,1-.28.33.7.7,0,0,1-.53.22.83.83,0,0,1-.77-.77.88.88,0,0,1,.17-.5,2.76,2.76,0,0,0,.24-.38c.34-.49.82-1.26,1.44-2.33a19.53,19.53,0,0,0,1.74-4.19,2.31,2.31,0,0,1-.62-.66,3.75,3.75,0,0,1-.59-2.05,2.61,2.61,0,0,1,.21-1,2.77,2.77,0,0,1,.53-.86,3.1,3.1,0,0,1,.69-.59,1.36,1.36,0,0,1,.7-.22,1.8,1.8,0,0,1,.77.2,3.69,3.69,0,0,1,.73.48,2.69,2.69,0,0,1,.55.62,1.14,1.14,0,0,1,.22.6,2.66,2.66,0,0,1-.24,1.21,2.07,2.07,0,0,0-.24.92.61.61,0,0,0,.44.58,2.75,2.75,0,0,0,1.1.19,6.79,6.79,0,0,0,1.8-.24l.62-.17a3,3,0,0,1,.62-.07,1.34,1.34,0,0,1,1.08.51,1.93,1.93,0,0,1,.42,1.25A3.5,3.5,0,0,1,203,21.9q-.42.87-.93,1.89a23,23,0,0,0-.94,2.14A6.32,6.32,0,0,0,200.72,28.15Z"/><path class="cls-21" d="M220.1,27.38a9.44,9.44,0,0,1-2,2.27,11.86,11.86,0,0,1-2.54,1.54,8.71,8.71,0,0,1-3.61.69,7.77,7.77,0,0,1-2.56-.4,6.07,6.07,0,0,1-2-1.12,5.1,5.1,0,0,1-1.32-1.7,5,5,0,0,1-.47-2.16,9.14,9.14,0,0,1,.77-3.81,10.28,10.28,0,0,1,1.94-3,8.58,8.58,0,0,1,2.54-1.88,6,6,0,0,1,2.59-.66,3.78,3.78,0,0,1,1.57.33,4.24,4.24,0,0,1,1.28.86,3.86,3.86,0,0,1,.86,1.22,3.45,3.45,0,0,1,.31,1.43,5.74,5.74,0,0,1-1.26,3.37,5.65,5.65,0,0,1-1.83,1.45,6.2,6.2,0,0,1-2.88.6,3.18,3.18,0,0,1-.84-.11,4.45,4.45,0,0,1-.55-.11,3.3,3.3,0,0,0,.95,2.53,3.25,3.25,0,0,0,2.28.88,5.22,5.22,0,0,0,2.34-.53A8.65,8.65,0,0,0,217.42,28a7.33,7.33,0,0,0,1.51-1.68.68.68,0,0,1,.18-.26,1.14,1.14,0,0,1,.22-.16.63.63,0,0,1,.33-.09.76.76,0,0,1,.53.22.65.65,0,0,1,.24.51.6.6,0,0,1-.06.27,2.28,2.28,0,0,1-.13.28Zm-9.85-2.64a3.42,3.42,0,0,0,1.86-.55,5.75,5.75,0,0,0,1.52-1.34,6.69,6.69,0,0,0,1-1.62A3.68,3.68,0,0,0,215,19.8c0-.49-.22-.74-.66-.74a2.26,2.26,0,0,0-1.5.63,6.33,6.33,0,0,0-1.3,1.5,9.63,9.63,0,0,0-.94,1.87A5.08,5.08,0,0,0,210.25,24.74Z"/><path class="cls-21" d="M237.49,27.38a12.71,12.71,0,0,1-1.79,2.27,10.68,10.68,0,0,1-2,1.54,4.79,4.79,0,0,1-2.51.69,4.29,4.29,0,0,1-2.6-.78,3.26,3.26,0,0,1-1.24-2.33,9,9,0,0,1-1.58,1.57,9.28,9.28,0,0,1-1.64,1.07,4.31,4.31,0,0,1-2,.47,3.76,3.76,0,0,1-1.41-.27,3.51,3.51,0,0,1-1.17-.79,3.73,3.73,0,0,1-.79-1.21,3.81,3.81,0,0,1-.29-1.54,10.86,10.86,0,0,1,.75-3.92,13.67,13.67,0,0,1,2-3.49,10.33,10.33,0,0,1,2.71-2.51,5.51,5.51,0,0,1,3-.95,5.68,5.68,0,0,1,1.87.27,5.11,5.11,0,0,1,1.24.61,3.74,3.74,0,0,1,.88.84,4.41,4.41,0,0,1,.86.09,3.08,3.08,0,0,1,.84.29,2.1,2.1,0,0,1,.65.53,1.28,1.28,0,0,1,.25.81,4.53,4.53,0,0,1-.33,1.32c-.22.61-.46,1.29-.73,2s-.51,1.51-.73,2.31a7.94,7.94,0,0,0-.33,2.1,1.05,1.05,0,0,0,.27.74,1,1,0,0,0,.75.29,2.59,2.59,0,0,0,1.45-.48,5.79,5.79,0,0,0,1.26-1.1,7.58,7.58,0,0,0,1.21-1.57.88.88,0,0,1,.19-.26.89.89,0,0,1,.22-.16.58.58,0,0,1,.33-.09.76.76,0,0,1,.53.22.68.68,0,0,1,.23.51.59.59,0,0,1,0,.27l-.13.28Q237.57,27.2,237.49,27.38ZM229,20.9a1.59,1.59,0,0,0-.39-1.19,1.24,1.24,0,0,0-.93-.39,2.4,2.4,0,0,0-1.65.84,9.09,9.09,0,0,0-1.52,2.07,14.75,14.75,0,0,0-1.12,2.66,8.87,8.87,0,0,0-.44,2.56c0,1.1.36,1.65,1.07,1.65a2.35,2.35,0,0,0,1.52-.88,12.06,12.06,0,0,0,1.63-2.16,17.11,17.11,0,0,0,1.3-2.69A7.28,7.28,0,0,0,229,20.9Z"/><path class="cls-21" d="M256.25,31.88a4.94,4.94,0,0,1-3.37-1.11,3.69,3.69,0,0,1-1.29-2.92,8.1,8.1,0,0,1,.3-2.27,16.77,16.77,0,0,1,.64-1.86l.64-1.58a3.78,3.78,0,0,0,.29-1.35.7.7,0,0,0-.18-.54.68.68,0,0,0-.48-.16c-.41,0-1,.38-1.68,1.15a11.27,11.27,0,0,0-2,3.43A21.09,21.09,0,0,0,248,28.24a13.15,13.15,0,0,0-.37,2.91c0,.32-.07.52-.2.6a1.09,1.09,0,0,1-.6.13,5,5,0,0,1-2.46-.56,1.67,1.67,0,0,1-1-1.45,10,10,0,0,1,.33-2.44c.22-.86.47-1.71.75-2.54s.54-1.6.76-2.31a6.5,6.5,0,0,0,.33-1.72c0-.51-.22-.77-.66-.77a2.48,2.48,0,0,0-1.52.73A7.17,7.17,0,0,0,241.72,23a15.18,15.18,0,0,0-1.26,3.48,19.76,19.76,0,0,0-.51,4.71c0,.32-.07.52-.2.6a1.13,1.13,0,0,1-.61.13,5,5,0,0,1-2.45-.56,1.67,1.67,0,0,1-1-1.45,16.12,16.12,0,0,1,.35-3.33c.23-1.15.5-2.25.82-3.3s.64-2,1-2.89.61-1.58.83-2.09a1,1,0,0,1,1-.7,2.58,2.58,0,0,1,1.07.33,4.57,4.57,0,0,1,1.5,1.65,12,12,0,0,1,1.61-1.17,13,13,0,0,1,1.63-.81,4.91,4.91,0,0,1,1.85-.36,2.41,2.41,0,0,1,1.9.77,5.44,5.44,0,0,1,1.1,1.94,19.2,19.2,0,0,1,1.76-1.36,10.92,10.92,0,0,1,1.74-.93,5,5,0,0,1,2-.42,2.37,2.37,0,0,1,1,.23,3.27,3.27,0,0,1,.89.63,2.8,2.8,0,0,1,.64.86,2.06,2.06,0,0,1,.24.95,5,5,0,0,1-.34,1.68c-.24.64-.5,1.32-.79,2s-.56,1.46-.79,2.21a7.68,7.68,0,0,0-.35,2.24,1.57,1.57,0,0,0,.31,1,1.05,1.05,0,0,0,.86.39,1.1,1.1,0,0,0,.59-.18c.2-.13.39-.26.59-.41a4,4,0,0,0,.62-.62,3.61,3.61,0,0,1,.33-.35.63.63,0,0,1,.44-.16.86.86,0,0,1,.8.8.9.9,0,0,1-.22.52,1.75,1.75,0,0,0-.18.29,7.38,7.38,0,0,1-1.21,1.28,6.61,6.61,0,0,1-1.35.9A3.66,3.66,0,0,1,256.25,31.88Z"/><path class="cls-21" d="M279.94,30.6a6,6,0,0,0,2.49-.53,7.89,7.89,0,0,0,2.13-1.41,10.17,10.17,0,0,0,1.63-2,8.66,8.66,0,0,0,1-2.18,16.81,16.81,0,0,1-2.12.83,6.75,6.75,0,0,1-1.87.31,3.18,3.18,0,0,1-2-.53,1.67,1.67,0,0,1-.64-1.34,2.69,2.69,0,0,1,.69-1.72A7.22,7.22,0,0,1,283,20.58a10,10,0,0,1,2.19-1,6.8,6.8,0,0,1,2.13-.39,5.86,5.86,0,0,1,1.61.22,3.09,3.09,0,0,1,1.24.7,7.4,7.4,0,0,0,1-1.54,3.27,3.27,0,0,0,.37-1.43,1,1,0,0,0-.28-.78.93.93,0,0,0-.71-.28,1.88,1.88,0,0,0-.7.15,7.32,7.32,0,0,0-.69.33l-.59.33a1,1,0,0,1-.36.14.78.78,0,0,1-.44-.11c-.13-.07-.19-.23-.19-.47s.17-.42.52-.75a7.25,7.25,0,0,1,1.28-1,11,11,0,0,1,1.68-.85,4.75,4.75,0,0,1,1.73-.36,2.42,2.42,0,0,1,1.66.6,2.13,2.13,0,0,1,.68,1.67,5.59,5.59,0,0,1-1.15,3.17,16.07,16.07,0,0,1-2.84,3,2.16,2.16,0,0,1,0,.35v.34a6.63,6.63,0,0,1-1,3.41,12.43,12.43,0,0,1-2.78,3.2,15.2,15.2,0,0,1-4,2.38,12.33,12.33,0,0,1-4.77.94,12.89,12.89,0,0,1-3.07-.37A8.48,8.48,0,0,1,272.67,31a6.62,6.62,0,0,1-2-2.07,5.55,5.55,0,0,1-.79-3,7.19,7.19,0,0,1,.33-2.23,8.22,8.22,0,0,1,.86-1.87,7.87,7.87,0,0,1,1.23-1.52,14.8,14.8,0,0,1,1.43-1.23,16.25,16.25,0,0,1,3.88-2.05,6.52,6.52,0,0,1-1.32-1.14,6.25,6.25,0,0,1-.93-1.33,3.71,3.71,0,0,1-.42-1.82,11.67,11.67,0,0,1-3.69-1.35,2.56,2.56,0,0,1-1.44-2.2,2.49,2.49,0,0,1,.47-1.39,6.42,6.42,0,0,1,1.14-1.25,7.31,7.31,0,0,1,1.35-.89,2.75,2.75,0,0,1,1.1-.35.3.3,0,0,1,.26.11.38.38,0,0,1,.07.22,1.44,1.44,0,0,1-.33.64,1.88,1.88,0,0,0-.33,1.12,2.79,2.79,0,0,0,.52,1.63,4.8,4.8,0,0,0,1.42,1.33,7.76,7.76,0,0,1,1.67-2.12,12.44,12.44,0,0,1,2.42-1.72A12.78,12.78,0,0,1,282.4,5.4a11.17,11.17,0,0,1,2.93-.4,6.89,6.89,0,0,1,1.85.24,5.41,5.41,0,0,1,1.5.66,3.38,3.38,0,0,1,1,1,2.59,2.59,0,0,1,.36,1.34,2.92,2.92,0,0,1-.79,1.94,6.73,6.73,0,0,1-2.12,1.59A12.76,12.76,0,0,1,284,12.86a18.65,18.65,0,0,1-3.81.38h-.66a5.33,5.33,0,0,0,.13,1.25,5,5,0,0,0,.31.95,3.69,3.69,0,0,0,.44.84c.19,0,.43-.06.69-.11l.79-.07c.31,0,.66,0,1.05,0,1.44,0,2.16.43,2.16,1.28a1.59,1.59,0,0,1-.64,1.12,2.49,2.49,0,0,1-1.71.57,7.55,7.55,0,0,1-1.21-.09,5.25,5.25,0,0,1-.95-.24,3.91,3.91,0,0,1-.8-.37,11.33,11.33,0,0,0-2.42,1.91,10.47,10.47,0,0,0-1.67,2.34,6.76,6.76,0,0,0-.75,3.26,4.54,4.54,0,0,0,1.34,3.53A5.16,5.16,0,0,0,279.94,30.6Zm5.28-24a4.26,4.26,0,0,0-1.69.37A6,6,0,0,0,282,8a7.38,7.38,0,0,0-1.32,1.54,6.69,6.69,0,0,0-.88,2,15.51,15.51,0,0,0,2.91-.26,9.83,9.83,0,0,0,2.33-.73,4.58,4.58,0,0,0,1.54-1.14,2.26,2.26,0,0,0,.54-1.46,1.07,1.07,0,0,0-.54-.94A2.45,2.45,0,0,0,285.22,6.57Zm-.92,17.15a4.13,4.13,0,0,0,1.5-.32,8.17,8.17,0,0,0,1.65-.86,2.05,2.05,0,0,0-.49-1.42,1.51,1.51,0,0,0-1-.37,1.61,1.61,0,0,0-.75.22,4.22,4.22,0,0,0-.8.55,3.14,3.14,0,0,0-.64.73,1.39,1.39,0,0,0-.26.77C283.46,23.48,283.74,23.72,284.3,23.72Z"/><path class="cls-21" d="M338.62,29.43a2.56,2.56,0,0,0,1.44-.48,6.09,6.09,0,0,0,1.27-1.1,7.55,7.55,0,0,0,1.2-1.57.88.88,0,0,1,.19-.26,1.14,1.14,0,0,1,.22-.16.6.6,0,0,1,.33-.09.76.76,0,0,1,.53.22.65.65,0,0,1,.24.51.6.6,0,0,1-.06.27l-.13.28c-.05.1-.09.21-.14.33a13.23,13.23,0,0,1-1.8,2.27,10.59,10.59,0,0,1-2,1.54,4.81,4.81,0,0,1-2.51.69,5.2,5.2,0,0,1-1.89-.36,5.62,5.62,0,0,1-1.67-1,5.43,5.43,0,0,1-1.19-1.59,4.69,4.69,0,0,1-.45-2.07,16.33,16.33,0,0,1,.34-3.11c.24-1.18.55-2.39.94-3.65s.82-2.53,1.3-3.81,1-2.49,1.44-3.64c-.48.63-1,1.42-1.61,2.36s-1.17,1.95-1.77,3-1.19,2.2-1.78,3.33-1.12,2.21-1.61,3.23-.92,1.9-1.3,2.67-.65,1.35-.82,1.74a4.09,4.09,0,0,1-.74,1.1,7.09,7.09,0,0,1-1,.91,6.77,6.77,0,0,1-1,.64,1.72,1.72,0,0,1-.68.24,1.56,1.56,0,0,1-.9-.33,3.78,3.78,0,0,1-.86-.91,5.43,5.43,0,0,1-.66-1.32,4.76,4.76,0,0,1-.25-1.58c0-.36,0-.87.07-1.53s.11-1.41.18-2.24.16-1.7.26-2.62.18-1.81.25-2.69.14-1.7.19-2.47.07-1.41.07-1.92l-1.12,3.55q-.6,1.93-1.35,3.9c-.5,1.31-1.05,2.57-1.65,3.79a20.72,20.72,0,0,1-1.94,3.24A10.31,10.31,0,0,1,314,31a4.31,4.31,0,0,1-2.57.86,8.26,8.26,0,0,1-3.22-.64,11.06,11.06,0,0,1-2.73-1.59,8.52,8.52,0,0,1-1.88-2,3.84,3.84,0,0,1-.7-2.05,3.32,3.32,0,0,1,.7-2,6.62,6.62,0,0,1,1.7-1.59,9.33,9.33,0,0,1,2.1-1,5.89,5.89,0,0,1,1.91-.39c.61,0,.91.19.91.55a.8.8,0,0,1-.16.53,3.91,3.91,0,0,1-.57.53,6.12,6.12,0,0,0-.69.64,7.52,7.52,0,0,0-.77,1,4.94,4.94,0,0,0-.61,1.19,4,4,0,0,0-.24,1.39,2.57,2.57,0,0,0,.76,1.92,2.46,2.46,0,0,0,1.81.75A3.59,3.59,0,0,0,312,27.78a18.38,18.38,0,0,0,2.54-3A37.18,37.18,0,0,0,317,20.6q1.21-2.31,2.16-4.54a35.31,35.31,0,0,0,1.52-4.16,11.44,11.44,0,0,0,.57-3.05,1.67,1.67,0,0,0-.44-1.16,1.86,1.86,0,0,0-1.46-.49,5,5,0,0,0-2,.57,9.49,9.49,0,0,0-2.27,1.52,9.77,9.77,0,0,0-1.85,2.19,4.85,4.85,0,0,0-.76,2.57,3.31,3.31,0,0,0,.29,1.46,5.49,5.49,0,0,0,.62,1.06,7.5,7.5,0,0,0,.62.74.78.78,0,0,1,.3.47c0,.49-.26.73-.77.73a4.9,4.9,0,0,1-1.74-.38,8.23,8.23,0,0,1-1.93-1.08,6.67,6.67,0,0,1-1.53-1.61,3.48,3.48,0,0,1-.63-2,5.22,5.22,0,0,1,1.19-3.22,11.9,11.9,0,0,1,3-2.69,16.5,16.5,0,0,1,4-1.83A14.15,14.15,0,0,1,320.08,5a6.41,6.41,0,0,1,2,.38,7.55,7.55,0,0,1,2.11,1.16,6.39,6.39,0,0,1,1.66,2,5.48,5.48,0,0,1,.68,2.76c0,1.2,0,2.56-.15,4.09s-.2,3-.31,4.46-.21,2.76-.31,3.92-.15,2-.15,2.44c.17-.29.44-.79.81-1.48s.8-1.54,1.3-2.51,1.07-2.05,1.7-3.23,1.31-2.37,2-3.6,1.44-2.46,2.21-3.68S335.21,9.3,336,8.22a5.85,5.85,0,0,1,1.5-1.48,7.77,7.77,0,0,1,1.77-.9,9.79,9.79,0,0,1,1.94-.46,17,17,0,0,1,2-.12c.71,0,1.06.17,1.06.51a.9.9,0,0,1-.2.48,8.82,8.82,0,0,1-.71.84,9.89,9.89,0,0,0-1,1.68c-.43.83-.89,1.83-1.39,3s-1,2.42-1.54,3.79-1,2.74-1.45,4.12a41,41,0,0,0-1.06,4,16.51,16.51,0,0,0-.4,3.35,2.49,2.49,0,0,0,.58,1.85A2.08,2.08,0,0,0,338.62,29.43Z"/><path class="cls-21" d="M360,27.38A6.21,6.21,0,0,1,358.43,29a8.17,8.17,0,0,1-2,1.1,7.42,7.42,0,0,1-2.8.48,10.76,10.76,0,0,1-1.43-.11,7,7,0,0,1-1.94,1.08,6.65,6.65,0,0,1-2.23.38,6,6,0,0,1-2.18-.4,5.8,5.8,0,0,1-1.83-1.1,5.08,5.08,0,0,1-1.25-1.65,4.63,4.63,0,0,1-.46-2,10.11,10.11,0,0,1,.79-4.09,9.6,9.6,0,0,1,2-3,8.55,8.55,0,0,1,2.74-1.83,7.53,7.53,0,0,1,2.93-.62,6.19,6.19,0,0,1,2.13.36,4.84,4.84,0,0,1,1.7,1.08,5.25,5.25,0,0,1,1.13,1.72,5.69,5.69,0,0,1,.43,2.26,8.81,8.81,0,0,1-.61,3.07,11.81,11.81,0,0,1-1.66,3l.27.05.31,0a3.72,3.72,0,0,0,1.72-.39,6.73,6.73,0,0,0,1.36-.86,9.68,9.68,0,0,0,1.24-1.24A.88.88,0,0,1,359,26a.89.89,0,0,1,.22-.16.58.58,0,0,1,.33-.09.76.76,0,0,1,.53.22.64.64,0,0,1,.23.51.59.59,0,0,1-.05.27l-.13.28A2.52,2.52,0,0,0,360,27.38Zm-13.37.25a3.24,3.24,0,0,0,.45,1.8,1.49,1.49,0,0,0,1.31.7,1.84,1.84,0,0,0,1.13-.44,1.1,1.1,0,0,1-.62-.88,1.16,1.16,0,0,1,.2-.63,2.48,2.48,0,0,1,.49-.58,3.33,3.33,0,0,1,.61-.42,1.16,1.16,0,0,1,.53-.17,1.53,1.53,0,0,1,.4.07,15.36,15.36,0,0,0,.84-2.94,14.83,14.83,0,0,0,.3-2.77,3,3,0,0,0-.41-1.77,1.23,1.23,0,0,0-1-.54,2.15,2.15,0,0,0-1.36.65,6.51,6.51,0,0,0-1.37,1.79,11.87,11.87,0,0,0-1.06,2.71A13.13,13.13,0,0,0,346.64,27.63Z"/><path class="cls-21" d="M368.1,28.15a1.29,1.29,0,0,0,.33,1,1.18,1.18,0,0,0,.88.33,2.53,2.53,0,0,0,1.44-.48,6.09,6.09,0,0,0,1.27-1.1,7.94,7.94,0,0,0,1.21-1.57.68.68,0,0,1,.18-.26,1.14,1.14,0,0,1,.22-.16.63.63,0,0,1,.33-.09.76.76,0,0,1,.53.22.65.65,0,0,1,.24.51.6.6,0,0,1-.06.27,2.28,2.28,0,0,1-.13.28l-.14.33a13.23,13.23,0,0,1-1.8,2.27,10.59,10.59,0,0,1-2,1.54,4.81,4.81,0,0,1-2.51.69,5.72,5.72,0,0,1-1.91-.29,5,5,0,0,1-1.46-.79,3.35,3.35,0,0,1-1-1.15,3.16,3.16,0,0,1-.33-1.43,7.06,7.06,0,0,1,.36-2.27A19,19,0,0,1,364.6,24c.28-.59.54-1.11.79-1.56a2.51,2.51,0,0,0,.36-1.12.46.46,0,0,0-.34-.43,6,6,0,0,0-.75-.26,9.36,9.36,0,0,0-1.1-.18,36.63,36.63,0,0,1-2,4.37A28.06,28.06,0,0,1,360,27.38a3.05,3.05,0,0,1-.27.33.7.7,0,0,1-.53.22.72.72,0,0,1-.53-.24.74.74,0,0,1-.24-.53.87.87,0,0,1,.16-.5,2.76,2.76,0,0,0,.24-.38c.34-.49.83-1.26,1.45-2.33A20.61,20.61,0,0,0,362,19.76a2.18,2.18,0,0,1-.62-.66,4.11,4.11,0,0,1-.41-.84,3.67,3.67,0,0,1-.18-1.21,2.79,2.79,0,0,1,.2-1,3,3,0,0,1,.53-.86,2.93,2.93,0,0,1,.7-.59,1.3,1.3,0,0,1,.69-.22,1.73,1.73,0,0,1,.77.2,3.76,3.76,0,0,1,.74.48,2.69,2.69,0,0,1,.55.62,1.23,1.23,0,0,1,.22.6,2.66,2.66,0,0,1-.24,1.21,2.07,2.07,0,0,0-.24.92.61.61,0,0,0,.44.58,2.71,2.71,0,0,0,1.1.19,6,6,0,0,0,1-.08,6.1,6.1,0,0,0,.75-.16l.63-.17a3,3,0,0,1,.62-.07,1.34,1.34,0,0,1,1.08.51,1.93,1.93,0,0,1,.42,1.25,3.5,3.5,0,0,1-.42,1.48c-.28.58-.59,1.21-.94,1.89a23,23,0,0,0-.93,2.14A6.32,6.32,0,0,0,368.1,28.15Z"/><path class="cls-21" d="M380.7,29.5a4.47,4.47,0,0,0,1.48-.22,4.68,4.68,0,0,0,1.1-.51,6.77,6.77,0,0,0,.79-.6l.51-.5.26-.25.25-.17a.58.58,0,0,1,.3-.09.75.75,0,0,1,.55.22.71.71,0,0,1,.21.51.49.49,0,0,1-.09.28,1.75,1.75,0,0,0-.16.27,2.7,2.7,0,0,0-.22.33A8.49,8.49,0,0,1,384,30.34a10.12,10.12,0,0,1-2,1.07,7,7,0,0,1-2.65.47,7.83,7.83,0,0,1-2.57-.4,6.12,6.12,0,0,1-2-1.12,5.1,5.1,0,0,1-1.32-1.7,4.88,4.88,0,0,1-.48-2.16,9.3,9.3,0,0,1,.77-3.81,10.49,10.49,0,0,1,1.94-3,8.5,8.5,0,0,1,2.55-1.88,6,6,0,0,1,2.58-.66,3.82,3.82,0,0,1,1.58.33,4.5,4.5,0,0,1,1.28.86,4,4,0,0,1,.86,1.22A3.45,3.45,0,0,1,384.8,21a5.61,5.61,0,0,1-.29,1.59,5.46,5.46,0,0,1-1,1.78,5.81,5.81,0,0,1-1.84,1.45,6.13,6.13,0,0,1-2.87.6,3.13,3.13,0,0,1-.84-.11,4.11,4.11,0,0,1-.55-.11,3,3,0,0,0,1,2.46A3.51,3.51,0,0,0,380.7,29.5Zm-3.08-4.76a3.45,3.45,0,0,0,1.87-.55A6.08,6.08,0,0,0,381,22.85a7,7,0,0,0,1-1.62,3.82,3.82,0,0,0,.36-1.43c0-.49-.22-.74-.66-.74a2.3,2.3,0,0,0-1.5.63,6.57,6.57,0,0,0-1.3,1.5,9.06,9.06,0,0,0-.93,1.87A4.89,4.89,0,0,0,377.62,24.74Z"/></g></g></svg>