<svg xmlns="http://www.w3.org/2000/svg" xmlns:xlink="http://www.w3.org/1999/xlink" viewBox="0 0 200 200"><defs><style>.cls-1,.cls-3{fill:none;}.cls-2{fill:#eeb67d;}.cls-3{stroke:#f4c58d;stroke-width:16px;}.cls-3,.cls-4{stroke-miterlimit:10;}.cls-4{fill:url(#Cone);stroke:url(#Cone);}</style><pattern id="Cone" data-name="Cone" width="20" height="20" patternUnits="userSpaceOnUse" viewBox="0 0 199 199"><rect class="cls-1" width="200" height="200"/><rect class="cls-2" x="199.5" y="199.5" width="200" height="200"/><line class="cls-3" x1="200" y1="200" x2="400" y2="400"/><line class="cls-3" x1="200" y1="400" x2="400" y2="200"/><rect class="cls-2" x="-0.5" y="199.5" width="200" height="200"/><line class="cls-3" y1="200" x2="200" y2="400"/><line class="cls-3" y1="400" x2="200" y2="200"/><line class="cls-3" x1="-200" y1="200" y2="400"/><line class="cls-3" x1="-200" y1="400" y2="200"/><rect class="cls-2" x="199.5" y="-0.5" width="200" height="200"/><line class="cls-3" x1="200" x2="400" y2="200"/><line class="cls-3" x1="200" y1="200" x2="400"/><rect class="cls-2" x="-0.5" y="-0.5" width="200" height="200"/><line class="cls-3" x2="200" y2="200"/><line class="cls-3" y1="200" x2="200"/><line class="cls-3" x1="-200" y2="200"/><line class="cls-3" x1="-200" y1="200"/><line class="cls-3" x1="200" y1="-200" x2="400"/><line class="cls-3" x1="200" x2="400" y2="-200"/><line class="cls-3" y1="-200" x2="200"/><line class="cls-3" x2="200" y2="-200"/><line class="cls-3" x1="-200" y1="-200"/><line class="cls-3" x1="-200" y2="-200"/></pattern></defs><title>Asset 10</title><g id="Layer_2" data-name="Layer 2"><g id="Circle"><rect class="cls-4" x="0.5" y="0.5" width="200" height="200"/></g></g></svg>