<svg xmlns="http://www.w3.org/2000/svg" xmlns:xlink="http://www.w3.org/1999/xlink" viewBox="0 0 402.19 70.23"><defs><style>.cls-1,.cls-3{fill:none;}.cls-1{stroke-linejoin:round;stroke-width:10px;stroke:url(#linear-gradient);}.cls-2{fill:#fff;}</style><linearGradient id="linear-gradient" x1="55.54" y1="117.7" x2="343.07" y2="-48.3" gradientUnits="userSpaceOnUse"><stop offset="0" stop-color="#ee2a7b"/><stop offset="1" stop-color="#00aeef"/></linearGradient></defs><title>Asset 5</title><g id="Layer_2" data-name="Layer 2"><g id="Layer_1-2" data-name="Layer 1"><path class="cls-1" d="M37.14,44.75A7.44,7.44,0,0,1,33.68,44a4.06,4.06,0,0,1-2-2.27,8,8,0,0,1-.44-2.14c-.07-.84-.11-1.85-.11-3A4.37,4.37,0,0,0,30.92,35a3.07,3.07,0,0,0-.51-.91,19.23,19.23,0,0,1-2,.11h-.73a32.88,32.88,0,0,1-1.61,5,12.57,12.57,0,0,1-2,3.24,6.54,6.54,0,0,1-2.36,1.76,7.41,7.41,0,0,1-2.82.53,9,9,0,0,1-3.52-.68,10.31,10.31,0,0,1-2.77-1.67,8.07,8.07,0,0,1-1.79-2.14,4.38,4.38,0,0,1-.64-2.11,3.46,3.46,0,0,1,.69-2.08,6.8,6.8,0,0,1,1.71-1.63,9,9,0,0,1,2.1-1.06A5.89,5.89,0,0,1,16.6,33a1.12,1.12,0,0,1,.66.18.52.52,0,0,1,.25.41.62.62,0,0,1-.12.42l-.54.42a5.51,5.51,0,0,0-.75.73,7.8,7.8,0,0,0-.77,1.06,7.35,7.35,0,0,0-.58,1.27,3.94,3.94,0,0,0-.24,1.33,3.6,3.6,0,0,0,.24,1.32,3.81,3.81,0,0,0,.66,1.12,3.21,3.21,0,0,0,1,.79,3,3,0,0,0,1.32.29c1.13,0,2.17-.77,3.13-2.31a26.86,26.86,0,0,0,2.73-7.43c.32-1.34.61-2.5.86-3.46s.51-1.8.76-2.51A11.29,11.29,0,0,1,26,24.8a8.09,8.09,0,0,1,1-1.41,4.32,4.32,0,0,1,1.13-.78,11.94,11.94,0,0,1,1.4-.59,10.22,10.22,0,0,1,1.26-.35,5.66,5.66,0,0,1,.75-.11c.46,0,.7.17.7.52a.68.68,0,0,1-.2.33,6,6,0,0,0-.5.62c-.19.27-.42.6-.68,1a7.93,7.93,0,0,0-.71,1.43q-.25.66-.48,1.2c-.14.37-.29.79-.44,1.27s-.31,1-.49,1.68-.39,1.46-.61,2.44a10.47,10.47,0,0,0,3.36-.62,9.69,9.69,0,0,0,2.8-1.58,7.7,7.7,0,0,0,1.92-2.31,5.8,5.8,0,0,0,.72-2.82,4.21,4.21,0,0,0-1.56-3.46Q33.81,20,30.3,20a18,18,0,0,0-4.56.53A10.88,10.88,0,0,0,22.37,22a6.82,6.82,0,0,0-2.09,2.17,5.06,5.06,0,0,0-.72,2.61,3,3,0,0,0,.3,1.41,4.82,4.82,0,0,0,.62,1,6,6,0,0,0,.62.62q.3.24.3.42c0,.46-.26.7-.77.7a5.71,5.71,0,0,1-1.74-.33A7.54,7.54,0,0,1,17,29.6a6.29,6.29,0,0,1-1.54-1.46,3.26,3.26,0,0,1-.64-2,4.83,4.83,0,0,1,1.34-3.24,11.48,11.48,0,0,1,3.52-2.64,22,22,0,0,1,5-1.78,24.93,24.93,0,0,1,5.73-.66,20.44,20.44,0,0,1,4.94.55,12,12,0,0,1,3.61,1.49,6.5,6.5,0,0,1,2.2,2.23,5.46,5.46,0,0,1,.75,2.77,6.18,6.18,0,0,1-.68,2.83,8.73,8.73,0,0,1-1.83,2.44,13,13,0,0,1-2.69,1.94,17.18,17.18,0,0,1-3.22,1.36,3.26,3.26,0,0,1,1,1,4.84,4.84,0,0,1,.68,2.11A14.44,14.44,0,0,0,36.27,41a2.22,2.22,0,0,0,2.08,1.33,2.65,2.65,0,0,0,1.45-.47,6.38,6.38,0,0,0,1.26-1.1,7.93,7.93,0,0,0,1.21-1.58.75.75,0,0,1,.19-.25.88.88,0,0,1,.22-.17.58.58,0,0,1,.33-.09.76.76,0,0,1,.53.22.71.71,0,0,1,.23.51.66.66,0,0,1-.05.28c0,.08-.08.18-.13.27s-.1.21-.15.33a12.37,12.37,0,0,1-1.79,2.27,9.9,9.9,0,0,1-2,1.54A4.8,4.8,0,0,1,37.14,44.75Z"/><path class="cls-1" d="M59.74,40.24a6,6,0,0,1-1.57,1.58,8.51,8.51,0,0,1-2,1.1,7.67,7.67,0,0,1-2.8.47,9.22,9.22,0,0,1-1.43-.11,6.73,6.73,0,0,1-4.17,1.47,6,6,0,0,1-2.18-.41,5.78,5.78,0,0,1-1.83-1.09,5.3,5.3,0,0,1-1.25-1.65,4.7,4.7,0,0,1-.46-2,10,10,0,0,1,.79-4.08,9.46,9.46,0,0,1,2-3,8.93,8.93,0,0,1,2.75-1.83,7.72,7.72,0,0,1,2.93-.62,5.91,5.91,0,0,1,2.12.37,4.62,4.62,0,0,1,1.71,1.08,5.3,5.3,0,0,1,1.13,1.72,5.78,5.78,0,0,1,.42,2.25,8.84,8.84,0,0,1-.6,3.08,11.66,11.66,0,0,1-1.67,3l.28.06h.31A3.75,3.75,0,0,0,56,41.25a7.9,7.9,0,0,0,1.36-.86,9.77,9.77,0,0,0,1.24-1.25.7.7,0,0,1,.18-.25,1.54,1.54,0,0,1,.22-.17.63.63,0,0,1,.33-.09.73.73,0,0,1,.53.22.68.68,0,0,1,.24.51.87.87,0,0,1,0,.28c0,.08-.08.18-.13.27S59.79,40.12,59.74,40.24Zm-13.37.26a3.23,3.23,0,0,0,.46,1.79,1.46,1.46,0,0,0,1.3.7,1.84,1.84,0,0,0,1.14-.44,1.09,1.09,0,0,1-.62-.88,1.16,1.16,0,0,1,.2-.62,2.53,2.53,0,0,1,.49-.59A3.33,3.33,0,0,1,50,40a1.13,1.13,0,0,1,.53-.16,1.25,1.25,0,0,1,.4.07,15.47,15.47,0,0,0,.84-3A14.73,14.73,0,0,0,52,34.24a3,3,0,0,0-.4-1.78,1.24,1.24,0,0,0-1-.53,2.13,2.13,0,0,0-1.36.64,6.47,6.47,0,0,0-1.37,1.79,12.06,12.06,0,0,0-1.06,2.71A12.73,12.73,0,0,0,46.37,40.5Z"/><path class="cls-1" d="M74.72,40.24a9,9,0,0,1-2.38,2.38,13.4,13.4,0,0,1-3.2,1.65,13.69,13.69,0,0,1-4.78.73,6.23,6.23,0,0,1-2.57-.53,8,8,0,0,1-2.1-1.33,6.88,6.88,0,0,1-1.43-1.76,3.71,3.71,0,0,1-.53-1.76,1.84,1.84,0,0,1,.55-1.36,5.33,5.33,0,0,1,1.21-.91,8,8,0,0,1,1.75-.66l.59-.92c.2-.31.45-.71.77-1.19s.68-1,1.1-1.7a12.23,12.23,0,0,1,2.2-2.69,2.69,2.69,0,0,1,1.61-.75,1.29,1.29,0,0,1,.6.16,3.76,3.76,0,0,1,.59.39,2.29,2.29,0,0,1,.44.44.64.64,0,0,1,.16.36,1.08,1.08,0,0,1-.14.46l-.32.59a5,5,0,0,0-.29.66,2.17,2.17,0,0,0-.13.71,7.52,7.52,0,0,0,.22,1.9,14.26,14.26,0,0,0,.5,1.52c.18.48.35.94.49,1.4a4.77,4.77,0,0,1,.22,1.52,4.69,4.69,0,0,1-.13,1.22,4.09,4.09,0,0,1-.31.86,3.57,3.57,0,0,1-.4.7,7.56,7.56,0,0,0,1.92-.82,11.18,11.18,0,0,0,1.45-1,9.07,9.07,0,0,0,1.17-1.32.7.7,0,0,1,.18-.25,1.54,1.54,0,0,1,.22-.17.63.63,0,0,1,.33-.09.73.73,0,0,1,.53.22.68.68,0,0,1,.24.51.87.87,0,0,1,0,.28c0,.08-.08.18-.13.27S74.77,40.12,74.72,40.24ZM64.39,34.6q-.77,1.17-1.35,2.13L62.1,38.3a2.91,2.91,0,0,0-.42.92,11.21,11.21,0,0,0,.1,1.55,5.61,5.61,0,0,0,.31,1.34,2.61,2.61,0,0,0,.55.93,1.08,1.08,0,0,0,.84.35,1.74,1.74,0,0,0,1.45-.91,3.85,3.85,0,0,0,.6-2.16,6.42,6.42,0,0,0-.18-1.47c-.13-.51-.25-1-.39-1.52l-.38-1.46A4.89,4.89,0,0,1,64.39,34.6Z"/><path class="cls-1" d="M77.73,40.9a1.54,1.54,0,0,0,.31,1,1,1,0,0,0,.86.38,2.59,2.59,0,0,0,1.44-.47,6.74,6.74,0,0,0,1.27-1.1,8.33,8.33,0,0,0,1.21-1.58.59.59,0,0,1,.18-.25,1.12,1.12,0,0,1,.22-.17.63.63,0,0,1,.33-.09.76.76,0,0,1,.53.22.68.68,0,0,1,.24.51.67.67,0,0,1-.06.28,2.19,2.19,0,0,1-.13.27l-.14.33a12.85,12.85,0,0,1-1.8,2.27,9.83,9.83,0,0,1-2,1.54,4.82,4.82,0,0,1-2.51.7,4.92,4.92,0,0,1-3.37-1.12A3.65,3.65,0,0,1,73,40.72a10.58,10.58,0,0,1,.33-2.38c.22-.93.47-1.87.77-2.82s.6-1.86.93-2.71.6-1.54.82-2.05a1.53,1.53,0,0,1,.41-.5.93.93,0,0,1,.58-.2,2.12,2.12,0,0,1,.92.26,6,6,0,0,1,1,.58,4.4,4.4,0,0,1,.73.68,1,1,0,0,1,.3.57A5.66,5.66,0,0,1,79.45,34q-.33,1-.72,2.07c-.25.73-.49,1.51-.69,2.33A10.1,10.1,0,0,0,77.73,40.9ZM83,23.28a4.18,4.18,0,0,1-.24,1.41,4,4,0,0,1-.66,1.21,3.45,3.45,0,0,1-.95.85,2.25,2.25,0,0,1-1.12.31,2,2,0,0,1-2-2.09,3.77,3.77,0,0,1,.26-1.36A4.66,4.66,0,0,1,79,22.42a3.36,3.36,0,0,1,1-.84,2.33,2.33,0,0,1,1.17-.31,1.78,1.78,0,0,1,1.34.55A2,2,0,0,1,83,23.28Z"/><path class="cls-1" d="M97.06,40.24a9.22,9.22,0,0,1-2,2.27,11.19,11.19,0,0,1-2.55,1.54,8.62,8.62,0,0,1-3.6.7,7.83,7.83,0,0,1-2.57-.41,6.11,6.11,0,0,1-2-1.11A5.24,5.24,0,0,1,83,41.52a4.85,4.85,0,0,1-.48-2.16,9.3,9.3,0,0,1,.77-3.81,10.23,10.23,0,0,1,1.94-2.94,8.71,8.71,0,0,1,2.55-1.89,6,6,0,0,1,2.58-.66,3.82,3.82,0,0,1,1.58.33,4.71,4.71,0,0,1,1.28.86,4.07,4.07,0,0,1,.86,1.23,3.41,3.41,0,0,1,.31,1.43,5.61,5.61,0,0,1-.29,1.59,5.67,5.67,0,0,1-1,1.78,5.85,5.85,0,0,1-1.83,1.44,6.08,6.08,0,0,1-2.88.61,3.59,3.59,0,0,1-.84-.11c-.17,0-.36-.06-.55-.11a3.14,3.14,0,0,0,3.22,3.4A5,5,0,0,0,92.59,42a9,9,0,0,0,1.8-1.15,7.31,7.31,0,0,0,1.5-1.69.85.85,0,0,1,.18-.25,1.54,1.54,0,0,1,.22-.17.63.63,0,0,1,.33-.09.76.76,0,0,1,.54.22.71.71,0,0,1,.23.51.87.87,0,0,1,0,.28c0,.08-.08.18-.13.27S97.11,40.12,97.06,40.24Zm-9.85-2.63a3.54,3.54,0,0,0,1.87-.55,6.31,6.31,0,0,0,1.52-1.34,7.29,7.29,0,0,0,1-1.63A3.78,3.78,0,0,0,92,32.66c0-.49-.22-.73-.66-.73a2.34,2.34,0,0,0-1.5.62,7,7,0,0,0-1.3,1.5,9.32,9.32,0,0,0-.93,1.87A4.89,4.89,0,0,0,87.21,37.61Z"/><path class="cls-1" d="M98.67,20.72a1.93,1.93,0,0,1,.52-1.39,1.85,1.85,0,0,1,1.43-.55,1.92,1.92,0,0,1,1.46.51,2.07,2.07,0,0,1,.48,1.47,4.1,4.1,0,0,1-.53,2,9.17,9.17,0,0,1-1.25,1.74,9.48,9.48,0,0,1-1.39,1.24,2.15,2.15,0,0,1-.94.48q-.54,0-.54-.48a1,1,0,0,1,.18-.53c.12-.18.25-.4.4-.66a5.16,5.16,0,0,0,.4-.88,3.23,3.23,0,0,0,.19-1.19,1.53,1.53,0,0,0-.2-.82A1.62,1.62,0,0,1,98.67,20.72Z"/><path class="cls-1" d="M107.79,45a6.21,6.21,0,0,1-2.56-.53,7.89,7.89,0,0,1-2.11-1.33,7,7,0,0,1-1.42-1.76,3.62,3.62,0,0,1-.54-1.76,1.88,1.88,0,0,1,.55-1.36,5.56,5.56,0,0,1,1.21-.91,8.26,8.26,0,0,1,1.76-.66c.15-.24.34-.55.59-.92s.45-.71.77-1.19.68-1,1.09-1.7a12.83,12.83,0,0,1,2.2-2.69,2.72,2.72,0,0,1,1.61-.75,1.29,1.29,0,0,1,.61.16,3.27,3.27,0,0,1,.58.39,2,2,0,0,1,.44.44.67.67,0,0,1,.17.36,1,1,0,0,1-.15.46c-.1.18-.2.38-.31.59a4,4,0,0,0-.29.66,1.94,1.94,0,0,0-.13.71,7.09,7.09,0,0,0,.22,1.9c.15.54.31,1,.49,1.52s.35.94.5,1.4a5.07,5.07,0,0,1,.22,1.52,6.24,6.24,0,0,1-.37,2.18,4.84,4.84,0,0,1-1.06,1.73,4.71,4.71,0,0,1-1.72,1.14A6.4,6.4,0,0,1,107.79,45Zm0-10.4q-.77,1.17-1.35,2.13c-.35.56-.66,1.08-.94,1.57a2.91,2.91,0,0,0-.42.92,13,13,0,0,0,.09,1.55,6.14,6.14,0,0,0,.31,1.34,2.76,2.76,0,0,0,.55.93,1.08,1.08,0,0,0,.84.35,1.71,1.71,0,0,0,1.45-.91,3.85,3.85,0,0,0,.61-2.16,6.45,6.45,0,0,0-.19-1.47c-.12-.51-.25-1-.38-1.52s-.26-1-.39-1.46A5.3,5.3,0,0,1,107.83,34.6Z"/><path class="cls-1" d="M142.29,17.86a1.66,1.66,0,0,1,1.1.39,1.34,1.34,0,0,1,.48,1.12,1.84,1.84,0,0,1-.24.93,3.27,3.27,0,0,1-.58.75,3.61,3.61,0,0,1-.79.55,3.11,3.11,0,0,1-.84.29,2.21,2.21,0,0,0-.44.83,10.94,10.94,0,0,0-.44,1.7c-.15.73-.32,1.66-.52,2.78l-.69,4.07A30.68,30.68,0,0,1,138,36.71,16.32,16.32,0,0,1,135.78,41a9.91,9.91,0,0,1-3.12,2.78,8.3,8.3,0,0,1-4.14,1,6.54,6.54,0,0,1-2.94-.66,8.46,8.46,0,0,1-2.29-1.61,7.83,7.83,0,0,1-1.49-2,4.5,4.5,0,0,1-.53-1.92.94.94,0,0,1,.13-.51.45.45,0,0,1,.42-.22.47.47,0,0,1,.37.14l.22.3a7.11,7.11,0,0,0,.66.86,6.26,6.26,0,0,0,1,.88,4.89,4.89,0,0,0,1.23.69,3.85,3.85,0,0,0,1.52.28,5.81,5.81,0,0,0,3-.77,8.22,8.22,0,0,0,2.36-2.11,14.14,14.14,0,0,0,1.84-3.2,31.8,31.8,0,0,0,1.37-4.07c.39-1.46.75-2.74,1.08-3.82s.63-2,.9-2.73.57-1.59.84-2.2a17.2,17.2,0,0,0-4.4,1.9,12.84,12.84,0,0,0-1.61,1.19,10.24,10.24,0,0,0-1.39,1.54,7.81,7.81,0,0,0-1,1.93,7.18,7.18,0,0,0-.36,2.34,2.87,2.87,0,0,0,.44,1.76,5.06,5.06,0,0,0,.84.91,2.3,2.3,0,0,0,.38.33.43.43,0,0,1,.2.37c0,.32-.24.48-.73.48a4,4,0,0,1-1.57-.41,6.91,6.91,0,0,1-1.76-1.13,6.63,6.63,0,0,1-1.43-1.78,4.69,4.69,0,0,1-.59-2.33,5.24,5.24,0,0,1,.65-2.56,7.64,7.64,0,0,1,1.72-2.12A12.23,12.23,0,0,1,130,22.77a27.78,27.78,0,0,1,2.93-1.32,28.68,28.68,0,0,1,3.06-1c1-.26,2-.48,2.85-.65a4.72,4.72,0,0,1,1.72-1.54A4.12,4.12,0,0,1,142.29,17.86Z"/><path class="cls-1" d="M154.64,40.24a12.94,12.94,0,0,1-2.16,2.27,12,12,0,0,1-2.59,1.54,8.33,8.33,0,0,1-3.49.7,9.68,9.68,0,0,1-2.37-.3,6.37,6.37,0,0,1-2.14-1,5,5,0,0,1-1.54-1.72,5.32,5.32,0,0,1-.58-2.6,8.44,8.44,0,0,1,.75-3.5,10.35,10.35,0,0,1,1.94-2.91,9.67,9.67,0,0,1,2.65-2,6.36,6.36,0,0,1,2.86-.73,4.61,4.61,0,0,1,1.76.31,3.92,3.92,0,0,1,1.3.83,3.68,3.68,0,0,1,.82,1.15,3,3,0,0,1,.3,1.26,2.63,2.63,0,0,1-.2,1,3.71,3.71,0,0,1-.54.9,3.13,3.13,0,0,1-.71.66,1.39,1.39,0,0,1-.75.26,2,2,0,0,1-1.3-.46,1.37,1.37,0,0,1-.57-1.08,1.21,1.21,0,0,1,.22-.77,3.14,3.14,0,0,1,.5-.53l.51-.44a.63.63,0,0,0,.24-.5.7.7,0,0,0-.31-.53,1.2,1.2,0,0,0-.76-.23,2.46,2.46,0,0,0-1.55.6,5.76,5.76,0,0,0-1.34,1.59,9.71,9.71,0,0,0-1,2.22,8.41,8.41,0,0,0-.37,2.47,3.54,3.54,0,0,0,1,2.82,3.76,3.76,0,0,0,2.58.92,4.89,4.89,0,0,0,2.27-.52,9,9,0,0,0,1.76-1.13,8.56,8.56,0,0,0,1.54-1.69,1.39,1.39,0,0,1,.21-.25l.26-.17a.63.63,0,0,1,.33-.09.74.74,0,0,1,.55.22.7.7,0,0,1,.22.51.55.55,0,0,1-.07.28c-.05.08-.1.18-.15.27A1.74,1.74,0,0,0,154.64,40.24Z"/><path class="cls-1" d="M160.94,42.37a4.75,4.75,0,0,0,1.48-.22A5.32,5.32,0,0,0,164.31,41l.51-.49.26-.26.25-.17a.57.57,0,0,1,.29-.09.76.76,0,0,1,.55.22.7.7,0,0,1,.22.51.49.49,0,0,1-.09.28c-.06.09-.11.18-.16.27a2.7,2.7,0,0,0-.22.33,8.85,8.85,0,0,1-1.72,1.58,11,11,0,0,1-2,1.06,6.86,6.86,0,0,1-2.66.48,7.81,7.81,0,0,1-2.56-.41,6.11,6.11,0,0,1-2-1.11,5.11,5.11,0,0,1-1.32-1.71,4.85,4.85,0,0,1-.48-2.16,9.3,9.3,0,0,1,.77-3.81,10.23,10.23,0,0,1,1.94-2.94,8.71,8.71,0,0,1,2.55-1.89,5.94,5.94,0,0,1,2.58-.66,3.74,3.74,0,0,1,1.57.33,4.62,4.62,0,0,1,1.29.86,4.07,4.07,0,0,1,.86,1.23,3.57,3.57,0,0,1,.31,1.43,5.61,5.61,0,0,1-.29,1.59,5.67,5.67,0,0,1-1,1.78,5.79,5.79,0,0,1-1.84,1.44,6,6,0,0,1-2.87.61,3.59,3.59,0,0,1-.84-.11c-.17,0-.36-.06-.55-.11a3,3,0,0,0,1,2.45A3.45,3.45,0,0,0,160.94,42.37Zm-3.08-4.76a3.54,3.54,0,0,0,1.87-.55,6.5,6.5,0,0,0,1.52-1.34,7.29,7.29,0,0,0,1-1.63,3.78,3.78,0,0,0,.36-1.43c0-.49-.22-.73-.66-.73a2.34,2.34,0,0,0-1.5.62,7,7,0,0,0-1.3,1.5,9.32,9.32,0,0,0-.93,1.87A4.89,4.89,0,0,0,157.86,37.61Z"/><path class="cls-1" d="M188.37,45.44a11.13,11.13,0,0,1-3.41-.53,9.06,9.06,0,0,1-3-1.61,8.19,8.19,0,0,1-2.18-2.75,8.71,8.71,0,0,1-.84-4,14.14,14.14,0,0,1,.15-2,13.64,13.64,0,0,1,.44-2.05,13.76,13.76,0,0,1-2.93-1,10.43,10.43,0,0,1-2.2-1.42A6,6,0,0,1,173,28.34a3.65,3.65,0,0,1-.48-1.76,4.88,4.88,0,0,1,.93-2.86,10.77,10.77,0,0,1,2.2-2.27,12.16,12.16,0,0,1,2.58-1.5,6,6,0,0,1,2.09-.55c.42,0,.62.14.62.41a.49.49,0,0,1-.18.4l-.51.4c-.27.2-.57.43-.9.72a5.77,5.77,0,0,0-.93,1,5.5,5.5,0,0,0-.74,1.43,6,6,0,0,0-.29,2,5.21,5.21,0,0,0,.61,2.4,4.36,4.36,0,0,0,2.32,1.92A22,22,0,0,1,183,25.35a24.39,24.39,0,0,1,3.51-3.88,17.55,17.55,0,0,1,3.88-2.64,8.78,8.78,0,0,1,3.76-1,4.41,4.41,0,0,1,2.07.52,6,6,0,0,1,1.66,1.28,6.2,6.2,0,0,1,1.1,1.67,4,4,0,0,1,.41,1.66,6.18,6.18,0,0,1-1.05,3.15,12,12,0,0,1-3,3.22,17.33,17.33,0,0,1-4.66,2.53,18.28,18.28,0,0,1-6.13,1.1,16.32,16.32,0,0,0-.44,3.7q0,3.51,1.41,5a5.26,5.26,0,0,0,4.05,1.52,6.23,6.23,0,0,0,2-.33,10.66,10.66,0,0,0,1.92-.88,10.37,10.37,0,0,0,1.74-1.3,12,12,0,0,0,1.43-1.6.59.59,0,0,1,.18-.25,1.12,1.12,0,0,1,.22-.17.63.63,0,0,1,.33-.09.75.75,0,0,1,.77.73.67.67,0,0,1-.06.28,2.19,2.19,0,0,1-.13.27l-.14.33a12,12,0,0,1-3.66,3.54A12.15,12.15,0,0,1,191.5,45,10.48,10.48,0,0,1,188.37,45.44Zm6.15-25.09a4.77,4.77,0,0,0-2.53.85,12.42,12.42,0,0,0-2.58,2.29,21.12,21.12,0,0,0-2.36,3.33,23.44,23.44,0,0,0-1.83,4,11.38,11.38,0,0,0,4.49-1,12.32,12.32,0,0,0,3.38-2.29,10.21,10.21,0,0,0,2.13-2.9,6.61,6.61,0,0,0,.73-2.85,1.38,1.38,0,0,0-.37-1A1.37,1.37,0,0,0,194.52,20.35Z"/><path class="cls-1" d="M205.91,41a1.28,1.28,0,0,0,.33,1,1.18,1.18,0,0,0,.88.33,2.65,2.65,0,0,0,1.45-.47,7,7,0,0,0,1.26-1.1A8.33,8.33,0,0,0,211,39.14a.59.59,0,0,1,.18-.25,1.12,1.12,0,0,1,.22-.17.63.63,0,0,1,.33-.09.74.74,0,0,1,.53.22.68.68,0,0,1,.24.51.87.87,0,0,1,0,.28c0,.08-.08.18-.13.27s-.1.21-.15.33a12.81,12.81,0,0,1-1.79,2.27,10.19,10.19,0,0,1-2,1.54,4.8,4.8,0,0,1-2.51.7,5.61,5.61,0,0,1-1.9-.3,4.91,4.91,0,0,1-1.47-.78,3.5,3.5,0,0,1-.95-1.16,3.13,3.13,0,0,1-.33-1.43,6.8,6.8,0,0,1,.37-2.27,18.65,18.65,0,0,1,.78-1.94c.28-.58.55-1.1.79-1.55a2.5,2.5,0,0,0,.37-1.12.48.48,0,0,0-.35-.44,6.56,6.56,0,0,0-.75-.26c-.32-.07-.68-.13-1.1-.18a39.53,39.53,0,0,1-2,4.38c-.64,1.13-1.15,2-1.54,2.54a2,2,0,0,1-.28.33.67.67,0,0,1-.53.22.74.74,0,0,1-.53-.24.72.72,0,0,1-.24-.53.86.86,0,0,1,.17-.49,3.5,3.5,0,0,0,.24-.39c.34-.48.82-1.26,1.44-2.32a19.93,19.93,0,0,0,1.74-4.2,2.31,2.31,0,0,1-.62-.66,3.47,3.47,0,0,1-.4-.84,3.38,3.38,0,0,1-.19-1.21,2.83,2.83,0,0,1,.2-1,3,3,0,0,1,.54-.86,3.39,3.39,0,0,1,.69-.59,1.46,1.46,0,0,1,.7-.22,1.8,1.8,0,0,1,.77.2,4.19,4.19,0,0,1,.73.48,2.69,2.69,0,0,1,.55.62,1.2,1.2,0,0,1,.22.61,2.69,2.69,0,0,1-.24,1.21,2,2,0,0,0-.24.91.62.62,0,0,0,.44.59,2.94,2.94,0,0,0,1.1.18,6.06,6.06,0,0,0,1-.07c.29-.05.54-.11.76-.17l.62-.16a2.45,2.45,0,0,1,.62-.07,1.34,1.34,0,0,1,1.08.51,1.9,1.9,0,0,1,.42,1.24,3.53,3.53,0,0,1-.42,1.49l-.93,1.88a23.24,23.24,0,0,0-.94,2.15A6.22,6.22,0,0,0,205.91,41Z"/><path class="cls-1" d="M225.29,40.24a9.26,9.26,0,0,1-2,2.27,11.11,11.11,0,0,1-2.54,1.54,8.71,8.71,0,0,1-3.61.7,7.76,7.76,0,0,1-2.56-.41,6.06,6.06,0,0,1-2-1.11,5.24,5.24,0,0,1-1.32-1.71,5,5,0,0,1-.47-2.16,9.14,9.14,0,0,1,.77-3.81,10.23,10.23,0,0,1,1.94-2.94A8.8,8.8,0,0,1,216,30.72a6,6,0,0,1,2.58-.66,3.79,3.79,0,0,1,1.58.33,4.57,4.57,0,0,1,1.28.86,3.9,3.9,0,0,1,.86,1.23,3.41,3.41,0,0,1,.31,1.43,5.27,5.27,0,0,1-.29,1.59,5.41,5.41,0,0,1-2.8,3.22,6.08,6.08,0,0,1-2.88.61,3.59,3.59,0,0,1-.84-.11l-.55-.11a3.14,3.14,0,0,0,3.22,3.4,5.11,5.11,0,0,0,2.35-.53,8.91,8.91,0,0,0,1.79-1.15,7.31,7.31,0,0,0,1.5-1.69.75.75,0,0,1,.19-.25,1.12,1.12,0,0,1,.22-.17.58.58,0,0,1,.33-.09.76.76,0,0,1,.53.22.68.68,0,0,1,.24.51.67.67,0,0,1-.06.28,2.19,2.19,0,0,1-.13.27C225.38,40,225.34,40.12,225.29,40.24Zm-9.86-2.63a3.51,3.51,0,0,0,1.87-.55,6.31,6.31,0,0,0,1.52-1.34,6.94,6.94,0,0,0,1-1.63,3.82,3.82,0,0,0,.37-1.43c0-.49-.22-.73-.66-.73a2.34,2.34,0,0,0-1.51.62,7.31,7.31,0,0,0-1.3,1.5,9.88,9.88,0,0,0-.93,1.87A5.13,5.13,0,0,0,215.43,37.61Z"/><path class="cls-1" d="M242.68,40.24a12.37,12.37,0,0,1-1.79,2.27,9.9,9.9,0,0,1-2,1.54,4.8,4.8,0,0,1-2.51.7,4.29,4.29,0,0,1-2.6-.79,3.21,3.21,0,0,1-1.24-2.33A9.83,9.83,0,0,1,231,43.21a10.74,10.74,0,0,1-1.64,1.06,4.26,4.26,0,0,1-2,.48,3.58,3.58,0,0,1-1.41-.28,3.27,3.27,0,0,1-1.18-.79,4,4,0,0,1-.78-1.2,3.88,3.88,0,0,1-.3-1.54,10.79,10.79,0,0,1,.76-3.92,14,14,0,0,1,1.95-3.5A10.7,10.7,0,0,1,229.1,31a5.6,5.6,0,0,1,3-1,5.24,5.24,0,0,1,3.11.88,4.19,4.19,0,0,1,.88.84,4.41,4.41,0,0,1,.86.09,2.79,2.79,0,0,1,.84.3,1.84,1.84,0,0,1,.64.53,1.22,1.22,0,0,1,.26.8,4.53,4.53,0,0,1-.33,1.32c-.22.61-.46,1.29-.73,2s-.51,1.52-.73,2.31a8.07,8.07,0,0,0-.33,2.11,1,1,0,0,0,.27.73,1,1,0,0,0,.75.29,2.65,2.65,0,0,0,1.45-.47,6.38,6.38,0,0,0,1.26-1.1,7.93,7.93,0,0,0,1.21-1.58.7.7,0,0,1,.18-.25,1.54,1.54,0,0,1,.22-.17.63.63,0,0,1,.33-.09.73.73,0,0,1,.53.22.68.68,0,0,1,.24.51.87.87,0,0,1,0,.28c0,.08-.08.18-.13.27S242.73,40.12,242.68,40.24Zm-8.49-6.48a1.61,1.61,0,0,0-.39-1.19,1.27,1.27,0,0,0-.93-.39,2.41,2.41,0,0,0-1.65.85,9.09,9.09,0,0,0-1.52,2.07,14.35,14.35,0,0,0-1.12,2.65,8.94,8.94,0,0,0-.44,2.57c0,1.09.36,1.64,1.06,1.64a2.37,2.37,0,0,0,1.53-.88,11.26,11.26,0,0,0,1.62-2.16,16.32,16.32,0,0,0,1.31-2.69A7.24,7.24,0,0,0,234.19,33.76Z"/><path class="cls-1" d="M261.43,44.75a4.89,4.89,0,0,1-3.36-1.12,3.65,3.65,0,0,1-1.29-2.91,8,8,0,0,1,.3-2.27,16.28,16.28,0,0,1,.64-1.87l.64-1.58a3.73,3.73,0,0,0,.29-1.35.69.69,0,0,0-.18-.53A.69.69,0,0,0,258,33c-.41,0-1,.39-1.68,1.16a11.33,11.33,0,0,0-2,3.42,21.69,21.69,0,0,0-1.17,3.57,13.15,13.15,0,0,0-.37,2.91c0,.32-.07.52-.2.61a1.21,1.21,0,0,1-.6.13,4.87,4.87,0,0,1-2.46-.57,1.66,1.66,0,0,1-1-1.45,9.89,9.89,0,0,1,.33-2.43q.33-1.3.75-2.55t.75-2.31a6.05,6.05,0,0,0,.33-1.72c0-.51-.22-.77-.66-.77a2.53,2.53,0,0,0-1.52.74,7.19,7.19,0,0,0-1.61,2.14,15.18,15.18,0,0,0-1.26,3.48,19.73,19.73,0,0,0-.51,4.7c0,.32-.07.52-.2.61a1.23,1.23,0,0,1-.61.13,4.83,4.83,0,0,1-2.45-.57,1.66,1.66,0,0,1-1-1.45,16.26,16.26,0,0,1,.35-3.33c.23-1.15.5-2.25.82-3.3s.64-2,1-2.89.6-1.57.82-2.09a1,1,0,0,1,1-.69,2.58,2.58,0,0,1,1.07.33,4.6,4.6,0,0,1,1.5,1.64A12,12,0,0,1,249,31.23a11.78,11.78,0,0,1,1.63-.8,4.74,4.74,0,0,1,1.85-.37,2.44,2.44,0,0,1,1.9.77,5.44,5.44,0,0,1,1.1,1.94,17.48,17.48,0,0,1,1.76-1.35,10.19,10.19,0,0,1,1.74-.94,5,5,0,0,1,2-.42,2.24,2.24,0,0,1,1,.24,3.39,3.39,0,0,1,.89.62,3.11,3.11,0,0,1,.64.86,2.12,2.12,0,0,1,.24.95,4.86,4.86,0,0,1-.35,1.69c-.23.63-.49,1.31-.78,2a23.34,23.34,0,0,0-.79,2.22,7.62,7.62,0,0,0-.35,2.23,1.54,1.54,0,0,0,.31,1,1,1,0,0,0,.86.38,1.12,1.12,0,0,0,.59-.18l.59-.4a4.12,4.12,0,0,0,.62-.63,2.63,2.63,0,0,1,.33-.34.64.64,0,0,1,.44-.17.79.79,0,0,1,.55.26.76.76,0,0,1,.25.55.88.88,0,0,1-.22.51,3.31,3.31,0,0,0-.18.29,7.4,7.4,0,0,1-1.21,1.28,5.88,5.88,0,0,1-1.35.9A3.55,3.55,0,0,1,261.43,44.75Z"/><path class="cls-1" d="M285.13,43.46a5.86,5.86,0,0,0,2.49-.53,7.89,7.89,0,0,0,2.13-1.41,9.6,9.6,0,0,0,1.63-2,9,9,0,0,0,1-2.17,16.69,16.69,0,0,1-2.12.82,6.45,6.45,0,0,1-1.87.31,3.16,3.16,0,0,1-2-.53,1.65,1.65,0,0,1-.64-1.34,2.71,2.71,0,0,1,.69-1.72,7.33,7.33,0,0,1,1.72-1.48,10.27,10.27,0,0,1,2.2-1,7.06,7.06,0,0,1,2.13-.38,5.5,5.5,0,0,1,1.61.22,3.07,3.07,0,0,1,1.24.69,7.34,7.34,0,0,0,1-1.53,3.3,3.3,0,0,0,.37-1.43,1,1,0,0,0-.28-.79,1,1,0,0,0-.71-.28,1.88,1.88,0,0,0-.7.15,7.32,7.32,0,0,0-.69.33l-.59.33a.89.89,0,0,1-.36.15.84.84,0,0,1-.44-.11c-.13-.08-.19-.23-.19-.48s.17-.42.52-.75a7.36,7.36,0,0,1,1.28-1,10.13,10.13,0,0,1,1.68-.84,4.56,4.56,0,0,1,1.72-.37,2.39,2.39,0,0,1,1.67.61,2.1,2.1,0,0,1,.68,1.66,5.51,5.51,0,0,1-1.16,3.17,15.71,15.71,0,0,1-2.83,3,2.16,2.16,0,0,1,0,.35v.35a6.69,6.69,0,0,1-1,3.4,12.52,12.52,0,0,1-2.79,3.21,15.14,15.14,0,0,1-4,2.38,12.42,12.42,0,0,1-4.76.93,13.41,13.41,0,0,1-3.07-.36,8.72,8.72,0,0,1-2.77-1.18,6.42,6.42,0,0,1-2-2.07,5.53,5.53,0,0,1-.79-3,7.24,7.24,0,0,1,.33-2.23,8.42,8.42,0,0,1,.86-1.87,7.87,7.87,0,0,1,1.23-1.52A14.8,14.8,0,0,1,278.91,32a16.62,16.62,0,0,1,3.88-2.05,6.18,6.18,0,0,1-1.32-1.13,6.73,6.73,0,0,1-.94-1.34,3.78,3.78,0,0,1-.42-1.81,11.85,11.85,0,0,1-3.68-1.36A2.54,2.54,0,0,1,275,22.08a2.45,2.45,0,0,1,.47-1.4,6.36,6.36,0,0,1,1.14-1.24,6.9,6.9,0,0,1,1.35-.9,2.75,2.75,0,0,1,1.1-.35.3.3,0,0,1,.26.11.4.4,0,0,1,.07.22,1.39,1.39,0,0,1-.33.64,1.88,1.88,0,0,0-.33,1.12,2.77,2.77,0,0,0,.52,1.63,4.83,4.83,0,0,0,1.42,1.34,7.65,7.65,0,0,1,1.67-2.13,12.44,12.44,0,0,1,2.42-1.72,12.56,12.56,0,0,1,2.84-1.13,11.19,11.19,0,0,1,2.93-.41,6.82,6.82,0,0,1,1.84.24,5.35,5.35,0,0,1,1.51.66,3.17,3.17,0,0,1,1,1,2.47,2.47,0,0,1,.37,1.33,2.88,2.88,0,0,1-.79,1.94,6.61,6.61,0,0,1-2.12,1.6,13.2,13.2,0,0,1-3.13,1.06,18,18,0,0,1-3.81.39h-.66a5.25,5.25,0,0,0,.13,1.24,4.82,4.82,0,0,0,.31.95,3.69,3.69,0,0,0,.44.84c.19,0,.42-.06.69-.11l.79-.07c.31,0,.65,0,1,0,1.44,0,2.17.43,2.17,1.29a1.57,1.57,0,0,1-.64,1.11,2.49,2.49,0,0,1-1.71.57,7.55,7.55,0,0,1-1.21-.09,5.25,5.25,0,0,1-.95-.24,4.51,4.51,0,0,1-.8-.36,11.29,11.29,0,0,0-2.42,1.9,11,11,0,0,0-1.67,2.34,6.79,6.79,0,0,0-.75,3.26,4.58,4.58,0,0,0,1.34,3.54A5.15,5.15,0,0,0,285.13,43.46Zm5.28-24a4.09,4.09,0,0,0-1.69.37,6,6,0,0,0-1.57,1,7.38,7.38,0,0,0-1.32,1.54,6.81,6.81,0,0,0-.88,2,14.72,14.72,0,0,0,2.91-.26,9.39,9.39,0,0,0,2.33-.73,4.52,4.52,0,0,0,1.53-1.13,2.22,2.22,0,0,0,.55-1.47,1,1,0,0,0-.55-.93A2.39,2.39,0,0,0,290.41,19.44Zm-.92,17.14a4.15,4.15,0,0,0,1.5-.31,9.34,9.34,0,0,0,1.65-.86,2.06,2.06,0,0,0-.49-1.43,1.58,1.58,0,0,0-1-.37,1.74,1.74,0,0,0-.75.22,4.63,4.63,0,0,0-.81.55,3.65,3.65,0,0,0-.64.73,1.45,1.45,0,0,0-.25.77C288.65,36.35,288.93,36.58,289.49,36.58Z"/><path class="cls-1" d="M343.8,42.29a2.63,2.63,0,0,0,1.45-.47,6.74,6.74,0,0,0,1.27-1.1,8.29,8.29,0,0,0,1.2-1.58.75.75,0,0,1,.19-.25,1.12,1.12,0,0,1,.22-.17.58.58,0,0,1,.33-.09.76.76,0,0,1,.53.22.68.68,0,0,1,.24.51.67.67,0,0,1-.06.28c0,.08-.08.18-.13.27a2.52,2.52,0,0,0-.14.33,12.85,12.85,0,0,1-1.8,2.27,10.11,10.11,0,0,1-2,1.54,4.82,4.82,0,0,1-2.51.7,5,5,0,0,1-1.89-.37,5.59,5.59,0,0,1-1.67-1,5.31,5.31,0,0,1-1.19-1.6,4.69,4.69,0,0,1-.45-2.07,16.33,16.33,0,0,1,.34-3.11c.24-1.17.55-2.39.94-3.64s.82-2.53,1.3-3.81,1-2.5,1.44-3.65c-.48.64-1,1.42-1.61,2.36s-1.18,2-1.77,3-1.19,2.2-1.78,3.34-1.12,2.21-1.61,3.22-.92,1.9-1.3,2.67-.65,1.35-.83,1.74a3.83,3.83,0,0,1-.73,1.1,7.92,7.92,0,0,1-1,.92,7,7,0,0,1-1,.64,1.77,1.77,0,0,1-.68.24,1.54,1.54,0,0,1-.9-.33,3.65,3.65,0,0,1-.86-.92,5.43,5.43,0,0,1-.66-1.32,4.7,4.7,0,0,1-.26-1.57c0-.37,0-.88.08-1.54s.11-1.4.18-2.23.16-1.71.26-2.62.18-1.82.25-2.69.14-1.71.19-2.48.07-1.41.07-1.92l-1.12,3.55q-.6,2-1.35,3.9c-.5,1.31-1.05,2.57-1.65,3.79a21.15,21.15,0,0,1-1.94,3.25,10.54,10.54,0,0,1-2.25,2.27,4.41,4.41,0,0,1-2.57.86,8.41,8.41,0,0,1-3.22-.64,11.08,11.08,0,0,1-2.73-1.6,8.6,8.6,0,0,1-1.89-2,3.88,3.88,0,0,1-.69-2.05,3.34,3.34,0,0,1,.69-2,6.65,6.65,0,0,1,1.71-1.59,9.82,9.82,0,0,1,2.1-1,5.84,5.84,0,0,1,1.91-.38c.61,0,.91.18.91.55a.82.82,0,0,1-.16.53,4.56,4.56,0,0,1-.57.53,5.29,5.29,0,0,0-.7.64,8.32,8.32,0,0,0-.76,1,5.13,5.13,0,0,0-.61,1.19,4.06,4.06,0,0,0-.24,1.39,2.61,2.61,0,0,0,.75,1.93,2.48,2.48,0,0,0,1.82.75,3.61,3.61,0,0,0,2.29-1.17,18.49,18.49,0,0,0,2.54-3,37.93,37.93,0,0,0,2.49-4.15q1.22-2.31,2.16-4.55a37.08,37.08,0,0,0,1.52-4.15,11.43,11.43,0,0,0,.57-3.06,1.69,1.69,0,0,0-.44-1.15,1.87,1.87,0,0,0-1.46-.5,4.91,4.91,0,0,0-2,.57,10,10,0,0,0-4.12,3.72,4.83,4.83,0,0,0-.77,2.56,3.38,3.38,0,0,0,.3,1.47,6.17,6.17,0,0,0,.62,1.06,7.27,7.27,0,0,0,.62.73c.2.2.3.35.3.48,0,.49-.26.73-.77.73A4.94,4.94,0,0,1,317,31a7.25,7.25,0,0,1-1.93-1.08,6.67,6.67,0,0,1-1.53-1.61,3.47,3.47,0,0,1-.63-2,5.25,5.25,0,0,1,1.19-3.23,11.9,11.9,0,0,1,3-2.69,16.33,16.33,0,0,1,4-1.83,14.15,14.15,0,0,1,4.19-.68,6.17,6.17,0,0,1,2,.39,7.22,7.22,0,0,1,2.1,1.15,6.66,6.66,0,0,1,1.67,2,5.55,5.55,0,0,1,.68,2.77c0,1.19-.05,2.56-.15,4.08s-.2,3-.31,4.47-.21,2.76-.31,3.92-.15,2-.15,2.43c.17-.29.44-.78.81-1.48s.8-1.53,1.3-2.51,1.07-2,1.7-3.22,1.31-2.38,2-3.61,1.44-2.46,2.21-3.68,1.56-2.37,2.36-3.44a5.93,5.93,0,0,1,1.51-1.49,8.16,8.16,0,0,1,1.77-.89,9.14,9.14,0,0,1,1.94-.46,15,15,0,0,1,2-.13c.71,0,1.06.17,1.06.51a1,1,0,0,1-.2.48,6.86,6.86,0,0,1-.71.84,10.1,10.1,0,0,0-1,1.69c-.43.83-.89,1.82-1.39,3s-1,2.42-1.54,3.79-1,2.74-1.45,4.12a41,41,0,0,0-1.06,4,16.6,16.6,0,0,0-.4,3.36,2.5,2.5,0,0,0,.58,1.85A2.09,2.09,0,0,0,343.8,42.29Z"/><path class="cls-1" d="M365.19,40.24a6,6,0,0,1-1.57,1.58,8.51,8.51,0,0,1-2,1.1,7.63,7.63,0,0,1-2.8.47,9.31,9.31,0,0,1-1.43-.11,6.73,6.73,0,0,1-4.17,1.47,6,6,0,0,1-2.18-.41,5.78,5.78,0,0,1-1.83-1.09A5.3,5.3,0,0,1,348,41.6a4.7,4.7,0,0,1-.46-2,10,10,0,0,1,.79-4.08,9.62,9.62,0,0,1,2-3,8.93,8.93,0,0,1,2.75-1.83,7.72,7.72,0,0,1,2.93-.62,5.87,5.87,0,0,1,2.12.37,4.62,4.62,0,0,1,1.71,1.08A5.3,5.3,0,0,1,361,33.23a5.78,5.78,0,0,1,.42,2.25,8.84,8.84,0,0,1-.6,3.08,11.66,11.66,0,0,1-1.67,3l.28.06h.31a3.75,3.75,0,0,0,1.72-.38,7.53,7.53,0,0,0,1.36-.86A9.77,9.77,0,0,0,364,39.14a.85.85,0,0,1,.18-.25,1.54,1.54,0,0,1,.22-.17.63.63,0,0,1,.33-.09.73.73,0,0,1,.53.22.68.68,0,0,1,.24.51.87.87,0,0,1,0,.28c0,.08-.08.18-.13.27Zm-13.37.26a3.23,3.23,0,0,0,.46,1.79,1.46,1.46,0,0,0,1.3.7,1.84,1.84,0,0,0,1.14-.44,1.09,1.09,0,0,1-.62-.88,1.16,1.16,0,0,1,.2-.62,2.53,2.53,0,0,1,.49-.59,3.33,3.33,0,0,1,.61-.42,1.13,1.13,0,0,1,.53-.16,1.25,1.25,0,0,1,.4.07,15.47,15.47,0,0,0,.84-3,14.82,14.82,0,0,0,.3-2.76,3,3,0,0,0-.41-1.78,1.24,1.24,0,0,0-1-.53,2.13,2.13,0,0,0-1.36.64,6.67,6.67,0,0,0-1.37,1.79,12.06,12.06,0,0,0-1.06,2.71A13.14,13.14,0,0,0,351.82,40.5Z"/><path class="cls-1" d="M373.29,41a1.28,1.28,0,0,0,.33,1,1.18,1.18,0,0,0,.88.33,2.62,2.62,0,0,0,1.44-.47,6.74,6.74,0,0,0,1.27-1.1,7.9,7.9,0,0,0,1.2-1.58.75.75,0,0,1,.19-.25,1.12,1.12,0,0,1,.22-.17.6.6,0,0,1,.33-.09.76.76,0,0,1,.53.22.68.68,0,0,1,.24.51.67.67,0,0,1-.06.28c0,.08-.08.18-.13.27s-.09.21-.14.33a12.85,12.85,0,0,1-1.8,2.27,9.83,9.83,0,0,1-2,1.54,4.82,4.82,0,0,1-2.51.7,5.67,5.67,0,0,1-1.91-.3,4.74,4.74,0,0,1-1.46-.78,3.38,3.38,0,0,1-.95-1.16,3.13,3.13,0,0,1-.33-1.43,7.06,7.06,0,0,1,.36-2.27c.25-.7.51-1.35.79-1.94s.54-1.1.79-1.55a2.59,2.59,0,0,0,.36-1.12.47.47,0,0,0-.34-.44,7.51,7.51,0,0,0-.76-.26c-.31-.07-.68-.13-1.09-.18a37.63,37.63,0,0,1-2,4.38c-.63,1.13-1.15,2-1.54,2.54a2.46,2.46,0,0,1-.27.33.68.68,0,0,1-.53.22.83.83,0,0,1-.77-.77.84.84,0,0,1,.16-.49,3.5,3.5,0,0,0,.24-.39c.34-.48.83-1.26,1.45-2.32a20.48,20.48,0,0,0,1.74-4.2,2.34,2.34,0,0,1-.63-.66,3.89,3.89,0,0,1-.4-.84,3.63,3.63,0,0,1-.18-1.21,2.83,2.83,0,0,1,.2-1,2.77,2.77,0,0,1,.53-.86,3.18,3.18,0,0,1,.7-.59,1.39,1.39,0,0,1,.69-.22,1.77,1.77,0,0,1,.77.2,3.84,3.84,0,0,1,.73.48,2.48,2.48,0,0,1,.55.62,1.2,1.2,0,0,1,.22.61,2.84,2.84,0,0,1-.23,1.21,2,2,0,0,0-.24.91.61.61,0,0,0,.44.59,2.91,2.91,0,0,0,1.1.18,6.14,6.14,0,0,0,1-.07c.28-.05.53-.11.75-.17l.62-.16a2.59,2.59,0,0,1,.63-.07,1.34,1.34,0,0,1,1.08.51,1.9,1.9,0,0,1,.42,1.24,3.53,3.53,0,0,1-.42,1.49c-.28.57-.6,1.2-.94,1.88a23.2,23.2,0,0,0-.93,2.15A6.22,6.22,0,0,0,373.29,41Z"/><path class="cls-1" d="M385.89,42.37a4.75,4.75,0,0,0,1.48-.22A5.32,5.32,0,0,0,389.26,41l.51-.49.26-.26.25-.17a.57.57,0,0,1,.29-.09.76.76,0,0,1,.55.22.7.7,0,0,1,.22.51.49.49,0,0,1-.09.28c-.06.09-.11.18-.16.27a2.7,2.7,0,0,0-.22.33,9.15,9.15,0,0,1-1.72,1.58,11,11,0,0,1-2,1.06,6.86,6.86,0,0,1-2.66.48,7.81,7.81,0,0,1-2.56-.41,6.11,6.11,0,0,1-2-1.11,5,5,0,0,1-1.32-1.71,4.85,4.85,0,0,1-.48-2.16,9.3,9.3,0,0,1,.77-3.81,10.23,10.23,0,0,1,1.94-2.94,8.71,8.71,0,0,1,2.55-1.89,5.94,5.94,0,0,1,2.58-.66,3.74,3.74,0,0,1,1.57.33,4.62,4.62,0,0,1,1.29.86,4.07,4.07,0,0,1,.86,1.23,3.57,3.57,0,0,1,.31,1.43,5.61,5.61,0,0,1-.29,1.59,5.51,5.51,0,0,1-1,1.78,5.63,5.63,0,0,1-1.83,1.44,6,6,0,0,1-2.87.61,3.59,3.59,0,0,1-.84-.11c-.18,0-.36-.06-.55-.11a3,3,0,0,0,1,2.45A3.45,3.45,0,0,0,385.89,42.37Zm-3.08-4.76a3.54,3.54,0,0,0,1.87-.55,6.5,6.5,0,0,0,1.52-1.34,7.23,7.23,0,0,0,1-1.63,3.64,3.64,0,0,0,.37-1.43c0-.49-.22-.73-.66-.73a2.34,2.34,0,0,0-1.5.62,7,7,0,0,0-1.3,1.5,9.32,9.32,0,0,0-.93,1.87A4.89,4.89,0,0,0,382.81,37.61Z"/><path class="cls-2" d="M37.14,44.75A7.44,7.44,0,0,1,33.68,44a4.06,4.06,0,0,1-2-2.27,8,8,0,0,1-.44-2.14c-.07-.84-.11-1.85-.11-3A4.37,4.37,0,0,0,30.92,35a3.07,3.07,0,0,0-.51-.91,19.23,19.23,0,0,1-2,.11h-.73a32.88,32.88,0,0,1-1.61,5,12.57,12.57,0,0,1-2,3.24,6.54,6.54,0,0,1-2.36,1.76,7.41,7.41,0,0,1-2.82.53,9,9,0,0,1-3.52-.68,10.31,10.31,0,0,1-2.77-1.67,8.07,8.07,0,0,1-1.79-2.14,4.38,4.38,0,0,1-.64-2.11,3.46,3.46,0,0,1,.69-2.08,6.8,6.8,0,0,1,1.71-1.63,9,9,0,0,1,2.1-1.06A5.89,5.89,0,0,1,16.6,33a1.12,1.12,0,0,1,.66.18.52.52,0,0,1,.25.41.62.62,0,0,1-.12.42l-.54.42a5.51,5.51,0,0,0-.75.73,7.8,7.8,0,0,0-.77,1.06,7.35,7.35,0,0,0-.58,1.27,3.94,3.94,0,0,0-.24,1.33,3.6,3.6,0,0,0,.24,1.32,3.81,3.81,0,0,0,.66,1.12,3.21,3.21,0,0,0,1,.79,3,3,0,0,0,1.32.29c1.13,0,2.17-.77,3.13-2.31a26.86,26.86,0,0,0,2.73-7.43c.32-1.34.61-2.5.86-3.46s.51-1.8.76-2.51A11.29,11.29,0,0,1,26,24.8a8.09,8.09,0,0,1,1-1.41,4.32,4.32,0,0,1,1.13-.78,11.94,11.94,0,0,1,1.4-.59,10.22,10.22,0,0,1,1.26-.35,5.66,5.66,0,0,1,.75-.11c.46,0,.7.17.7.52a.68.68,0,0,1-.2.33,6,6,0,0,0-.5.62c-.19.27-.42.6-.68,1a7.93,7.93,0,0,0-.71,1.43q-.25.66-.48,1.2c-.14.37-.29.79-.44,1.27s-.31,1-.49,1.68-.39,1.46-.61,2.44a10.47,10.47,0,0,0,3.36-.62,9.69,9.69,0,0,0,2.8-1.58,7.7,7.7,0,0,0,1.92-2.31,5.8,5.8,0,0,0,.72-2.82,4.21,4.21,0,0,0-1.56-3.46Q33.81,20,30.3,20a18,18,0,0,0-4.56.53A10.88,10.88,0,0,0,22.37,22a6.82,6.82,0,0,0-2.09,2.17,5.06,5.06,0,0,0-.72,2.61,3,3,0,0,0,.3,1.41,4.82,4.82,0,0,0,.62,1,6,6,0,0,0,.62.62q.3.24.3.42c0,.46-.26.7-.77.7a5.71,5.71,0,0,1-1.74-.33A7.54,7.54,0,0,1,17,29.6a6.29,6.29,0,0,1-1.54-1.46,3.26,3.26,0,0,1-.64-2,4.83,4.83,0,0,1,1.34-3.24,11.48,11.48,0,0,1,3.52-2.64,22,22,0,0,1,5-1.78,24.93,24.93,0,0,1,5.73-.66,20.44,20.44,0,0,1,4.94.55,12,12,0,0,1,3.61,1.49,6.5,6.5,0,0,1,2.2,2.23,5.46,5.46,0,0,1,.75,2.77,6.18,6.18,0,0,1-.68,2.83,8.73,8.73,0,0,1-1.83,2.44,13,13,0,0,1-2.69,1.94,17.18,17.18,0,0,1-3.22,1.36,3.26,3.26,0,0,1,1,1,4.84,4.84,0,0,1,.68,2.11A14.44,14.44,0,0,0,36.27,41a2.22,2.22,0,0,0,2.08,1.33,2.65,2.65,0,0,0,1.45-.47,6.38,6.38,0,0,0,1.26-1.1,7.93,7.93,0,0,0,1.21-1.58.75.75,0,0,1,.19-.25.88.88,0,0,1,.22-.17.58.58,0,0,1,.33-.09.76.76,0,0,1,.53.22.71.71,0,0,1,.23.51.66.66,0,0,1-.05.28c0,.08-.08.18-.13.27s-.1.21-.15.33a12.37,12.37,0,0,1-1.79,2.27,9.9,9.9,0,0,1-2,1.54A4.8,4.8,0,0,1,37.14,44.75Z"/><path class="cls-2" d="M59.74,40.24a6,6,0,0,1-1.57,1.58,8.51,8.51,0,0,1-2,1.1,7.67,7.67,0,0,1-2.8.47,9.22,9.22,0,0,1-1.43-.11,6.73,6.73,0,0,1-4.17,1.47,6,6,0,0,1-2.18-.41,5.78,5.78,0,0,1-1.83-1.09,5.3,5.3,0,0,1-1.25-1.65,4.7,4.7,0,0,1-.46-2,10,10,0,0,1,.79-4.08,9.46,9.46,0,0,1,2-3,8.93,8.93,0,0,1,2.75-1.83,7.72,7.72,0,0,1,2.93-.62,5.91,5.91,0,0,1,2.12.37,4.62,4.62,0,0,1,1.71,1.08,5.3,5.3,0,0,1,1.13,1.72,5.78,5.78,0,0,1,.42,2.25,8.84,8.84,0,0,1-.6,3.08,11.66,11.66,0,0,1-1.67,3l.28.06h.31A3.75,3.75,0,0,0,56,41.25a7.9,7.9,0,0,0,1.36-.86,9.77,9.77,0,0,0,1.24-1.25.7.7,0,0,1,.18-.25,1.54,1.54,0,0,1,.22-.17.63.63,0,0,1,.33-.09.73.73,0,0,1,.53.22.68.68,0,0,1,.24.51.87.87,0,0,1,0,.28c0,.08-.08.18-.13.27S59.79,40.12,59.74,40.24Zm-13.37.26a3.23,3.23,0,0,0,.46,1.79,1.46,1.46,0,0,0,1.3.7,1.84,1.84,0,0,0,1.14-.44,1.09,1.09,0,0,1-.62-.88,1.16,1.16,0,0,1,.2-.62,2.53,2.53,0,0,1,.49-.59A3.33,3.33,0,0,1,50,40a1.13,1.13,0,0,1,.53-.16,1.25,1.25,0,0,1,.4.07,15.47,15.47,0,0,0,.84-3A14.73,14.73,0,0,0,52,34.24a3,3,0,0,0-.4-1.78,1.24,1.24,0,0,0-1-.53,2.13,2.13,0,0,0-1.36.64,6.47,6.47,0,0,0-1.37,1.79,12.06,12.06,0,0,0-1.06,2.71A12.73,12.73,0,0,0,46.37,40.5Z"/><path class="cls-2" d="M74.72,40.24a9,9,0,0,1-2.38,2.38,13.4,13.4,0,0,1-3.2,1.65,13.69,13.69,0,0,1-4.78.73,6.23,6.23,0,0,1-2.57-.53,8,8,0,0,1-2.1-1.33,6.88,6.88,0,0,1-1.43-1.76,3.71,3.71,0,0,1-.53-1.76,1.84,1.84,0,0,1,.55-1.36,5.33,5.33,0,0,1,1.21-.91,8,8,0,0,1,1.75-.66l.59-.92c.2-.31.45-.71.77-1.19s.68-1,1.1-1.7a12.23,12.23,0,0,1,2.2-2.69,2.69,2.69,0,0,1,1.61-.75,1.29,1.29,0,0,1,.6.16,3.76,3.76,0,0,1,.59.39,2.29,2.29,0,0,1,.44.44.64.64,0,0,1,.16.36,1.08,1.08,0,0,1-.14.46l-.32.59a5,5,0,0,0-.29.66,2.17,2.17,0,0,0-.13.71,7.52,7.52,0,0,0,.22,1.9,14.26,14.26,0,0,0,.5,1.52c.18.48.35.94.49,1.4a4.77,4.77,0,0,1,.22,1.52,4.69,4.69,0,0,1-.13,1.22,4.09,4.09,0,0,1-.31.86,3.57,3.57,0,0,1-.4.7,7.56,7.56,0,0,0,1.92-.82,11.18,11.18,0,0,0,1.45-1,9.07,9.07,0,0,0,1.17-1.32.7.7,0,0,1,.18-.25,1.54,1.54,0,0,1,.22-.17.63.63,0,0,1,.33-.09.73.73,0,0,1,.53.22.68.68,0,0,1,.24.51.87.87,0,0,1,0,.28c0,.08-.08.18-.13.27S74.77,40.12,74.72,40.24ZM64.39,34.6q-.77,1.17-1.35,2.13L62.1,38.3a2.91,2.91,0,0,0-.42.92,11.21,11.21,0,0,0,.1,1.55,5.61,5.61,0,0,0,.31,1.34,2.61,2.61,0,0,0,.55.93,1.08,1.08,0,0,0,.84.35,1.74,1.74,0,0,0,1.45-.91,3.85,3.85,0,0,0,.6-2.16,6.42,6.42,0,0,0-.18-1.47c-.13-.51-.25-1-.39-1.52l-.38-1.46A4.89,4.89,0,0,1,64.39,34.6Z"/><path class="cls-2" d="M77.73,40.9a1.54,1.54,0,0,0,.31,1,1,1,0,0,0,.86.38,2.59,2.59,0,0,0,1.44-.47,6.74,6.74,0,0,0,1.27-1.1,8.33,8.33,0,0,0,1.21-1.58.59.59,0,0,1,.18-.25,1.12,1.12,0,0,1,.22-.17.63.63,0,0,1,.33-.09.76.76,0,0,1,.53.22.68.68,0,0,1,.24.51.67.67,0,0,1-.06.28,2.19,2.19,0,0,1-.13.27l-.14.33a12.85,12.85,0,0,1-1.8,2.27,9.83,9.83,0,0,1-2,1.54,4.82,4.82,0,0,1-2.51.7,4.92,4.92,0,0,1-3.37-1.12A3.65,3.65,0,0,1,73,40.72a10.58,10.58,0,0,1,.33-2.38c.22-.93.47-1.87.77-2.82s.6-1.86.93-2.71.6-1.54.82-2.05a1.53,1.53,0,0,1,.41-.5.93.93,0,0,1,.58-.2,2.12,2.12,0,0,1,.92.26,6,6,0,0,1,1,.58,4.4,4.4,0,0,1,.73.68,1,1,0,0,1,.3.57A5.66,5.66,0,0,1,79.45,34q-.33,1-.72,2.07c-.25.73-.49,1.51-.69,2.33A10.1,10.1,0,0,0,77.73,40.9ZM83,23.28a4.18,4.18,0,0,1-.24,1.41,4,4,0,0,1-.66,1.21,3.45,3.45,0,0,1-.95.85,2.25,2.25,0,0,1-1.12.31,2,2,0,0,1-2-2.09,3.77,3.77,0,0,1,.26-1.36A4.66,4.66,0,0,1,79,22.42a3.36,3.36,0,0,1,1-.84,2.33,2.33,0,0,1,1.17-.31,1.78,1.78,0,0,1,1.34.55A2,2,0,0,1,83,23.28Z"/><path class="cls-2" d="M97.06,40.24a9.22,9.22,0,0,1-2,2.27,11.19,11.19,0,0,1-2.55,1.54,8.62,8.62,0,0,1-3.6.7,7.83,7.83,0,0,1-2.57-.41,6.11,6.11,0,0,1-2-1.11A5.24,5.24,0,0,1,83,41.52a4.85,4.85,0,0,1-.48-2.16,9.3,9.3,0,0,1,.77-3.81,10.23,10.23,0,0,1,1.94-2.94,8.71,8.71,0,0,1,2.55-1.89,6,6,0,0,1,2.58-.66,3.82,3.82,0,0,1,1.58.33,4.71,4.71,0,0,1,1.28.86,4.07,4.07,0,0,1,.86,1.23,3.41,3.41,0,0,1,.31,1.43,5.61,5.61,0,0,1-.29,1.59,5.67,5.67,0,0,1-1,1.78,5.85,5.85,0,0,1-1.83,1.44,6.08,6.08,0,0,1-2.88.61,3.59,3.59,0,0,1-.84-.11c-.17,0-.36-.06-.55-.11a3.14,3.14,0,0,0,3.22,3.4A5,5,0,0,0,92.59,42a9,9,0,0,0,1.8-1.15,7.31,7.31,0,0,0,1.5-1.69.85.85,0,0,1,.18-.25,1.54,1.54,0,0,1,.22-.17.63.63,0,0,1,.33-.09.76.76,0,0,1,.54.22.71.71,0,0,1,.23.51.87.87,0,0,1,0,.28c0,.08-.08.18-.13.27S97.11,40.12,97.06,40.24Zm-9.85-2.63a3.54,3.54,0,0,0,1.87-.55,6.31,6.31,0,0,0,1.52-1.34,7.29,7.29,0,0,0,1-1.63A3.78,3.78,0,0,0,92,32.66c0-.49-.22-.73-.66-.73a2.34,2.34,0,0,0-1.5.62,7,7,0,0,0-1.3,1.5,9.32,9.32,0,0,0-.93,1.87A4.89,4.89,0,0,0,87.21,37.61Z"/><path class="cls-2" d="M98.67,20.72a1.93,1.93,0,0,1,.52-1.39,1.85,1.85,0,0,1,1.43-.55,1.92,1.92,0,0,1,1.46.51,2.07,2.07,0,0,1,.48,1.47,4.1,4.1,0,0,1-.53,2,9.17,9.17,0,0,1-1.25,1.74,9.48,9.48,0,0,1-1.39,1.24,2.15,2.15,0,0,1-.94.48q-.54,0-.54-.48a1,1,0,0,1,.18-.53c.12-.18.25-.4.4-.66a5.16,5.16,0,0,0,.4-.88,3.23,3.23,0,0,0,.19-1.19,1.53,1.53,0,0,0-.2-.82A1.62,1.62,0,0,1,98.67,20.72Z"/><path class="cls-2" d="M107.79,45a6.21,6.21,0,0,1-2.56-.53,7.89,7.89,0,0,1-2.11-1.33,7,7,0,0,1-1.42-1.76,3.62,3.62,0,0,1-.54-1.76,1.88,1.88,0,0,1,.55-1.36,5.56,5.56,0,0,1,1.21-.91,8.26,8.26,0,0,1,1.76-.66c.15-.24.34-.55.59-.92s.45-.71.77-1.19.68-1,1.09-1.7a12.83,12.83,0,0,1,2.2-2.69,2.72,2.72,0,0,1,1.61-.75,1.29,1.29,0,0,1,.61.16,3.27,3.27,0,0,1,.58.39,2,2,0,0,1,.44.44.67.67,0,0,1,.17.36,1,1,0,0,1-.15.46c-.1.18-.2.38-.31.59a4,4,0,0,0-.29.66,1.94,1.94,0,0,0-.13.71,7.09,7.09,0,0,0,.22,1.9c.15.54.31,1,.49,1.52s.35.94.5,1.4a5.07,5.07,0,0,1,.22,1.52,6.24,6.24,0,0,1-.37,2.18,4.84,4.84,0,0,1-1.06,1.73,4.71,4.71,0,0,1-1.72,1.14A6.4,6.4,0,0,1,107.79,45Zm0-10.4q-.77,1.17-1.35,2.13c-.35.56-.66,1.08-.94,1.57a2.91,2.91,0,0,0-.42.92,13,13,0,0,0,.09,1.55,6.14,6.14,0,0,0,.31,1.34,2.76,2.76,0,0,0,.55.93,1.08,1.08,0,0,0,.84.35,1.71,1.71,0,0,0,1.45-.91,3.85,3.85,0,0,0,.61-2.16,6.45,6.45,0,0,0-.19-1.47c-.12-.51-.25-1-.38-1.52s-.26-1-.39-1.46A5.3,5.3,0,0,1,107.83,34.6Z"/><path class="cls-2" d="M142.29,17.86a1.66,1.66,0,0,1,1.1.39,1.34,1.34,0,0,1,.48,1.12,1.84,1.84,0,0,1-.24.93,3.27,3.27,0,0,1-.58.75,3.61,3.61,0,0,1-.79.55,3.11,3.11,0,0,1-.84.29,2.21,2.21,0,0,0-.44.83,10.94,10.94,0,0,0-.44,1.7c-.15.73-.32,1.66-.52,2.78l-.69,4.07A30.68,30.68,0,0,1,138,36.71,16.32,16.32,0,0,1,135.78,41a9.91,9.91,0,0,1-3.12,2.78,8.3,8.3,0,0,1-4.14,1,6.54,6.54,0,0,1-2.94-.66,8.46,8.46,0,0,1-2.29-1.61,7.83,7.83,0,0,1-1.49-2,4.5,4.5,0,0,1-.53-1.92.94.94,0,0,1,.13-.51.45.45,0,0,1,.42-.22.47.47,0,0,1,.37.14l.22.3a7.11,7.11,0,0,0,.66.86,6.26,6.26,0,0,0,1,.88,4.89,4.89,0,0,0,1.23.69,3.85,3.85,0,0,0,1.52.28,5.81,5.81,0,0,0,3-.77,8.22,8.22,0,0,0,2.36-2.11,14.14,14.14,0,0,0,1.84-3.2,31.8,31.8,0,0,0,1.37-4.07c.39-1.46.75-2.74,1.08-3.82s.63-2,.9-2.73.57-1.59.84-2.2a17.2,17.2,0,0,0-4.4,1.9,12.84,12.84,0,0,0-1.61,1.19,10.24,10.24,0,0,0-1.39,1.54,7.81,7.81,0,0,0-1,1.93,7.18,7.18,0,0,0-.36,2.34,2.87,2.87,0,0,0,.44,1.76,5.06,5.06,0,0,0,.84.91,2.3,2.3,0,0,0,.38.33.43.43,0,0,1,.2.37c0,.32-.24.48-.73.48a4,4,0,0,1-1.57-.41,6.91,6.91,0,0,1-1.76-1.13,6.63,6.63,0,0,1-1.43-1.78,4.69,4.69,0,0,1-.59-2.33,5.24,5.24,0,0,1,.65-2.56,7.64,7.64,0,0,1,1.72-2.12A12.23,12.23,0,0,1,130,22.77a27.78,27.78,0,0,1,2.93-1.32,28.68,28.68,0,0,1,3.06-1c1-.26,2-.48,2.85-.65a4.72,4.72,0,0,1,1.72-1.54A4.12,4.12,0,0,1,142.29,17.86Z"/><path class="cls-2" d="M154.64,40.24a12.94,12.94,0,0,1-2.16,2.27,12,12,0,0,1-2.59,1.54,8.33,8.33,0,0,1-3.49.7,9.68,9.68,0,0,1-2.37-.3,6.37,6.37,0,0,1-2.14-1,5,5,0,0,1-1.54-1.72,5.32,5.32,0,0,1-.58-2.6,8.44,8.44,0,0,1,.75-3.5,10.35,10.35,0,0,1,1.94-2.91,9.67,9.67,0,0,1,2.65-2,6.36,6.36,0,0,1,2.86-.73,4.61,4.61,0,0,1,1.76.31,3.92,3.92,0,0,1,1.3.83,3.68,3.68,0,0,1,.82,1.15,3,3,0,0,1,.3,1.26,2.63,2.63,0,0,1-.2,1,3.71,3.71,0,0,1-.54.9,3.13,3.13,0,0,1-.71.66,1.39,1.39,0,0,1-.75.26,2,2,0,0,1-1.3-.46,1.37,1.37,0,0,1-.57-1.08,1.21,1.21,0,0,1,.22-.77,3.14,3.14,0,0,1,.5-.53l.51-.44a.63.63,0,0,0,.24-.5.7.7,0,0,0-.31-.53,1.2,1.2,0,0,0-.76-.23,2.46,2.46,0,0,0-1.55.6,5.76,5.76,0,0,0-1.34,1.59,9.71,9.71,0,0,0-1,2.22,8.41,8.41,0,0,0-.37,2.47,3.54,3.54,0,0,0,1,2.82,3.76,3.76,0,0,0,2.58.92,4.89,4.89,0,0,0,2.27-.52,9,9,0,0,0,1.76-1.13,8.56,8.56,0,0,0,1.54-1.69,1.39,1.39,0,0,1,.21-.25l.26-.17a.63.63,0,0,1,.33-.09.74.74,0,0,1,.55.22.7.7,0,0,1,.22.51.55.55,0,0,1-.07.28c-.05.08-.1.18-.15.27A1.74,1.74,0,0,0,154.64,40.24Z"/><path class="cls-2" d="M160.94,42.37a4.75,4.75,0,0,0,1.48-.22A5.32,5.32,0,0,0,164.31,41l.51-.49.26-.26.25-.17a.57.57,0,0,1,.29-.09.76.76,0,0,1,.55.22.7.7,0,0,1,.22.51.49.49,0,0,1-.09.28c-.06.09-.11.18-.16.27a2.7,2.7,0,0,0-.22.33,8.85,8.85,0,0,1-1.72,1.58,11,11,0,0,1-2,1.06,6.86,6.86,0,0,1-2.66.48,7.81,7.81,0,0,1-2.56-.41,6.11,6.11,0,0,1-2-1.11,5.11,5.11,0,0,1-1.32-1.71,4.85,4.85,0,0,1-.48-2.16,9.3,9.3,0,0,1,.77-3.81,10.23,10.23,0,0,1,1.94-2.94,8.71,8.71,0,0,1,2.55-1.89,5.94,5.94,0,0,1,2.58-.66,3.74,3.74,0,0,1,1.57.33,4.62,4.62,0,0,1,1.29.86,4.07,4.07,0,0,1,.86,1.23,3.57,3.57,0,0,1,.31,1.43,5.61,5.61,0,0,1-.29,1.59,5.67,5.67,0,0,1-1,1.78,5.79,5.79,0,0,1-1.84,1.44,6,6,0,0,1-2.87.61,3.59,3.59,0,0,1-.84-.11c-.17,0-.36-.06-.55-.11a3,3,0,0,0,1,2.45A3.45,3.45,0,0,0,160.94,42.37Zm-3.08-4.76a3.54,3.54,0,0,0,1.87-.55,6.5,6.5,0,0,0,1.52-1.34,7.29,7.29,0,0,0,1-1.63,3.78,3.78,0,0,0,.36-1.43c0-.49-.22-.73-.66-.73a2.34,2.34,0,0,0-1.5.62,7,7,0,0,0-1.3,1.5,9.32,9.32,0,0,0-.93,1.87A4.89,4.89,0,0,0,157.86,37.61Z"/><path class="cls-2" d="M188.37,45.44a11.13,11.13,0,0,1-3.41-.53,9.06,9.06,0,0,1-3-1.61,8.19,8.19,0,0,1-2.18-2.75,8.71,8.71,0,0,1-.84-4,14.14,14.14,0,0,1,.15-2,13.64,13.64,0,0,1,.44-2.05,13.76,13.76,0,0,1-2.93-1,10.43,10.43,0,0,1-2.2-1.42A6,6,0,0,1,173,28.34a3.65,3.65,0,0,1-.48-1.76,4.88,4.88,0,0,1,.93-2.86,10.77,10.77,0,0,1,2.2-2.27,12.16,12.16,0,0,1,2.58-1.5,6,6,0,0,1,2.09-.55c.42,0,.62.14.62.41a.49.49,0,0,1-.18.4l-.51.4c-.27.2-.57.43-.9.72a5.77,5.77,0,0,0-.93,1,5.5,5.5,0,0,0-.74,1.43,6,6,0,0,0-.29,2,5.21,5.21,0,0,0,.61,2.4,4.36,4.36,0,0,0,2.32,1.92A22,22,0,0,1,183,25.35a24.39,24.39,0,0,1,3.51-3.88,17.55,17.55,0,0,1,3.88-2.64,8.78,8.78,0,0,1,3.76-1,4.41,4.41,0,0,1,2.07.52,6,6,0,0,1,1.66,1.28,6.2,6.2,0,0,1,1.1,1.67,4,4,0,0,1,.41,1.66,6.18,6.18,0,0,1-1.05,3.15,12,12,0,0,1-3,3.22,17.33,17.33,0,0,1-4.66,2.53,18.28,18.28,0,0,1-6.13,1.1,16.32,16.32,0,0,0-.44,3.7q0,3.51,1.41,5a5.26,5.26,0,0,0,4.05,1.52,6.23,6.23,0,0,0,2-.33,10.66,10.66,0,0,0,1.92-.88,10.37,10.37,0,0,0,1.74-1.3,12,12,0,0,0,1.43-1.6.59.59,0,0,1,.18-.25,1.12,1.12,0,0,1,.22-.17.63.63,0,0,1,.33-.09.75.75,0,0,1,.77.73.67.67,0,0,1-.06.28,2.19,2.19,0,0,1-.13.27l-.14.33a12,12,0,0,1-3.66,3.54A12.15,12.15,0,0,1,191.5,45,10.48,10.48,0,0,1,188.37,45.44Zm6.15-25.09a4.77,4.77,0,0,0-2.53.85,12.42,12.42,0,0,0-2.58,2.29,21.12,21.12,0,0,0-2.36,3.33,23.44,23.44,0,0,0-1.83,4,11.38,11.38,0,0,0,4.49-1,12.32,12.32,0,0,0,3.38-2.29,10.21,10.21,0,0,0,2.13-2.9,6.61,6.61,0,0,0,.73-2.85,1.38,1.38,0,0,0-.37-1A1.37,1.37,0,0,0,194.52,20.35Z"/><path class="cls-2" d="M205.91,41a1.28,1.28,0,0,0,.33,1,1.18,1.18,0,0,0,.88.33,2.65,2.65,0,0,0,1.45-.47,7,7,0,0,0,1.26-1.1A8.33,8.33,0,0,0,211,39.14a.59.59,0,0,1,.18-.25,1.12,1.12,0,0,1,.22-.17.63.63,0,0,1,.33-.09.74.74,0,0,1,.53.22.68.68,0,0,1,.24.51.87.87,0,0,1,0,.28c0,.08-.08.18-.13.27s-.1.21-.15.33a12.81,12.81,0,0,1-1.79,2.27,10.19,10.19,0,0,1-2,1.54,4.8,4.8,0,0,1-2.51.7,5.61,5.61,0,0,1-1.9-.3,4.91,4.91,0,0,1-1.47-.78,3.5,3.5,0,0,1-.95-1.16,3.13,3.13,0,0,1-.33-1.43,6.8,6.8,0,0,1,.37-2.27,18.65,18.65,0,0,1,.78-1.94c.28-.58.55-1.1.79-1.55a2.5,2.5,0,0,0,.37-1.12.48.48,0,0,0-.35-.44,6.56,6.56,0,0,0-.75-.26c-.32-.07-.68-.13-1.1-.18a39.53,39.53,0,0,1-2,4.38c-.64,1.13-1.15,2-1.54,2.54a2,2,0,0,1-.28.33.67.67,0,0,1-.53.22.74.74,0,0,1-.53-.24.72.72,0,0,1-.24-.53.86.86,0,0,1,.17-.49,3.5,3.5,0,0,0,.24-.39c.34-.48.82-1.26,1.44-2.32a19.93,19.93,0,0,0,1.74-4.2,2.31,2.31,0,0,1-.62-.66,3.47,3.47,0,0,1-.4-.84,3.38,3.38,0,0,1-.19-1.21,2.83,2.83,0,0,1,.2-1,3,3,0,0,1,.54-.86,3.39,3.39,0,0,1,.69-.59,1.46,1.46,0,0,1,.7-.22,1.8,1.8,0,0,1,.77.2,4.19,4.19,0,0,1,.73.48,2.69,2.69,0,0,1,.55.62,1.2,1.2,0,0,1,.22.61,2.69,2.69,0,0,1-.24,1.21,2,2,0,0,0-.24.91.62.62,0,0,0,.44.59,2.94,2.94,0,0,0,1.1.18,6.06,6.06,0,0,0,1-.07c.29-.05.54-.11.76-.17l.62-.16a2.45,2.45,0,0,1,.62-.07,1.34,1.34,0,0,1,1.08.51,1.9,1.9,0,0,1,.42,1.24,3.53,3.53,0,0,1-.42,1.49l-.93,1.88a23.24,23.24,0,0,0-.94,2.15A6.22,6.22,0,0,0,205.91,41Z"/><path class="cls-2" d="M225.29,40.24a9.26,9.26,0,0,1-2,2.27,11.11,11.11,0,0,1-2.54,1.54,8.71,8.71,0,0,1-3.61.7,7.76,7.76,0,0,1-2.56-.41,6.06,6.06,0,0,1-2-1.11,5.24,5.24,0,0,1-1.32-1.71,5,5,0,0,1-.47-2.16,9.14,9.14,0,0,1,.77-3.81,10.23,10.23,0,0,1,1.94-2.94A8.8,8.8,0,0,1,216,30.72a6,6,0,0,1,2.58-.66,3.79,3.79,0,0,1,1.58.33,4.57,4.57,0,0,1,1.28.86,3.9,3.9,0,0,1,.86,1.23,3.41,3.41,0,0,1,.31,1.43,5.27,5.27,0,0,1-.29,1.59,5.41,5.41,0,0,1-2.8,3.22,6.08,6.08,0,0,1-2.88.61,3.59,3.59,0,0,1-.84-.11l-.55-.11a3.14,3.14,0,0,0,3.22,3.4,5.11,5.11,0,0,0,2.35-.53,8.91,8.91,0,0,0,1.79-1.15,7.31,7.31,0,0,0,1.5-1.69.75.75,0,0,1,.19-.25,1.12,1.12,0,0,1,.22-.17.58.58,0,0,1,.33-.09.76.76,0,0,1,.53.22.68.68,0,0,1,.24.51.67.67,0,0,1-.06.28,2.19,2.19,0,0,1-.13.27C225.38,40,225.34,40.12,225.29,40.24Zm-9.86-2.63a3.51,3.51,0,0,0,1.87-.55,6.31,6.31,0,0,0,1.52-1.34,6.94,6.94,0,0,0,1-1.63,3.82,3.82,0,0,0,.37-1.43c0-.49-.22-.73-.66-.73a2.34,2.34,0,0,0-1.51.62,7.31,7.31,0,0,0-1.3,1.5,9.88,9.88,0,0,0-.93,1.87A5.13,5.13,0,0,0,215.43,37.61Z"/><path class="cls-2" d="M242.68,40.24a12.37,12.37,0,0,1-1.79,2.27,9.9,9.9,0,0,1-2,1.54,4.8,4.8,0,0,1-2.51.7,4.29,4.29,0,0,1-2.6-.79,3.21,3.21,0,0,1-1.24-2.33A9.83,9.83,0,0,1,231,43.21a10.74,10.74,0,0,1-1.64,1.06,4.26,4.26,0,0,1-2,.48,3.58,3.58,0,0,1-1.41-.28,3.27,3.27,0,0,1-1.18-.79,4,4,0,0,1-.78-1.2,3.88,3.88,0,0,1-.3-1.54,10.79,10.79,0,0,1,.76-3.92,14,14,0,0,1,1.95-3.5A10.7,10.7,0,0,1,229.1,31a5.6,5.6,0,0,1,3-1,5.24,5.24,0,0,1,3.11.88,4.19,4.19,0,0,1,.88.84,4.41,4.41,0,0,1,.86.09,2.79,2.79,0,0,1,.84.3,1.84,1.84,0,0,1,.64.53,1.22,1.22,0,0,1,.26.8,4.53,4.53,0,0,1-.33,1.32c-.22.61-.46,1.29-.73,2s-.51,1.52-.73,2.31a8.07,8.07,0,0,0-.33,2.11,1,1,0,0,0,.27.73,1,1,0,0,0,.75.29,2.65,2.65,0,0,0,1.45-.47,6.38,6.38,0,0,0,1.26-1.1,7.93,7.93,0,0,0,1.21-1.58.7.7,0,0,1,.18-.25,1.54,1.54,0,0,1,.22-.17.63.63,0,0,1,.33-.09.73.73,0,0,1,.53.22.68.68,0,0,1,.24.51.87.87,0,0,1,0,.28c0,.08-.08.18-.13.27S242.73,40.12,242.68,40.24Zm-8.49-6.48a1.61,1.61,0,0,0-.39-1.19,1.27,1.27,0,0,0-.93-.39,2.41,2.41,0,0,0-1.65.85,9.09,9.09,0,0,0-1.52,2.07,14.35,14.35,0,0,0-1.12,2.65,8.94,8.94,0,0,0-.44,2.57c0,1.09.36,1.64,1.06,1.64a2.37,2.37,0,0,0,1.53-.88,11.26,11.26,0,0,0,1.62-2.16,16.32,16.32,0,0,0,1.31-2.69A7.24,7.24,0,0,0,234.19,33.76Z"/><path class="cls-2" d="M261.43,44.75a4.89,4.89,0,0,1-3.36-1.12,3.65,3.65,0,0,1-1.29-2.91,8,8,0,0,1,.3-2.27,16.28,16.28,0,0,1,.64-1.87l.64-1.58a3.73,3.73,0,0,0,.29-1.35.69.69,0,0,0-.18-.53A.69.69,0,0,0,258,33c-.41,0-1,.39-1.68,1.16a11.33,11.33,0,0,0-2,3.42,21.69,21.69,0,0,0-1.17,3.57,13.15,13.15,0,0,0-.37,2.91c0,.32-.07.52-.2.61a1.21,1.21,0,0,1-.6.13,4.87,4.87,0,0,1-2.46-.57,1.66,1.66,0,0,1-1-1.45,9.89,9.89,0,0,1,.33-2.43q.33-1.3.75-2.55t.75-2.31a6.05,6.05,0,0,0,.33-1.72c0-.51-.22-.77-.66-.77a2.53,2.53,0,0,0-1.52.74,7.19,7.19,0,0,0-1.61,2.14,15.18,15.18,0,0,0-1.26,3.48,19.73,19.73,0,0,0-.51,4.7c0,.32-.07.52-.2.61a1.23,1.23,0,0,1-.61.13,4.83,4.83,0,0,1-2.45-.57,1.66,1.66,0,0,1-1-1.45,16.26,16.26,0,0,1,.35-3.33c.23-1.15.5-2.25.82-3.3s.64-2,1-2.89.6-1.57.82-2.09a1,1,0,0,1,1-.69,2.58,2.58,0,0,1,1.07.33,4.6,4.6,0,0,1,1.5,1.64A12,12,0,0,1,249,31.23a11.78,11.78,0,0,1,1.63-.8,4.74,4.74,0,0,1,1.85-.37,2.44,2.44,0,0,1,1.9.77,5.44,5.44,0,0,1,1.1,1.94,17.48,17.48,0,0,1,1.76-1.35,10.19,10.19,0,0,1,1.74-.94,5,5,0,0,1,2-.42,2.24,2.24,0,0,1,1,.24,3.39,3.39,0,0,1,.89.62,3.11,3.11,0,0,1,.64.86,2.12,2.12,0,0,1,.24.95,4.86,4.86,0,0,1-.35,1.69c-.23.63-.49,1.31-.78,2a23.34,23.34,0,0,0-.79,2.22,7.62,7.62,0,0,0-.35,2.23,1.54,1.54,0,0,0,.31,1,1,1,0,0,0,.86.38,1.12,1.12,0,0,0,.59-.18l.59-.4a4.12,4.12,0,0,0,.62-.63,2.63,2.63,0,0,1,.33-.34.64.64,0,0,1,.44-.17.79.79,0,0,1,.55.26.76.76,0,0,1,.25.55.88.88,0,0,1-.22.51,3.31,3.31,0,0,0-.18.29,7.4,7.4,0,0,1-1.21,1.28,5.88,5.88,0,0,1-1.35.9A3.55,3.55,0,0,1,261.43,44.75Z"/><path class="cls-2" d="M285.13,43.46a5.86,5.86,0,0,0,2.49-.53,7.89,7.89,0,0,0,2.13-1.41,9.6,9.6,0,0,0,1.63-2,9,9,0,0,0,1-2.17,16.69,16.69,0,0,1-2.12.82,6.45,6.45,0,0,1-1.87.31,3.16,3.16,0,0,1-2-.53,1.65,1.65,0,0,1-.64-1.34,2.71,2.71,0,0,1,.69-1.72,7.33,7.33,0,0,1,1.72-1.48,10.27,10.27,0,0,1,2.2-1,7.06,7.06,0,0,1,2.13-.38,5.5,5.5,0,0,1,1.61.22,3.07,3.07,0,0,1,1.24.69,7.34,7.34,0,0,0,1-1.53,3.3,3.3,0,0,0,.37-1.43,1,1,0,0,0-.28-.79,1,1,0,0,0-.71-.28,1.88,1.88,0,0,0-.7.15,7.32,7.32,0,0,0-.69.33l-.59.33a.89.89,0,0,1-.36.15.84.84,0,0,1-.44-.11c-.13-.08-.19-.23-.19-.48s.17-.42.52-.75a7.36,7.36,0,0,1,1.28-1,10.13,10.13,0,0,1,1.68-.84,4.56,4.56,0,0,1,1.72-.37,2.39,2.39,0,0,1,1.67.61,2.1,2.1,0,0,1,.68,1.66,5.51,5.51,0,0,1-1.16,3.17,15.71,15.71,0,0,1-2.83,3,2.16,2.16,0,0,1,0,.35v.35a6.69,6.69,0,0,1-1,3.4,12.52,12.52,0,0,1-2.79,3.21,15.14,15.14,0,0,1-4,2.38,12.42,12.42,0,0,1-4.76.93,13.41,13.41,0,0,1-3.07-.36,8.72,8.72,0,0,1-2.77-1.18,6.42,6.42,0,0,1-2-2.07,5.53,5.53,0,0,1-.79-3,7.24,7.24,0,0,1,.33-2.23,8.42,8.42,0,0,1,.86-1.87,7.87,7.87,0,0,1,1.23-1.52A14.8,14.8,0,0,1,278.91,32a16.62,16.62,0,0,1,3.88-2.05,6.18,6.18,0,0,1-1.32-1.13,6.73,6.73,0,0,1-.94-1.34,3.78,3.78,0,0,1-.42-1.81,11.85,11.85,0,0,1-3.68-1.36A2.54,2.54,0,0,1,275,22.08a2.45,2.45,0,0,1,.47-1.4,6.36,6.36,0,0,1,1.14-1.24,6.9,6.9,0,0,1,1.35-.9,2.75,2.75,0,0,1,1.1-.35.3.3,0,0,1,.26.11.4.4,0,0,1,.07.22,1.39,1.39,0,0,1-.33.64,1.88,1.88,0,0,0-.33,1.12,2.77,2.77,0,0,0,.52,1.63,4.83,4.83,0,0,0,1.42,1.34,7.65,7.65,0,0,1,1.67-2.13,12.44,12.44,0,0,1,2.42-1.72,12.56,12.56,0,0,1,2.84-1.13,11.19,11.19,0,0,1,2.93-.41,6.82,6.82,0,0,1,1.84.24,5.35,5.35,0,0,1,1.51.66,3.17,3.17,0,0,1,1,1,2.47,2.47,0,0,1,.37,1.33,2.88,2.88,0,0,1-.79,1.94,6.61,6.61,0,0,1-2.12,1.6,13.2,13.2,0,0,1-3.13,1.06,18,18,0,0,1-3.81.39h-.66a5.25,5.25,0,0,0,.13,1.24,4.82,4.82,0,0,0,.31.95,3.69,3.69,0,0,0,.44.84c.19,0,.42-.06.69-.11l.79-.07c.31,0,.65,0,1,0,1.44,0,2.17.43,2.17,1.29a1.57,1.57,0,0,1-.64,1.11,2.49,2.49,0,0,1-1.71.57,7.55,7.55,0,0,1-1.21-.09,5.25,5.25,0,0,1-.95-.24,4.51,4.51,0,0,1-.8-.36,11.29,11.29,0,0,0-2.42,1.9,11,11,0,0,0-1.67,2.34,6.79,6.79,0,0,0-.75,3.26,4.58,4.58,0,0,0,1.34,3.54A5.15,5.15,0,0,0,285.13,43.46Zm5.28-24a4.09,4.09,0,0,0-1.69.37,6,6,0,0,0-1.57,1,7.38,7.38,0,0,0-1.32,1.54,6.81,6.81,0,0,0-.88,2,14.72,14.72,0,0,0,2.91-.26,9.39,9.39,0,0,0,2.33-.73,4.52,4.52,0,0,0,1.53-1.13,2.22,2.22,0,0,0,.55-1.47,1,1,0,0,0-.55-.93A2.39,2.39,0,0,0,290.41,19.44Zm-.92,17.14a4.15,4.15,0,0,0,1.5-.31,9.34,9.34,0,0,0,1.65-.86,2.06,2.06,0,0,0-.49-1.43,1.58,1.58,0,0,0-1-.37,1.74,1.74,0,0,0-.75.22,4.63,4.63,0,0,0-.81.55,3.65,3.65,0,0,0-.64.73,1.45,1.45,0,0,0-.25.77C288.65,36.35,288.93,36.58,289.49,36.58Z"/><path class="cls-2" d="M343.8,42.29a2.63,2.63,0,0,0,1.45-.47,6.74,6.74,0,0,0,1.27-1.1,8.29,8.29,0,0,0,1.2-1.58.75.75,0,0,1,.19-.25,1.12,1.12,0,0,1,.22-.17.58.58,0,0,1,.33-.09.76.76,0,0,1,.53.22.68.68,0,0,1,.24.51.67.67,0,0,1-.06.28c0,.08-.08.18-.13.27a2.52,2.52,0,0,0-.14.33,12.85,12.85,0,0,1-1.8,2.27,10.11,10.11,0,0,1-2,1.54,4.82,4.82,0,0,1-2.51.7,5,5,0,0,1-1.89-.37,5.59,5.59,0,0,1-1.67-1,5.31,5.31,0,0,1-1.19-1.6,4.69,4.69,0,0,1-.45-2.07,16.33,16.33,0,0,1,.34-3.11c.24-1.17.55-2.39.94-3.64s.82-2.53,1.3-3.81,1-2.5,1.44-3.65c-.48.64-1,1.42-1.61,2.36s-1.18,2-1.77,3-1.19,2.2-1.78,3.34-1.12,2.21-1.61,3.22-.92,1.9-1.3,2.67-.65,1.35-.83,1.74a3.83,3.83,0,0,1-.73,1.1,7.92,7.92,0,0,1-1,.92,7,7,0,0,1-1,.64,1.77,1.77,0,0,1-.68.24,1.54,1.54,0,0,1-.9-.33,3.65,3.65,0,0,1-.86-.92,5.43,5.43,0,0,1-.66-1.32,4.7,4.7,0,0,1-.26-1.57c0-.37,0-.88.08-1.54s.11-1.4.18-2.23.16-1.71.26-2.62.18-1.82.25-2.69.14-1.71.19-2.48.07-1.41.07-1.92l-1.12,3.55q-.6,2-1.35,3.9c-.5,1.31-1.05,2.57-1.65,3.79a21.15,21.15,0,0,1-1.94,3.25,10.54,10.54,0,0,1-2.25,2.27,4.41,4.41,0,0,1-2.57.86,8.41,8.41,0,0,1-3.22-.64,11.08,11.08,0,0,1-2.73-1.6,8.6,8.6,0,0,1-1.89-2,3.88,3.88,0,0,1-.69-2.05,3.34,3.34,0,0,1,.69-2,6.65,6.65,0,0,1,1.71-1.59,9.82,9.82,0,0,1,2.1-1,5.84,5.84,0,0,1,1.91-.38c.61,0,.91.18.91.55a.82.82,0,0,1-.16.53,4.56,4.56,0,0,1-.57.53,5.29,5.29,0,0,0-.7.64,8.32,8.32,0,0,0-.76,1,5.13,5.13,0,0,0-.61,1.19,4.06,4.06,0,0,0-.24,1.39,2.61,2.61,0,0,0,.75,1.93,2.48,2.48,0,0,0,1.82.75,3.61,3.61,0,0,0,2.29-1.17,18.49,18.49,0,0,0,2.54-3,37.93,37.93,0,0,0,2.49-4.15q1.22-2.31,2.16-4.55a37.08,37.08,0,0,0,1.52-4.15,11.43,11.43,0,0,0,.57-3.06,1.69,1.69,0,0,0-.44-1.15,1.87,1.87,0,0,0-1.46-.5,4.91,4.91,0,0,0-2,.57,10,10,0,0,0-4.12,3.72,4.83,4.83,0,0,0-.77,2.56,3.38,3.38,0,0,0,.3,1.47,6.17,6.17,0,0,0,.62,1.06,7.27,7.27,0,0,0,.62.73c.2.2.3.35.3.48,0,.49-.26.73-.77.73A4.94,4.94,0,0,1,317,31a7.25,7.25,0,0,1-1.93-1.08,6.67,6.67,0,0,1-1.53-1.61,3.47,3.47,0,0,1-.63-2,5.25,5.25,0,0,1,1.19-3.23,11.9,11.9,0,0,1,3-2.69,16.33,16.33,0,0,1,4-1.83,14.15,14.15,0,0,1,4.19-.68,6.17,6.17,0,0,1,2,.39,7.22,7.22,0,0,1,2.1,1.15,6.66,6.66,0,0,1,1.67,2,5.55,5.55,0,0,1,.68,2.77c0,1.19-.05,2.56-.15,4.08s-.2,3-.31,4.47-.21,2.76-.31,3.92-.15,2-.15,2.43c.17-.29.44-.78.81-1.48s.8-1.53,1.3-2.51,1.07-2,1.7-3.22,1.31-2.38,2-3.61,1.44-2.46,2.21-3.68,1.56-2.37,2.36-3.44a5.93,5.93,0,0,1,1.51-1.49,8.16,8.16,0,0,1,1.77-.89,9.14,9.14,0,0,1,1.94-.46,15,15,0,0,1,2-.13c.71,0,1.06.17,1.06.51a1,1,0,0,1-.2.48,6.86,6.86,0,0,1-.71.84,10.1,10.1,0,0,0-1,1.69c-.43.83-.89,1.82-1.39,3s-1,2.42-1.54,3.79-1,2.74-1.45,4.12a41,41,0,0,0-1.06,4,16.6,16.6,0,0,0-.4,3.36,2.5,2.5,0,0,0,.58,1.85A2.09,2.09,0,0,0,343.8,42.29Z"/><path class="cls-2" d="M365.19,40.24a6,6,0,0,1-1.57,1.58,8.51,8.51,0,0,1-2,1.1,7.63,7.63,0,0,1-2.8.47,9.31,9.31,0,0,1-1.43-.11,6.73,6.73,0,0,1-4.17,1.47,6,6,0,0,1-2.18-.41,5.78,5.78,0,0,1-1.83-1.09A5.3,5.3,0,0,1,348,41.6a4.7,4.7,0,0,1-.46-2,10,10,0,0,1,.79-4.08,9.62,9.62,0,0,1,2-3,8.93,8.93,0,0,1,2.75-1.83,7.72,7.72,0,0,1,2.93-.62,5.87,5.87,0,0,1,2.12.37,4.62,4.62,0,0,1,1.71,1.08A5.3,5.3,0,0,1,361,33.23a5.78,5.78,0,0,1,.42,2.25,8.84,8.84,0,0,1-.6,3.08,11.66,11.66,0,0,1-1.67,3l.28.06h.31a3.75,3.75,0,0,0,1.72-.38,7.53,7.53,0,0,0,1.36-.86A9.77,9.77,0,0,0,364,39.14a.85.85,0,0,1,.18-.25,1.54,1.54,0,0,1,.22-.17.63.63,0,0,1,.33-.09.73.73,0,0,1,.53.22.68.68,0,0,1,.24.51.87.87,0,0,1,0,.28c0,.08-.08.18-.13.27Zm-13.37.26a3.23,3.23,0,0,0,.46,1.79,1.46,1.46,0,0,0,1.3.7,1.84,1.84,0,0,0,1.14-.44,1.09,1.09,0,0,1-.62-.88,1.16,1.16,0,0,1,.2-.62,2.53,2.53,0,0,1,.49-.59,3.33,3.33,0,0,1,.61-.42,1.13,1.13,0,0,1,.53-.16,1.25,1.25,0,0,1,.4.07,15.47,15.47,0,0,0,.84-3,14.82,14.82,0,0,0,.3-2.76,3,3,0,0,0-.41-1.78,1.24,1.24,0,0,0-1-.53,2.13,2.13,0,0,0-1.36.64,6.67,6.67,0,0,0-1.37,1.79,12.06,12.06,0,0,0-1.06,2.71A13.14,13.14,0,0,0,351.82,40.5Z"/><path class="cls-2" d="M373.29,41a1.28,1.28,0,0,0,.33,1,1.18,1.18,0,0,0,.88.33,2.62,2.62,0,0,0,1.44-.47,6.74,6.74,0,0,0,1.27-1.1,7.9,7.9,0,0,0,1.2-1.58.75.75,0,0,1,.19-.25,1.12,1.12,0,0,1,.22-.17.6.6,0,0,1,.33-.09.76.76,0,0,1,.53.22.68.68,0,0,1,.24.51.67.67,0,0,1-.06.28c0,.08-.08.18-.13.27s-.09.21-.14.33a12.85,12.85,0,0,1-1.8,2.27,9.83,9.83,0,0,1-2,1.54,4.82,4.82,0,0,1-2.51.7,5.67,5.67,0,0,1-1.91-.3,4.74,4.74,0,0,1-1.46-.78,3.38,3.38,0,0,1-.95-1.16,3.13,3.13,0,0,1-.33-1.43,7.06,7.06,0,0,1,.36-2.27c.25-.7.51-1.35.79-1.94s.54-1.1.79-1.55a2.59,2.59,0,0,0,.36-1.12.47.47,0,0,0-.34-.44,7.51,7.51,0,0,0-.76-.26c-.31-.07-.68-.13-1.09-.18a37.63,37.63,0,0,1-2,4.38c-.63,1.13-1.15,2-1.54,2.54a2.46,2.46,0,0,1-.27.33.68.68,0,0,1-.53.22.83.83,0,0,1-.77-.77.84.84,0,0,1,.16-.49,3.5,3.5,0,0,0,.24-.39c.34-.48.83-1.26,1.45-2.32a20.48,20.48,0,0,0,1.74-4.2,2.34,2.34,0,0,1-.63-.66,3.89,3.89,0,0,1-.4-.84,3.63,3.63,0,0,1-.18-1.21,2.83,2.83,0,0,1,.2-1,2.77,2.77,0,0,1,.53-.86,3.18,3.18,0,0,1,.7-.59,1.39,1.39,0,0,1,.69-.22,1.77,1.77,0,0,1,.77.2,3.84,3.84,0,0,1,.73.48,2.48,2.48,0,0,1,.55.62,1.2,1.2,0,0,1,.22.61,2.84,2.84,0,0,1-.23,1.21,2,2,0,0,0-.24.91.61.61,0,0,0,.44.59,2.91,2.91,0,0,0,1.1.18,6.14,6.14,0,0,0,1-.07c.28-.05.53-.11.75-.17l.62-.16a2.59,2.59,0,0,1,.63-.07,1.34,1.34,0,0,1,1.08.51,1.9,1.9,0,0,1,.42,1.24,3.53,3.53,0,0,1-.42,1.49c-.28.57-.6,1.2-.94,1.88a23.2,23.2,0,0,0-.93,2.15A6.22,6.22,0,0,0,373.29,41Z"/><path class="cls-2" d="M385.89,42.37a4.75,4.75,0,0,0,1.48-.22A5.32,5.32,0,0,0,389.26,41l.51-.49.26-.26.25-.17a.57.57,0,0,1,.29-.09.76.76,0,0,1,.55.22.7.7,0,0,1,.22.51.49.49,0,0,1-.09.28c-.06.09-.11.18-.16.27a2.7,2.7,0,0,0-.22.33,9.15,9.15,0,0,1-1.72,1.58,11,11,0,0,1-2,1.06,6.86,6.86,0,0,1-2.66.48,7.81,7.81,0,0,1-2.56-.41,6.11,6.11,0,0,1-2-1.11,5,5,0,0,1-1.32-1.71,4.85,4.85,0,0,1-.48-2.16,9.3,9.3,0,0,1,.77-3.81,10.23,10.23,0,0,1,1.94-2.94,8.71,8.71,0,0,1,2.55-1.89,5.94,5.94,0,0,1,2.58-.66,3.74,3.74,0,0,1,1.57.33,4.62,4.62,0,0,1,1.29.86,4.07,4.07,0,0,1,.86,1.23,3.57,3.57,0,0,1,.31,1.43,5.61,5.61,0,0,1-.29,1.59,5.51,5.51,0,0,1-1,1.78,5.63,5.63,0,0,1-1.83,1.44,6,6,0,0,1-2.87.61,3.59,3.59,0,0,1-.84-.11c-.18,0-.36-.06-.55-.11a3,3,0,0,0,1,2.45A3.45,3.45,0,0,0,385.89,42.37Zm-3.08-4.76a3.54,3.54,0,0,0,1.87-.55,6.5,6.5,0,0,0,1.52-1.34,7.23,7.23,0,0,0,1-1.63,3.64,3.64,0,0,0,.37-1.43c0-.49-.22-.73-.66-.73a2.34,2.34,0,0,0-1.5.62,7,7,0,0,0-1.3,1.5,9.32,9.32,0,0,0-.93,1.87A4.89,4.89,0,0,0,382.81,37.61Z"/><rect class="cls-3" width="402.19" height="70.23"/></g></g></svg>